<svg width="151" height="148" viewBox="0 0 151 148" fill="none" xmlns="http://www.w3.org/2000/svg">
<path d="M121.08 0.304199C118.888 0.304199 117.105 2.08775 117.105 4.28004C117.105 6.47233 118.887 8.25576 121.08 8.25576C123.274 8.25576 125.056 6.47233 125.056 4.28004C125.056 2.08775 123.273 0.304199 121.08 0.304199Z" fill="#F9C73A"/>
<path d="M133.948 0.304199C131.756 0.304199 129.972 2.08775 129.972 4.28004C129.972 6.47233 131.756 8.25576 133.948 8.25576C136.141 8.25576 137.924 6.47233 137.924 4.28004C137.924 2.08775 136.141 0.304199 133.948 0.304199Z" fill="#F9C73A"/>
<path d="M147.024 8.25588C149.216 8.25588 151 6.47245 151 4.28016C151 2.08787 149.218 0.304199 147.024 0.304199C144.831 0.304199 143.048 2.08775 143.048 4.28004C143.048 6.47233 144.832 8.25588 147.024 8.25588Z" fill="#F9C73A"/>
<path d="M120.977 20.9956C123.169 20.9956 124.953 19.2126 124.953 17.0199C124.953 14.8271 123.169 13.0437 120.977 13.0437C118.784 13.0437 117 14.8273 117 17.0199C117 19.2126 118.784 20.9956 120.977 20.9956Z" fill="#F9C73A"/>
<path d="M133.844 20.9956C136.036 20.9956 137.82 19.2126 137.82 17.0199C137.82 14.8271 136.038 13.0437 133.844 13.0437C131.651 13.0437 129.868 14.8271 129.868 17.0199C129.868 19.2126 131.652 20.9956 133.844 20.9956Z" fill="#F9C73A"/>
<path d="M146.921 20.9956C149.114 20.9956 150.897 19.2126 150.897 17.0199C150.897 14.8271 149.114 13.0437 146.921 13.0437C144.729 13.0437 142.944 14.8271 142.944 17.0199C142.944 19.2126 144.728 20.9956 146.921 20.9956Z" fill="#F9C73A"/>
<path d="M121.068 25.7441C118.875 25.7441 117.091 27.5272 117.091 29.72C117.091 31.9119 118.875 33.6957 121.068 33.6957C123.26 33.6957 125.043 31.9128 125.043 29.72C125.043 27.5272 123.26 25.7441 121.068 25.7441Z" fill="#F9C73A"/>
<path d="M133.936 25.7441C131.744 25.7441 129.959 27.5272 129.959 29.72C129.959 31.9119 131.743 33.6957 133.936 33.6957C136.128 33.6957 137.912 31.9128 137.912 29.72C137.912 27.5272 136.128 25.7441 133.936 25.7441Z" fill="#F9C73A"/>
<path d="M147.012 25.7441C144.82 25.7441 143.036 27.5272 143.036 29.72C143.036 31.9119 144.82 33.6957 147.012 33.6957C149.204 33.6957 150.987 31.9128 150.987 29.72C150.987 27.5272 149.203 25.7441 147.012 25.7441Z" fill="#F9C73A"/>
<path d="M82.0805 0.304199C79.8881 0.304199 78.1046 2.08775 78.1046 4.28004C78.1046 6.47233 79.8873 8.25576 82.0805 8.25576C84.2736 8.25576 86.0563 6.47233 86.0563 4.28004C86.0563 2.08775 84.2728 0.304199 82.0805 0.304199Z" fill="#F9C73A"/>
<path d="M94.9482 0.304199C92.7559 0.304199 90.9724 2.08775 90.9724 4.28004C90.9724 6.47233 92.7559 8.25576 94.9482 8.25576C97.1406 8.25576 98.9244 6.47233 98.9244 4.28004C98.9244 2.08775 97.1414 0.304199 94.9482 0.304199Z" fill="#F9C73A"/>
<path d="M108.024 8.25588C110.216 8.25588 112 6.47245 112 4.28016C112 2.08787 110.218 0.304199 108.024 0.304199C105.831 0.304199 104.048 2.08775 104.048 4.28004C104.048 6.47233 105.832 8.25588 108.024 8.25588Z" fill="#F9C73A"/>
<path d="M81.9766 20.9956C84.1689 20.9956 85.9528 19.2126 85.9528 17.0199C85.9528 14.8271 84.1689 13.0437 81.9766 13.0437C79.7843 13.0437 78 14.8273 78 17.0199C78 19.2126 79.7843 20.9956 81.9766 20.9956Z" fill="#F9C73A"/>
<path d="M94.8443 20.9956C97.0363 20.9956 98.8202 19.2126 98.8202 17.0199C98.8202 14.8271 97.0377 13.0437 94.8443 13.0437C92.6513 13.0437 90.8685 14.8271 90.8685 17.0199C90.8685 19.2126 92.6521 20.9956 94.8443 20.9956Z" fill="#F9C73A"/>
<path d="M107.921 20.9956C110.114 20.9956 111.897 19.2126 111.897 17.0199C111.897 14.8271 110.114 13.0437 107.921 13.0437C105.729 13.0437 103.944 14.8271 103.944 17.0199C103.944 19.2126 105.728 20.9956 107.921 20.9956Z" fill="#F9C73A"/>
<path d="M82.0676 25.7441C79.8753 25.7441 78.091 27.5272 78.091 29.72C78.091 31.9119 79.8753 33.6957 82.0676 33.6957C84.2599 33.6957 86.0433 31.9128 86.0433 29.72C86.0433 27.5272 84.2599 25.7441 82.0676 25.7441Z" fill="#F9C73A"/>
<path d="M94.936 25.7441C92.7436 25.7441 90.9594 27.5272 90.9594 29.72C90.9594 31.9119 92.743 33.6957 94.936 33.6957C97.1279 33.6957 98.9117 31.9128 98.9117 29.72C98.9117 27.5272 97.1279 25.7441 94.936 25.7441Z" fill="#F9C73A"/>
<path d="M108.012 25.7441C105.82 25.7441 104.036 27.5272 104.036 29.72C104.036 31.9119 105.82 33.6957 108.012 33.6957C110.204 33.6957 111.987 31.9128 111.987 29.72C111.987 27.5272 110.203 25.7441 108.012 25.7441Z" fill="#F9C73A"/>
<path d="M43.0805 0.304199C40.8881 0.304199 39.1046 2.08775 39.1046 4.28004C39.1046 6.47233 40.8873 8.25576 43.0805 8.25576C45.2736 8.25576 47.0563 6.47233 47.0563 4.28004C47.0563 2.08775 45.2728 0.304199 43.0805 0.304199Z" fill="#F9C73A"/>
<path d="M55.9482 0.304199C53.7559 0.304199 51.9724 2.08775 51.9724 4.28004C51.9724 6.47233 53.7559 8.25576 55.9482 8.25576C58.1406 8.25576 59.9244 6.47233 59.9244 4.28004C59.9244 2.08775 58.1414 0.304199 55.9482 0.304199Z" fill="#F9C73A"/>
<path d="M69.0242 8.25588C71.2161 8.25588 73 6.47245 73 4.28016C73 2.08787 71.2176 0.304199 69.0242 0.304199C66.8308 0.304199 65.0483 2.08775 65.0483 4.28004C65.0483 6.47233 66.8321 8.25588 69.0242 8.25588Z" fill="#F9C73A"/>
<path d="M42.9766 20.9956C45.1689 20.9956 46.9528 19.2126 46.9528 17.0199C46.9528 14.8271 45.1689 13.0437 42.9766 13.0437C40.7843 13.0437 39 14.8273 39 17.0199C39 19.2126 40.7843 20.9956 42.9766 20.9956Z" fill="#F9C73A"/>
<path d="M55.8443 20.9956C58.0363 20.9956 59.8202 19.2126 59.8202 17.0199C59.8202 14.8271 58.0377 13.0437 55.8443 13.0437C53.6513 13.0437 51.8685 14.8271 51.8685 17.0199C51.8685 19.2126 53.6521 20.9956 55.8443 20.9956Z" fill="#F9C73A"/>
<path d="M68.9214 20.9956C71.1142 20.9956 72.8972 19.2126 72.8972 17.0199C72.8972 14.8271 71.1142 13.0437 68.9214 13.0437C66.7286 13.0437 64.9441 14.8271 64.9441 17.0199C64.9441 19.2126 66.728 20.9956 68.9214 20.9956Z" fill="#F9C73A"/>
<path d="M43.0676 25.7441C40.8753 25.7441 39.091 27.5272 39.091 29.72C39.091 31.9119 40.8753 33.6957 43.0676 33.6957C45.2599 33.6957 47.0433 31.9128 47.0433 29.72C47.0433 27.5272 45.2599 25.7441 43.0676 25.7441Z" fill="#F9C73A"/>
<path d="M55.936 25.7441C53.7436 25.7441 51.9594 27.5272 51.9594 29.72C51.9594 31.9119 53.743 33.6957 55.936 33.6957C58.1279 33.6957 59.9117 31.9128 59.9117 29.72C59.9117 27.5272 58.1279 25.7441 55.936 25.7441Z" fill="#F9C73A"/>
<path d="M69.0116 25.7441C66.8197 25.7441 65.0357 27.5272 65.0357 29.72C65.0357 31.9119 66.8197 33.6957 69.0116 33.6957C71.2044 33.6957 72.9874 31.9128 72.9874 29.72C72.9874 27.5272 71.2035 25.7441 69.0116 25.7441Z" fill="#F9C73A"/>
<path d="M4.08049 0.304199C1.88807 0.304199 0.104645 2.08775 0.104645 4.28004C0.104645 6.47233 1.88734 8.25576 4.08049 8.25576C6.27364 8.25576 8.05633 6.47233 8.05633 4.28004C8.05633 2.08775 6.27278 0.304199 4.08049 0.304199Z" fill="#F9C73A"/>
<path d="M16.9482 0.304199C14.7559 0.304199 12.9724 2.08775 12.9724 4.28004C12.9724 6.47233 14.7559 8.25576 16.9482 8.25576C19.1406 8.25576 20.9244 6.47233 20.9244 4.28004C20.9244 2.08775 19.1414 0.304199 16.9482 0.304199Z" fill="#F9C73A"/>
<path d="M30.0242 8.25588C32.2161 8.25588 34 6.47245 34 4.28016C34 2.08787 32.2176 0.304199 30.0242 0.304199C27.8308 0.304199 26.0483 2.08775 26.0483 4.28004C26.0483 6.47233 27.8321 8.25588 30.0242 8.25588Z" fill="#F9C73A"/>
<path d="M3.97658 20.9956C6.16887 20.9956 7.95279 19.2126 7.95279 17.0199C7.95279 14.8271 6.16887 13.0437 3.97658 13.0437C1.78429 13.0437 0 14.8273 0 17.0199C0 19.2126 1.78429 20.9956 3.97658 20.9956Z" fill="#F9C73A"/>
<path d="M16.8443 20.9956C19.0363 20.9956 20.8202 19.2126 20.8202 17.0199C20.8202 14.8271 19.0377 13.0437 16.8443 13.0437C14.6513 13.0437 12.8685 14.8271 12.8685 17.0199C12.8685 19.2126 14.6521 20.9956 16.8443 20.9956Z" fill="#F9C73A"/>
<path d="M29.9214 20.9956C32.1142 20.9956 33.8972 19.2126 33.8972 17.0199C33.8972 14.8271 32.1142 13.0437 29.9214 13.0437C27.7286 13.0437 25.9441 14.8271 25.9441 17.0199C25.9441 19.2126 27.728 20.9956 29.9214 20.9956Z" fill="#F9C73A"/>
<path d="M4.06758 25.7441C1.87529 25.7441 0.0910034 27.5272 0.0910034 29.72C0.0910034 31.9119 1.87529 33.6957 4.06758 33.6957C6.25987 33.6957 8.0433 31.9128 8.0433 29.72C8.0433 27.5272 6.25987 25.7441 4.06758 25.7441Z" fill="#F9C73A"/>
<path d="M16.936 25.7441C14.7436 25.7441 12.9594 27.5272 12.9594 29.72C12.9594 31.9119 14.743 33.6957 16.936 33.6957C19.1279 33.6957 20.9117 31.9128 20.9117 29.72C20.9117 27.5272 19.1279 25.7441 16.936 25.7441Z" fill="#F9C73A"/>
<path d="M30.0116 25.7441C27.8197 25.7441 26.0357 27.5272 26.0357 29.72C26.0357 31.9119 27.8197 33.6957 30.0116 33.6957C32.2044 33.6957 33.9874 31.9128 33.9874 29.72C33.9874 27.5272 32.2035 25.7441 30.0116 25.7441Z" fill="#F9C73A"/>
<path d="M121.08 38.3042C118.888 38.3042 117.105 40.0878 117.105 42.28C117.105 44.4723 118.887 46.2558 121.08 46.2558C123.274 46.2558 125.056 44.4723 125.056 42.28C125.056 40.0878 123.273 38.3042 121.08 38.3042Z" fill="#F9C73A"/>
<path d="M133.948 38.3042C131.756 38.3042 129.972 40.0878 129.972 42.28C129.972 44.4723 131.756 46.2558 133.948 46.2558C136.141 46.2558 137.924 44.4723 137.924 42.28C137.924 40.0878 136.141 38.3042 133.948 38.3042Z" fill="#F9C73A"/>
<path d="M147.024 46.2559C149.216 46.2559 151 44.4725 151 42.2802C151 40.0879 149.218 38.3042 147.024 38.3042C144.831 38.3042 143.048 40.0878 143.048 42.28C143.048 44.4723 144.832 46.2559 147.024 46.2559Z" fill="#F9C73A"/>
<path d="M120.977 58.9956C123.169 58.9956 124.953 57.2126 124.953 55.0199C124.953 52.8271 123.169 51.0437 120.977 51.0437C118.784 51.0437 117 52.8273 117 55.0199C117 57.2126 118.784 58.9956 120.977 58.9956Z" fill="#F9C73A"/>
<path d="M133.844 58.9956C136.036 58.9956 137.82 57.2126 137.82 55.0199C137.82 52.8271 136.038 51.0437 133.844 51.0437C131.651 51.0437 129.868 52.8271 129.868 55.0199C129.868 57.2126 131.652 58.9956 133.844 58.9956Z" fill="#F9C73A"/>
<path d="M146.921 58.9956C149.114 58.9956 150.897 57.2126 150.897 55.0199C150.897 52.8271 149.114 51.0437 146.921 51.0437C144.729 51.0437 142.944 52.8271 142.944 55.0199C142.944 57.2126 144.728 58.9956 146.921 58.9956Z" fill="#F9C73A"/>
<path d="M121.068 63.7441C118.875 63.7441 117.091 65.5272 117.091 67.72C117.091 69.9119 118.875 71.6957 121.068 71.6957C123.26 71.6957 125.043 69.9128 125.043 67.72C125.043 65.5272 123.26 63.7441 121.068 63.7441Z" fill="#F9C73A"/>
<path d="M133.936 63.7441C131.744 63.7441 129.959 65.5272 129.959 67.72C129.959 69.9119 131.743 71.6957 133.936 71.6957C136.128 71.6957 137.912 69.9128 137.912 67.72C137.912 65.5272 136.128 63.7441 133.936 63.7441Z" fill="#F9C73A"/>
<path d="M147.012 63.7441C144.82 63.7441 143.036 65.5272 143.036 67.72C143.036 69.9119 144.82 71.6957 147.012 71.6957C149.204 71.6957 150.987 69.9128 150.987 67.72C150.987 65.5272 149.203 63.7441 147.012 63.7441Z" fill="#F9C73A"/>
<path d="M82.0805 38.3042C79.8881 38.3042 78.1046 40.0878 78.1046 42.28C78.1046 44.4723 79.8873 46.2558 82.0805 46.2558C84.2736 46.2558 86.0563 44.4723 86.0563 42.28C86.0563 40.0878 84.2728 38.3042 82.0805 38.3042Z" fill="#F9C73A"/>
<path d="M94.9482 38.3042C92.7559 38.3042 90.9724 40.0878 90.9724 42.28C90.9724 44.4723 92.7559 46.2558 94.9482 46.2558C97.1406 46.2558 98.9244 44.4723 98.9244 42.28C98.9244 40.0878 97.1414 38.3042 94.9482 38.3042Z" fill="#F9C73A"/>
<path d="M108.024 46.2559C110.216 46.2559 112 44.4725 112 42.2802C112 40.0879 110.218 38.3042 108.024 38.3042C105.831 38.3042 104.048 40.0878 104.048 42.28C104.048 44.4723 105.832 46.2559 108.024 46.2559Z" fill="#F9C73A"/>
<path d="M81.9766 58.9956C84.1689 58.9956 85.9528 57.2126 85.9528 55.0199C85.9528 52.8271 84.1689 51.0437 81.9766 51.0437C79.7843 51.0437 78 52.8273 78 55.0199C78 57.2126 79.7843 58.9956 81.9766 58.9956Z" fill="#F9C73A"/>
<path d="M94.8443 58.9956C97.0363 58.9956 98.8202 57.2126 98.8202 55.0199C98.8202 52.8271 97.0377 51.0437 94.8443 51.0437C92.6513 51.0437 90.8685 52.8271 90.8685 55.0199C90.8685 57.2126 92.6521 58.9956 94.8443 58.9956Z" fill="#F9C73A"/>
<path d="M107.921 58.9956C110.114 58.9956 111.897 57.2126 111.897 55.0199C111.897 52.8271 110.114 51.0437 107.921 51.0437C105.729 51.0437 103.944 52.8271 103.944 55.0199C103.944 57.2126 105.728 58.9956 107.921 58.9956Z" fill="#F9C73A"/>
<path d="M82.0676 63.7441C79.8753 63.7441 78.091 65.5272 78.091 67.72C78.091 69.9119 79.8753 71.6957 82.0676 71.6957C84.2599 71.6957 86.0433 69.9128 86.0433 67.72C86.0433 65.5272 84.2599 63.7441 82.0676 63.7441Z" fill="#F9C73A"/>
<path d="M94.936 63.7441C92.7436 63.7441 90.9594 65.5272 90.9594 67.72C90.9594 69.9119 92.743 71.6957 94.936 71.6957C97.1279 71.6957 98.9117 69.9128 98.9117 67.72C98.9117 65.5272 97.1279 63.7441 94.936 63.7441Z" fill="#F9C73A"/>
<path d="M108.012 63.7441C105.82 63.7441 104.036 65.5272 104.036 67.72C104.036 69.9119 105.82 71.6957 108.012 71.6957C110.204 71.6957 111.987 69.9128 111.987 67.72C111.987 65.5272 110.203 63.7441 108.012 63.7441Z" fill="#F9C73A"/>
<path d="M43.0805 38.3042C40.8881 38.3042 39.1046 40.0878 39.1046 42.28C39.1046 44.4723 40.8873 46.2558 43.0805 46.2558C45.2736 46.2558 47.0563 44.4723 47.0563 42.28C47.0563 40.0878 45.2728 38.3042 43.0805 38.3042Z" fill="#F9C73A"/>
<path d="M55.9482 38.3042C53.7559 38.3042 51.9724 40.0878 51.9724 42.28C51.9724 44.4723 53.7559 46.2558 55.9482 46.2558C58.1406 46.2558 59.9244 44.4723 59.9244 42.28C59.9244 40.0878 58.1414 38.3042 55.9482 38.3042Z" fill="#F9C73A"/>
<path d="M69.0242 46.2559C71.2161 46.2559 73 44.4725 73 42.2802C73 40.0879 71.2176 38.3042 69.0242 38.3042C66.8308 38.3042 65.0483 40.0878 65.0483 42.28C65.0483 44.4723 66.8321 46.2559 69.0242 46.2559Z" fill="#F9C73A"/>
<path d="M42.9766 58.9956C45.1689 58.9956 46.9528 57.2126 46.9528 55.0199C46.9528 52.8271 45.1689 51.0437 42.9766 51.0437C40.7843 51.0437 39 52.8273 39 55.0199C39 57.2126 40.7843 58.9956 42.9766 58.9956Z" fill="#F9C73A"/>
<path d="M55.8443 58.9956C58.0363 58.9956 59.8202 57.2126 59.8202 55.0199C59.8202 52.8271 58.0377 51.0437 55.8443 51.0437C53.6513 51.0437 51.8685 52.8271 51.8685 55.0199C51.8685 57.2126 53.6521 58.9956 55.8443 58.9956Z" fill="#F9C73A"/>
<path d="M68.9214 58.9956C71.1142 58.9956 72.8972 57.2126 72.8972 55.0199C72.8972 52.8271 71.1142 51.0437 68.9214 51.0437C66.7286 51.0437 64.9441 52.8271 64.9441 55.0199C64.9441 57.2126 66.728 58.9956 68.9214 58.9956Z" fill="#F9C73A"/>
<path d="M43.0676 63.7441C40.8753 63.7441 39.091 65.5272 39.091 67.72C39.091 69.9119 40.8753 71.6957 43.0676 71.6957C45.2599 71.6957 47.0433 69.9128 47.0433 67.72C47.0433 65.5272 45.2599 63.7441 43.0676 63.7441Z" fill="#F9C73A"/>
<path d="M55.936 63.7441C53.7436 63.7441 51.9594 65.5272 51.9594 67.72C51.9594 69.9119 53.743 71.6957 55.936 71.6957C58.1279 71.6957 59.9117 69.9128 59.9117 67.72C59.9117 65.5272 58.1279 63.7441 55.936 63.7441Z" fill="#F9C73A"/>
<path d="M69.0116 63.7441C66.8197 63.7441 65.0357 65.5272 65.0357 67.72C65.0357 69.9119 66.8197 71.6957 69.0116 71.6957C71.2044 71.6957 72.9874 69.9128 72.9874 67.72C72.9874 65.5272 71.2035 63.7441 69.0116 63.7441Z" fill="#F9C73A"/>
<path d="M4.08049 38.3042C1.88807 38.3042 0.104645 40.0878 0.104645 42.28C0.104645 44.4723 1.88734 46.2558 4.08049 46.2558C6.27364 46.2558 8.05633 44.4723 8.05633 42.28C8.05633 40.0878 6.27278 38.3042 4.08049 38.3042Z" fill="#F9C73A"/>
<path d="M16.9482 38.3042C14.7559 38.3042 12.9724 40.0878 12.9724 42.28C12.9724 44.4723 14.7559 46.2558 16.9482 46.2558C19.1406 46.2558 20.9244 44.4723 20.9244 42.28C20.9244 40.0878 19.1414 38.3042 16.9482 38.3042Z" fill="#F9C73A"/>
<path d="M30.0242 46.2559C32.2161 46.2559 34 44.4725 34 42.2802C34 40.0879 32.2176 38.3042 30.0242 38.3042C27.8308 38.3042 26.0483 40.0878 26.0483 42.28C26.0483 44.4723 27.8321 46.2559 30.0242 46.2559Z" fill="#F9C73A"/>
<path d="M3.97658 58.9956C6.16887 58.9956 7.95279 57.2126 7.95279 55.0199C7.95279 52.8271 6.16887 51.0437 3.97658 51.0437C1.78429 51.0437 0 52.8273 0 55.0199C0 57.2126 1.78429 58.9956 3.97658 58.9956Z" fill="#F9C73A"/>
<path d="M16.8443 58.9956C19.0363 58.9956 20.8202 57.2126 20.8202 55.0199C20.8202 52.8271 19.0377 51.0437 16.8443 51.0437C14.6513 51.0437 12.8685 52.8271 12.8685 55.0199C12.8685 57.2126 14.6521 58.9956 16.8443 58.9956Z" fill="#F9C73A"/>
<path d="M29.9214 58.9956C32.1142 58.9956 33.8972 57.2126 33.8972 55.0199C33.8972 52.8271 32.1142 51.0437 29.9214 51.0437C27.7286 51.0437 25.9441 52.8271 25.9441 55.0199C25.9441 57.2126 27.728 58.9956 29.9214 58.9956Z" fill="#F9C73A"/>
<path d="M4.06758 63.7441C1.87529 63.7441 0.0910034 65.5272 0.0910034 67.72C0.0910034 69.9119 1.87529 71.6957 4.06758 71.6957C6.25987 71.6957 8.0433 69.9128 8.0433 67.72C8.0433 65.5272 6.25987 63.7441 4.06758 63.7441Z" fill="#F9C73A"/>
<path d="M16.936 63.7441C14.7436 63.7441 12.9594 65.5272 12.9594 67.72C12.9594 69.9119 14.743 71.6957 16.936 71.6957C19.1279 71.6957 20.9117 69.9128 20.9117 67.72C20.9117 65.5272 19.1279 63.7441 16.936 63.7441Z" fill="#F9C73A"/>
<path d="M30.0116 63.7441C27.8197 63.7441 26.0357 65.5272 26.0357 67.72C26.0357 69.9119 27.8197 71.6957 30.0116 71.6957C32.2044 71.6957 33.9874 69.9128 33.9874 67.72C33.9874 65.5272 32.2035 63.7441 30.0116 63.7441Z" fill="#F9C73A"/>
<path d="M121.08 0.304199C118.888 0.304199 117.105 2.08775 117.105 4.28004C117.105 6.47233 118.887 8.25576 121.08 8.25576C123.274 8.25576 125.056 6.47233 125.056 4.28004C125.056 2.08775 123.273 0.304199 121.08 0.304199Z" fill="#F9C73A"/>
<path d="M133.948 0.304199C131.756 0.304199 129.972 2.08775 129.972 4.28004C129.972 6.47233 131.756 8.25576 133.948 8.25576C136.141 8.25576 137.924 6.47233 137.924 4.28004C137.924 2.08775 136.141 0.304199 133.948 0.304199Z" fill="#F9C73A"/>
<path d="M147.024 8.25588C149.216 8.25588 151 6.47245 151 4.28016C151 2.08787 149.218 0.304199 147.024 0.304199C144.831 0.304199 143.048 2.08775 143.048 4.28004C143.048 6.47233 144.832 8.25588 147.024 8.25588Z" fill="#F9C73A"/>
<path d="M120.977 20.9956C123.169 20.9956 124.953 19.2126 124.953 17.0199C124.953 14.8271 123.169 13.0437 120.977 13.0437C118.784 13.0437 117 14.8273 117 17.0199C117 19.2126 118.784 20.9956 120.977 20.9956Z" fill="#F9C73A"/>
<path d="M133.844 20.9956C136.036 20.9956 137.82 19.2126 137.82 17.0199C137.82 14.8271 136.038 13.0437 133.844 13.0437C131.651 13.0437 129.868 14.8271 129.868 17.0199C129.868 19.2126 131.652 20.9956 133.844 20.9956Z" fill="#F9C73A"/>
<path d="M146.921 20.9956C149.114 20.9956 150.897 19.2126 150.897 17.0199C150.897 14.8271 149.114 13.0437 146.921 13.0437C144.729 13.0437 142.944 14.8271 142.944 17.0199C142.944 19.2126 144.728 20.9956 146.921 20.9956Z" fill="#F9C73A"/>
<path d="M121.068 25.7441C118.875 25.7441 117.091 27.5272 117.091 29.72C117.091 31.9119 118.875 33.6957 121.068 33.6957C123.26 33.6957 125.043 31.9128 125.043 29.72C125.043 27.5272 123.26 25.7441 121.068 25.7441Z" fill="#F9C73A"/>
<path d="M133.936 25.7441C131.744 25.7441 129.959 27.5272 129.959 29.72C129.959 31.9119 131.743 33.6957 133.936 33.6957C136.128 33.6957 137.912 31.9128 137.912 29.72C137.912 27.5272 136.128 25.7441 133.936 25.7441Z" fill="#F9C73A"/>
<path d="M147.012 25.7441C144.82 25.7441 143.036 27.5272 143.036 29.72C143.036 31.9119 144.82 33.6957 147.012 33.6957C149.204 33.6957 150.987 31.9128 150.987 29.72C150.987 27.5272 149.203 25.7441 147.012 25.7441Z" fill="#F9C73A"/>
<path d="M82.0805 0.304199C79.8881 0.304199 78.1046 2.08775 78.1046 4.28004C78.1046 6.47233 79.8873 8.25576 82.0805 8.25576C84.2736 8.25576 86.0563 6.47233 86.0563 4.28004C86.0563 2.08775 84.2728 0.304199 82.0805 0.304199Z" fill="#F9C73A"/>
<path d="M94.9482 0.304199C92.7559 0.304199 90.9724 2.08775 90.9724 4.28004C90.9724 6.47233 92.7559 8.25576 94.9482 8.25576C97.1406 8.25576 98.9244 6.47233 98.9244 4.28004C98.9244 2.08775 97.1414 0.304199 94.9482 0.304199Z" fill="#F9C73A"/>
<path d="M108.024 8.25588C110.216 8.25588 112 6.47245 112 4.28016C112 2.08787 110.218 0.304199 108.024 0.304199C105.831 0.304199 104.048 2.08775 104.048 4.28004C104.048 6.47233 105.832 8.25588 108.024 8.25588Z" fill="#F9C73A"/>
<path d="M81.9766 20.9956C84.1689 20.9956 85.9528 19.2126 85.9528 17.0199C85.9528 14.8271 84.1689 13.0437 81.9766 13.0437C79.7843 13.0437 78 14.8273 78 17.0199C78 19.2126 79.7843 20.9956 81.9766 20.9956Z" fill="#F9C73A"/>
<path d="M94.8443 20.9956C97.0363 20.9956 98.8202 19.2126 98.8202 17.0199C98.8202 14.8271 97.0377 13.0437 94.8443 13.0437C92.6513 13.0437 90.8685 14.8271 90.8685 17.0199C90.8685 19.2126 92.6521 20.9956 94.8443 20.9956Z" fill="#F9C73A"/>
<path d="M107.921 20.9956C110.114 20.9956 111.897 19.2126 111.897 17.0199C111.897 14.8271 110.114 13.0437 107.921 13.0437C105.729 13.0437 103.944 14.8271 103.944 17.0199C103.944 19.2126 105.728 20.9956 107.921 20.9956Z" fill="#F9C73A"/>
<path d="M82.0676 25.7441C79.8753 25.7441 78.091 27.5272 78.091 29.72C78.091 31.9119 79.8753 33.6957 82.0676 33.6957C84.2599 33.6957 86.0433 31.9128 86.0433 29.72C86.0433 27.5272 84.2599 25.7441 82.0676 25.7441Z" fill="#F9C73A"/>
<path d="M94.936 25.7441C92.7436 25.7441 90.9594 27.5272 90.9594 29.72C90.9594 31.9119 92.743 33.6957 94.936 33.6957C97.1279 33.6957 98.9117 31.9128 98.9117 29.72C98.9117 27.5272 97.1279 25.7441 94.936 25.7441Z" fill="#F9C73A"/>
<path d="M108.012 25.7441C105.82 25.7441 104.036 27.5272 104.036 29.72C104.036 31.9119 105.82 33.6957 108.012 33.6957C110.204 33.6957 111.987 31.9128 111.987 29.72C111.987 27.5272 110.203 25.7441 108.012 25.7441Z" fill="#F9C73A"/>
<path d="M43.0805 0.304199C40.8881 0.304199 39.1046 2.08775 39.1046 4.28004C39.1046 6.47233 40.8873 8.25576 43.0805 8.25576C45.2736 8.25576 47.0563 6.47233 47.0563 4.28004C47.0563 2.08775 45.2728 0.304199 43.0805 0.304199Z" fill="#F9C73A"/>
<path d="M55.9482 0.304199C53.7559 0.304199 51.9724 2.08775 51.9724 4.28004C51.9724 6.47233 53.7559 8.25576 55.9482 8.25576C58.1406 8.25576 59.9244 6.47233 59.9244 4.28004C59.9244 2.08775 58.1414 0.304199 55.9482 0.304199Z" fill="#F9C73A"/>
<path d="M69.0242 8.25588C71.2161 8.25588 73 6.47245 73 4.28016C73 2.08787 71.2176 0.304199 69.0242 0.304199C66.8308 0.304199 65.0483 2.08775 65.0483 4.28004C65.0483 6.47233 66.8321 8.25588 69.0242 8.25588Z" fill="#F9C73A"/>
<path d="M42.9766 20.9956C45.1689 20.9956 46.9528 19.2126 46.9528 17.0199C46.9528 14.8271 45.1689 13.0437 42.9766 13.0437C40.7843 13.0437 39 14.8273 39 17.0199C39 19.2126 40.7843 20.9956 42.9766 20.9956Z" fill="#F9C73A"/>
<path d="M55.8443 20.9956C58.0363 20.9956 59.8202 19.2126 59.8202 17.0199C59.8202 14.8271 58.0377 13.0437 55.8443 13.0437C53.6513 13.0437 51.8685 14.8271 51.8685 17.0199C51.8685 19.2126 53.6521 20.9956 55.8443 20.9956Z" fill="#F9C73A"/>
<path d="M68.9214 20.9956C71.1142 20.9956 72.8972 19.2126 72.8972 17.0199C72.8972 14.8271 71.1142 13.0437 68.9214 13.0437C66.7286 13.0437 64.9441 14.8271 64.9441 17.0199C64.9441 19.2126 66.728 20.9956 68.9214 20.9956Z" fill="#F9C73A"/>
<path d="M43.0676 25.7441C40.8753 25.7441 39.091 27.5272 39.091 29.72C39.091 31.9119 40.8753 33.6957 43.0676 33.6957C45.2599 33.6957 47.0433 31.9128 47.0433 29.72C47.0433 27.5272 45.2599 25.7441 43.0676 25.7441Z" fill="#F9C73A"/>
<path d="M55.936 25.7441C53.7436 25.7441 51.9594 27.5272 51.9594 29.72C51.9594 31.9119 53.743 33.6957 55.936 33.6957C58.1279 33.6957 59.9117 31.9128 59.9117 29.72C59.9117 27.5272 58.1279 25.7441 55.936 25.7441Z" fill="#F9C73A"/>
<path d="M69.0116 25.7441C66.8197 25.7441 65.0357 27.5272 65.0357 29.72C65.0357 31.9119 66.8197 33.6957 69.0116 33.6957C71.2044 33.6957 72.9874 31.9128 72.9874 29.72C72.9874 27.5272 71.2035 25.7441 69.0116 25.7441Z" fill="#F9C73A"/>
<path d="M4.08049 0.304199C1.88807 0.304199 0.104645 2.08775 0.104645 4.28004C0.104645 6.47233 1.88734 8.25576 4.08049 8.25576C6.27364 8.25576 8.05633 6.47233 8.05633 4.28004C8.05633 2.08775 6.27278 0.304199 4.08049 0.304199Z" fill="#F9C73A"/>
<path d="M16.9482 0.304199C14.7559 0.304199 12.9724 2.08775 12.9724 4.28004C12.9724 6.47233 14.7559 8.25576 16.9482 8.25576C19.1406 8.25576 20.9244 6.47233 20.9244 4.28004C20.9244 2.08775 19.1414 0.304199 16.9482 0.304199Z" fill="#F9C73A"/>
<path d="M30.0242 8.25588C32.2161 8.25588 34 6.47245 34 4.28016C34 2.08787 32.2176 0.304199 30.0242 0.304199C27.8308 0.304199 26.0483 2.08775 26.0483 4.28004C26.0483 6.47233 27.8321 8.25588 30.0242 8.25588Z" fill="#F9C73A"/>
<path d="M3.97658 20.9956C6.16887 20.9956 7.95279 19.2126 7.95279 17.0199C7.95279 14.8271 6.16887 13.0437 3.97658 13.0437C1.78429 13.0437 0 14.8273 0 17.0199C0 19.2126 1.78429 20.9956 3.97658 20.9956Z" fill="#F9C73A"/>
<path d="M16.8443 20.9956C19.0363 20.9956 20.8202 19.2126 20.8202 17.0199C20.8202 14.8271 19.0377 13.0437 16.8443 13.0437C14.6513 13.0437 12.8685 14.8271 12.8685 17.0199C12.8685 19.2126 14.6521 20.9956 16.8443 20.9956Z" fill="#F9C73A"/>
<path d="M29.9214 20.9956C32.1142 20.9956 33.8972 19.2126 33.8972 17.0199C33.8972 14.8271 32.1142 13.0437 29.9214 13.0437C27.7286 13.0437 25.9441 14.8271 25.9441 17.0199C25.9441 19.2126 27.728 20.9956 29.9214 20.9956Z" fill="#F9C73A"/>
<path d="M4.06758 25.7441C1.87529 25.7441 0.0910034 27.5272 0.0910034 29.72C0.0910034 31.9119 1.87529 33.6957 4.06758 33.6957C6.25987 33.6957 8.0433 31.9128 8.0433 29.72C8.0433 27.5272 6.25987 25.7441 4.06758 25.7441Z" fill="#F9C73A"/>
<path d="M16.936 25.7441C14.7436 25.7441 12.9594 27.5272 12.9594 29.72C12.9594 31.9119 14.743 33.6957 16.936 33.6957C19.1279 33.6957 20.9117 31.9128 20.9117 29.72C20.9117 27.5272 19.1279 25.7441 16.936 25.7441Z" fill="#F9C73A"/>
<path d="M30.0116 25.7441C27.8197 25.7441 26.0357 27.5272 26.0357 29.72C26.0357 31.9119 27.8197 33.6957 30.0116 33.6957C32.2044 33.6957 33.9874 31.9128 33.9874 29.72C33.9874 27.5272 32.2035 25.7441 30.0116 25.7441Z" fill="#F9C73A"/>
<path d="M121.08 38.3042C118.888 38.3042 117.105 40.0878 117.105 42.28C117.105 44.4723 118.887 46.2558 121.08 46.2558C123.274 46.2558 125.056 44.4723 125.056 42.28C125.056 40.0878 123.273 38.3042 121.08 38.3042Z" fill="#F9C73A"/>
<path d="M133.948 38.3042C131.756 38.3042 129.972 40.0878 129.972 42.28C129.972 44.4723 131.756 46.2558 133.948 46.2558C136.141 46.2558 137.924 44.4723 137.924 42.28C137.924 40.0878 136.141 38.3042 133.948 38.3042Z" fill="#F9C73A"/>
<path d="M147.024 46.2559C149.216 46.2559 151 44.4725 151 42.2802C151 40.0879 149.218 38.3042 147.024 38.3042C144.831 38.3042 143.048 40.0878 143.048 42.28C143.048 44.4723 144.832 46.2559 147.024 46.2559Z" fill="#F9C73A"/>
<path d="M120.977 58.9956C123.169 58.9956 124.953 57.2126 124.953 55.0199C124.953 52.8271 123.169 51.0437 120.977 51.0437C118.784 51.0437 117 52.8273 117 55.0199C117 57.2126 118.784 58.9956 120.977 58.9956Z" fill="#F9C73A"/>
<path d="M133.844 58.9956C136.036 58.9956 137.82 57.2126 137.82 55.0199C137.82 52.8271 136.038 51.0437 133.844 51.0437C131.651 51.0437 129.868 52.8271 129.868 55.0199C129.868 57.2126 131.652 58.9956 133.844 58.9956Z" fill="#F9C73A"/>
<path d="M146.921 58.9956C149.114 58.9956 150.897 57.2126 150.897 55.0199C150.897 52.8271 149.114 51.0437 146.921 51.0437C144.729 51.0437 142.944 52.8271 142.944 55.0199C142.944 57.2126 144.728 58.9956 146.921 58.9956Z" fill="#F9C73A"/>
<path d="M121.068 63.7441C118.875 63.7441 117.091 65.5272 117.091 67.72C117.091 69.9119 118.875 71.6957 121.068 71.6957C123.26 71.6957 125.043 69.9128 125.043 67.72C125.043 65.5272 123.26 63.7441 121.068 63.7441Z" fill="#F9C73A"/>
<path d="M133.936 63.7441C131.744 63.7441 129.959 65.5272 129.959 67.72C129.959 69.9119 131.743 71.6957 133.936 71.6957C136.128 71.6957 137.912 69.9128 137.912 67.72C137.912 65.5272 136.128 63.7441 133.936 63.7441Z" fill="#F9C73A"/>
<path d="M147.012 63.7441C144.82 63.7441 143.036 65.5272 143.036 67.72C143.036 69.9119 144.82 71.6957 147.012 71.6957C149.204 71.6957 150.987 69.9128 150.987 67.72C150.987 65.5272 149.203 63.7441 147.012 63.7441Z" fill="#F9C73A"/>
<path d="M82.0805 38.3042C79.8881 38.3042 78.1046 40.0878 78.1046 42.28C78.1046 44.4723 79.8873 46.2558 82.0805 46.2558C84.2736 46.2558 86.0563 44.4723 86.0563 42.28C86.0563 40.0878 84.2728 38.3042 82.0805 38.3042Z" fill="#F9C73A"/>
<path d="M94.9482 38.3042C92.7559 38.3042 90.9724 40.0878 90.9724 42.28C90.9724 44.4723 92.7559 46.2558 94.9482 46.2558C97.1406 46.2558 98.9244 44.4723 98.9244 42.28C98.9244 40.0878 97.1414 38.3042 94.9482 38.3042Z" fill="#F9C73A"/>
<path d="M108.024 46.2559C110.216 46.2559 112 44.4725 112 42.2802C112 40.0879 110.218 38.3042 108.024 38.3042C105.831 38.3042 104.048 40.0878 104.048 42.28C104.048 44.4723 105.832 46.2559 108.024 46.2559Z" fill="#F9C73A"/>
<path d="M81.9766 58.9956C84.1689 58.9956 85.9528 57.2126 85.9528 55.0199C85.9528 52.8271 84.1689 51.0437 81.9766 51.0437C79.7843 51.0437 78 52.8273 78 55.0199C78 57.2126 79.7843 58.9956 81.9766 58.9956Z" fill="#F9C73A"/>
<path d="M94.8443 58.9956C97.0363 58.9956 98.8202 57.2126 98.8202 55.0199C98.8202 52.8271 97.0377 51.0437 94.8443 51.0437C92.6513 51.0437 90.8685 52.8271 90.8685 55.0199C90.8685 57.2126 92.6521 58.9956 94.8443 58.9956Z" fill="#F9C73A"/>
<path d="M107.921 58.9956C110.114 58.9956 111.897 57.2126 111.897 55.0199C111.897 52.8271 110.114 51.0437 107.921 51.0437C105.729 51.0437 103.944 52.8271 103.944 55.0199C103.944 57.2126 105.728 58.9956 107.921 58.9956Z" fill="#F9C73A"/>
<path d="M82.0676 63.7441C79.8753 63.7441 78.091 65.5272 78.091 67.72C78.091 69.9119 79.8753 71.6957 82.0676 71.6957C84.2599 71.6957 86.0433 69.9128 86.0433 67.72C86.0433 65.5272 84.2599 63.7441 82.0676 63.7441Z" fill="#F9C73A"/>
<path d="M94.936 63.7441C92.7436 63.7441 90.9594 65.5272 90.9594 67.72C90.9594 69.9119 92.743 71.6957 94.936 71.6957C97.1279 71.6957 98.9117 69.9128 98.9117 67.72C98.9117 65.5272 97.1279 63.7441 94.936 63.7441Z" fill="#F9C73A"/>
<path d="M108.012 63.7441C105.82 63.7441 104.036 65.5272 104.036 67.72C104.036 69.9119 105.82 71.6957 108.012 71.6957C110.204 71.6957 111.987 69.9128 111.987 67.72C111.987 65.5272 110.203 63.7441 108.012 63.7441Z" fill="#F9C73A"/>
<path d="M43.0805 38.3042C40.8881 38.3042 39.1046 40.0878 39.1046 42.28C39.1046 44.4723 40.8873 46.2558 43.0805 46.2558C45.2736 46.2558 47.0563 44.4723 47.0563 42.28C47.0563 40.0878 45.2728 38.3042 43.0805 38.3042Z" fill="#F9C73A"/>
<path d="M55.9482 38.3042C53.7559 38.3042 51.9724 40.0878 51.9724 42.28C51.9724 44.4723 53.7559 46.2558 55.9482 46.2558C58.1406 46.2558 59.9244 44.4723 59.9244 42.28C59.9244 40.0878 58.1414 38.3042 55.9482 38.3042Z" fill="#F9C73A"/>
<path d="M69.0242 46.2559C71.2161 46.2559 73 44.4725 73 42.2802C73 40.0879 71.2176 38.3042 69.0242 38.3042C66.8308 38.3042 65.0483 40.0878 65.0483 42.28C65.0483 44.4723 66.8321 46.2559 69.0242 46.2559Z" fill="#F9C73A"/>
<path d="M42.9766 58.9956C45.1689 58.9956 46.9528 57.2126 46.9528 55.0199C46.9528 52.8271 45.1689 51.0437 42.9766 51.0437C40.7843 51.0437 39 52.8273 39 55.0199C39 57.2126 40.7843 58.9956 42.9766 58.9956Z" fill="#F9C73A"/>
<path d="M55.8443 58.9956C58.0363 58.9956 59.8202 57.2126 59.8202 55.0199C59.8202 52.8271 58.0377 51.0437 55.8443 51.0437C53.6513 51.0437 51.8685 52.8271 51.8685 55.0199C51.8685 57.2126 53.6521 58.9956 55.8443 58.9956Z" fill="#F9C73A"/>
<path d="M68.9214 58.9956C71.1142 58.9956 72.8972 57.2126 72.8972 55.0199C72.8972 52.8271 71.1142 51.0437 68.9214 51.0437C66.7286 51.0437 64.9441 52.8271 64.9441 55.0199C64.9441 57.2126 66.728 58.9956 68.9214 58.9956Z" fill="#F9C73A"/>
<path d="M43.0676 63.7441C40.8753 63.7441 39.091 65.5272 39.091 67.72C39.091 69.9119 40.8753 71.6957 43.0676 71.6957C45.2599 71.6957 47.0433 69.9128 47.0433 67.72C47.0433 65.5272 45.2599 63.7441 43.0676 63.7441Z" fill="#F9C73A"/>
<path d="M55.936 63.7441C53.7436 63.7441 51.9594 65.5272 51.9594 67.72C51.9594 69.9119 53.743 71.6957 55.936 71.6957C58.1279 71.6957 59.9117 69.9128 59.9117 67.72C59.9117 65.5272 58.1279 63.7441 55.936 63.7441Z" fill="#F9C73A"/>
<path d="M69.0116 63.7441C66.8197 63.7441 65.0357 65.5272 65.0357 67.72C65.0357 69.9119 66.8197 71.6957 69.0116 71.6957C71.2044 71.6957 72.9874 69.9128 72.9874 67.72C72.9874 65.5272 71.2035 63.7441 69.0116 63.7441Z" fill="#F9C73A"/>
<path d="M4.08049 38.3042C1.88807 38.3042 0.104645 40.0878 0.104645 42.28C0.104645 44.4723 1.88734 46.2558 4.08049 46.2558C6.27364 46.2558 8.05633 44.4723 8.05633 42.28C8.05633 40.0878 6.27278 38.3042 4.08049 38.3042Z" fill="#F9C73A"/>
<path d="M16.9482 38.3042C14.7559 38.3042 12.9724 40.0878 12.9724 42.28C12.9724 44.4723 14.7559 46.2558 16.9482 46.2558C19.1406 46.2558 20.9244 44.4723 20.9244 42.28C20.9244 40.0878 19.1414 38.3042 16.9482 38.3042Z" fill="#F9C73A"/>
<path d="M30.0242 46.2559C32.2161 46.2559 34 44.4725 34 42.2802C34 40.0879 32.2176 38.3042 30.0242 38.3042C27.8308 38.3042 26.0483 40.0878 26.0483 42.28C26.0483 44.4723 27.8321 46.2559 30.0242 46.2559Z" fill="#F9C73A"/>
<path d="M3.97658 58.9956C6.16887 58.9956 7.95279 57.2126 7.95279 55.0199C7.95279 52.8271 6.16887 51.0437 3.97658 51.0437C1.78429 51.0437 0 52.8273 0 55.0199C0 57.2126 1.78429 58.9956 3.97658 58.9956Z" fill="#F9C73A"/>
<path d="M16.8443 58.9956C19.0363 58.9956 20.8202 57.2126 20.8202 55.0199C20.8202 52.8271 19.0377 51.0437 16.8443 51.0437C14.6513 51.0437 12.8685 52.8271 12.8685 55.0199C12.8685 57.2126 14.6521 58.9956 16.8443 58.9956Z" fill="#F9C73A"/>
<path d="M29.9214 58.9956C32.1142 58.9956 33.8972 57.2126 33.8972 55.0199C33.8972 52.8271 32.1142 51.0437 29.9214 51.0437C27.7286 51.0437 25.9441 52.8271 25.9441 55.0199C25.9441 57.2126 27.728 58.9956 29.9214 58.9956Z" fill="#F9C73A"/>
<path d="M4.06758 63.7441C1.87529 63.7441 0.0910034 65.5272 0.0910034 67.72C0.0910034 69.9119 1.87529 71.6957 4.06758 71.6957C6.25987 71.6957 8.0433 69.9128 8.0433 67.72C8.0433 65.5272 6.25987 63.7441 4.06758 63.7441Z" fill="#F9C73A"/>
<path d="M16.936 63.7441C14.7436 63.7441 12.9594 65.5272 12.9594 67.72C12.9594 69.9119 14.743 71.6957 16.936 71.6957C19.1279 71.6957 20.9117 69.9128 20.9117 67.72C20.9117 65.5272 19.1279 63.7441 16.936 63.7441Z" fill="#F9C73A"/>
<path d="M30.0116 63.7441C27.8197 63.7441 26.0357 65.5272 26.0357 67.72C26.0357 69.9119 27.8197 71.6957 30.0116 71.6957C32.2044 71.6957 33.9874 69.9128 33.9874 67.72C33.9874 65.5272 32.2035 63.7441 30.0116 63.7441Z" fill="#F9C73A"/>
<path d="M121.08 76.3042C118.888 76.3042 117.105 78.0878 117.105 80.28C117.105 82.4723 118.887 84.2558 121.08 84.2558C123.274 84.2558 125.056 82.4723 125.056 80.28C125.056 78.0878 123.273 76.3042 121.08 76.3042Z" fill="#F9C73A"/>
<path d="M133.948 76.3042C131.756 76.3042 129.972 78.0878 129.972 80.28C129.972 82.4723 131.756 84.2558 133.948 84.2558C136.141 84.2558 137.924 82.4723 137.924 80.28C137.924 78.0878 136.141 76.3042 133.948 76.3042Z" fill="#F9C73A"/>
<path d="M147.024 84.2559C149.216 84.2559 151 82.4725 151 80.2802C151 78.0879 149.218 76.3042 147.024 76.3042C144.831 76.3042 143.048 78.0878 143.048 80.28C143.048 82.4723 144.832 84.2559 147.024 84.2559Z" fill="#F9C73A"/>
<path d="M120.977 96.9956C123.169 96.9956 124.953 95.2126 124.953 93.0199C124.953 90.8271 123.169 89.0437 120.977 89.0437C118.784 89.0437 117 90.8273 117 93.0199C117 95.2126 118.784 96.9956 120.977 96.9956Z" fill="#F9C73A"/>
<path d="M133.844 96.9956C136.036 96.9956 137.82 95.2126 137.82 93.0199C137.82 90.8271 136.038 89.0437 133.844 89.0437C131.651 89.0437 129.868 90.8271 129.868 93.0199C129.868 95.2126 131.652 96.9956 133.844 96.9956Z" fill="#F9C73A"/>
<path d="M146.921 96.9956C149.114 96.9956 150.897 95.2126 150.897 93.0199C150.897 90.8271 149.114 89.0437 146.921 89.0437C144.729 89.0437 142.944 90.8271 142.944 93.0199C142.944 95.2126 144.728 96.9956 146.921 96.9956Z" fill="#F9C73A"/>
<path d="M121.068 101.744C118.875 101.744 117.091 103.527 117.091 105.72C117.091 107.912 118.875 109.696 121.068 109.696C123.26 109.696 125.043 107.913 125.043 105.72C125.043 103.527 123.26 101.744 121.068 101.744Z" fill="#F9C73A"/>
<path d="M133.936 101.744C131.744 101.744 129.959 103.527 129.959 105.72C129.959 107.912 131.743 109.696 133.936 109.696C136.128 109.696 137.912 107.913 137.912 105.72C137.912 103.527 136.128 101.744 133.936 101.744Z" fill="#F9C73A"/>
<path d="M147.012 101.744C144.82 101.744 143.036 103.527 143.036 105.72C143.036 107.912 144.82 109.696 147.012 109.696C149.204 109.696 150.987 107.913 150.987 105.72C150.987 103.527 149.203 101.744 147.012 101.744Z" fill="#F9C73A"/>
<path d="M82.0805 76.3042C79.8881 76.3042 78.1046 78.0878 78.1046 80.28C78.1046 82.4723 79.8873 84.2558 82.0805 84.2558C84.2736 84.2558 86.0563 82.4723 86.0563 80.28C86.0563 78.0878 84.2728 76.3042 82.0805 76.3042Z" fill="#F9C73A"/>
<path d="M94.9482 76.3042C92.7559 76.3042 90.9724 78.0878 90.9724 80.28C90.9724 82.4723 92.7559 84.2558 94.9482 84.2558C97.1406 84.2558 98.9244 82.4723 98.9244 80.28C98.9244 78.0878 97.1414 76.3042 94.9482 76.3042Z" fill="#F9C73A"/>
<path d="M108.024 84.2559C110.216 84.2559 112 82.4725 112 80.2802C112 78.0879 110.218 76.3042 108.024 76.3042C105.831 76.3042 104.048 78.0878 104.048 80.28C104.048 82.4723 105.832 84.2559 108.024 84.2559Z" fill="#F9C73A"/>
<path d="M81.9766 96.9956C84.1689 96.9956 85.9528 95.2126 85.9528 93.0199C85.9528 90.8271 84.1689 89.0437 81.9766 89.0437C79.7843 89.0437 78 90.8273 78 93.0199C78 95.2126 79.7843 96.9956 81.9766 96.9956Z" fill="#F9C73A"/>
<path d="M94.8443 96.9956C97.0363 96.9956 98.8202 95.2126 98.8202 93.0199C98.8202 90.8271 97.0377 89.0437 94.8443 89.0437C92.6513 89.0437 90.8685 90.8271 90.8685 93.0199C90.8685 95.2126 92.6521 96.9956 94.8443 96.9956Z" fill="#F9C73A"/>
<path d="M107.921 96.9956C110.114 96.9956 111.897 95.2126 111.897 93.0199C111.897 90.8271 110.114 89.0437 107.921 89.0437C105.729 89.0437 103.944 90.8271 103.944 93.0199C103.944 95.2126 105.728 96.9956 107.921 96.9956Z" fill="#F9C73A"/>
<path d="M82.0676 101.744C79.8753 101.744 78.091 103.527 78.091 105.72C78.091 107.912 79.8753 109.696 82.0676 109.696C84.2599 109.696 86.0433 107.913 86.0433 105.72C86.0433 103.527 84.2599 101.744 82.0676 101.744Z" fill="#F9C73A"/>
<path d="M94.936 101.744C92.7436 101.744 90.9594 103.527 90.9594 105.72C90.9594 107.912 92.743 109.696 94.936 109.696C97.1279 109.696 98.9117 107.913 98.9117 105.72C98.9117 103.527 97.1279 101.744 94.936 101.744Z" fill="#F9C73A"/>
<path d="M108.012 101.744C105.82 101.744 104.036 103.527 104.036 105.72C104.036 107.912 105.82 109.696 108.012 109.696C110.204 109.696 111.987 107.913 111.987 105.72C111.987 103.527 110.203 101.744 108.012 101.744Z" fill="#F9C73A"/>
<path d="M43.0805 76.3042C40.8881 76.3042 39.1046 78.0878 39.1046 80.28C39.1046 82.4723 40.8873 84.2558 43.0805 84.2558C45.2736 84.2558 47.0563 82.4723 47.0563 80.28C47.0563 78.0878 45.2728 76.3042 43.0805 76.3042Z" fill="#F9C73A"/>
<path d="M55.9482 76.3042C53.7559 76.3042 51.9724 78.0878 51.9724 80.28C51.9724 82.4723 53.7559 84.2558 55.9482 84.2558C58.1406 84.2558 59.9244 82.4723 59.9244 80.28C59.9244 78.0878 58.1414 76.3042 55.9482 76.3042Z" fill="#F9C73A"/>
<path d="M69.0242 84.2559C71.2161 84.2559 73 82.4725 73 80.2802C73 78.0879 71.2176 76.3042 69.0242 76.3042C66.8308 76.3042 65.0483 78.0878 65.0483 80.28C65.0483 82.4723 66.8321 84.2559 69.0242 84.2559Z" fill="#F9C73A"/>
<path d="M42.9766 96.9956C45.1689 96.9956 46.9528 95.2126 46.9528 93.0199C46.9528 90.8271 45.1689 89.0437 42.9766 89.0437C40.7843 89.0437 39 90.8273 39 93.0199C39 95.2126 40.7843 96.9956 42.9766 96.9956Z" fill="#F9C73A"/>
<path d="M55.8443 96.9956C58.0363 96.9956 59.8202 95.2126 59.8202 93.0199C59.8202 90.8271 58.0377 89.0437 55.8443 89.0437C53.6513 89.0437 51.8685 90.8271 51.8685 93.0199C51.8685 95.2126 53.6521 96.9956 55.8443 96.9956Z" fill="#F9C73A"/>
<path d="M68.9214 96.9956C71.1142 96.9956 72.8972 95.2126 72.8972 93.0199C72.8972 90.8271 71.1142 89.0437 68.9214 89.0437C66.7286 89.0437 64.9441 90.8271 64.9441 93.0199C64.9441 95.2126 66.728 96.9956 68.9214 96.9956Z" fill="#F9C73A"/>
<path d="M43.0676 101.744C40.8753 101.744 39.091 103.527 39.091 105.72C39.091 107.912 40.8753 109.696 43.0676 109.696C45.2599 109.696 47.0433 107.913 47.0433 105.72C47.0433 103.527 45.2599 101.744 43.0676 101.744Z" fill="#F9C73A"/>
<path d="M55.936 101.744C53.7436 101.744 51.9594 103.527 51.9594 105.72C51.9594 107.912 53.743 109.696 55.936 109.696C58.1279 109.696 59.9117 107.913 59.9117 105.72C59.9117 103.527 58.1279 101.744 55.936 101.744Z" fill="#F9C73A"/>
<path d="M69.0116 101.744C66.8197 101.744 65.0357 103.527 65.0357 105.72C65.0357 107.912 66.8197 109.696 69.0116 109.696C71.2044 109.696 72.9874 107.913 72.9874 105.72C72.9874 103.527 71.2035 101.744 69.0116 101.744Z" fill="#F9C73A"/>
<path d="M4.08049 76.3042C1.88807 76.3042 0.104645 78.0878 0.104645 80.28C0.104645 82.4723 1.88734 84.2558 4.08049 84.2558C6.27364 84.2558 8.05633 82.4723 8.05633 80.28C8.05633 78.0878 6.27278 76.3042 4.08049 76.3042Z" fill="#F9C73A"/>
<path d="M16.9482 76.3042C14.7559 76.3042 12.9724 78.0878 12.9724 80.28C12.9724 82.4723 14.7559 84.2558 16.9482 84.2558C19.1406 84.2558 20.9244 82.4723 20.9244 80.28C20.9244 78.0878 19.1414 76.3042 16.9482 76.3042Z" fill="#F9C73A"/>
<path d="M30.0242 84.2559C32.2161 84.2559 34 82.4725 34 80.2802C34 78.0879 32.2176 76.3042 30.0242 76.3042C27.8308 76.3042 26.0483 78.0878 26.0483 80.28C26.0483 82.4723 27.8321 84.2559 30.0242 84.2559Z" fill="#F9C73A"/>
<path d="M3.97658 96.9956C6.16887 96.9956 7.95279 95.2126 7.95279 93.0199C7.95279 90.8271 6.16887 89.0437 3.97658 89.0437C1.78429 89.0437 0 90.8273 0 93.0199C0 95.2126 1.78429 96.9956 3.97658 96.9956Z" fill="#F9C73A"/>
<path d="M16.8443 96.9956C19.0363 96.9956 20.8202 95.2126 20.8202 93.0199C20.8202 90.8271 19.0377 89.0437 16.8443 89.0437C14.6513 89.0437 12.8685 90.8271 12.8685 93.0199C12.8685 95.2126 14.6521 96.9956 16.8443 96.9956Z" fill="#F9C73A"/>
<path d="M29.9214 96.9956C32.1142 96.9956 33.8972 95.2126 33.8972 93.0199C33.8972 90.8271 32.1142 89.0437 29.9214 89.0437C27.7286 89.0437 25.9441 90.8271 25.9441 93.0199C25.9441 95.2126 27.728 96.9956 29.9214 96.9956Z" fill="#F9C73A"/>
<path d="M4.06758 101.744C1.87529 101.744 0.0910034 103.527 0.0910034 105.72C0.0910034 107.912 1.87529 109.696 4.06758 109.696C6.25987 109.696 8.0433 107.913 8.0433 105.72C8.0433 103.527 6.25987 101.744 4.06758 101.744Z" fill="#F9C73A"/>
<path d="M16.936 101.744C14.7436 101.744 12.9594 103.527 12.9594 105.72C12.9594 107.912 14.743 109.696 16.936 109.696C19.1279 109.696 20.9117 107.913 20.9117 105.72C20.9117 103.527 19.1279 101.744 16.936 101.744Z" fill="#F9C73A"/>
<path d="M30.0116 101.744C27.8197 101.744 26.0357 103.527 26.0357 105.72C26.0357 107.912 27.8197 109.696 30.0116 109.696C32.2044 109.696 33.9874 107.913 33.9874 105.72C33.9874 103.527 32.2035 101.744 30.0116 101.744Z" fill="#F9C73A"/>
<path d="M121.08 114.304C118.888 114.304 117.105 116.088 117.105 118.28C117.105 120.472 118.887 122.256 121.08 122.256C123.274 122.256 125.056 120.472 125.056 118.28C125.056 116.088 123.273 114.304 121.08 114.304Z" fill="#F9C73A"/>
<path d="M133.948 114.304C131.756 114.304 129.972 116.088 129.972 118.28C129.972 120.472 131.756 122.256 133.948 122.256C136.141 122.256 137.924 120.472 137.924 118.28C137.924 116.088 136.141 114.304 133.948 114.304Z" fill="#F9C73A"/>
<path d="M147.024 122.256C149.216 122.256 151 120.472 151 118.28C151 116.088 149.218 114.304 147.024 114.304C144.831 114.304 143.048 116.088 143.048 118.28C143.048 120.472 144.832 122.256 147.024 122.256Z" fill="#F9C73A"/>
<path d="M120.977 134.996C123.169 134.996 124.953 133.213 124.953 131.02C124.953 128.827 123.169 127.044 120.977 127.044C118.784 127.044 117 128.827 117 131.02C117 133.213 118.784 134.996 120.977 134.996Z" fill="#F9C73A"/>
<path d="M133.844 134.996C136.036 134.996 137.82 133.213 137.82 131.02C137.82 128.827 136.038 127.044 133.844 127.044C131.651 127.044 129.868 128.827 129.868 131.02C129.868 133.213 131.652 134.996 133.844 134.996Z" fill="#F9C73A"/>
<path d="M146.921 134.996C149.114 134.996 150.897 133.213 150.897 131.02C150.897 128.827 149.114 127.044 146.921 127.044C144.729 127.044 142.944 128.827 142.944 131.02C142.944 133.213 144.728 134.996 146.921 134.996Z" fill="#F9C73A"/>
<path d="M121.068 139.744C118.875 139.744 117.091 141.527 117.091 143.72C117.091 145.912 118.875 147.696 121.068 147.696C123.26 147.696 125.043 145.913 125.043 143.72C125.043 141.527 123.26 139.744 121.068 139.744Z" fill="#F9C73A"/>
<path d="M133.936 139.744C131.744 139.744 129.959 141.527 129.959 143.72C129.959 145.912 131.743 147.696 133.936 147.696C136.128 147.696 137.912 145.913 137.912 143.72C137.912 141.527 136.128 139.744 133.936 139.744Z" fill="#F9C73A"/>
<path d="M147.012 139.744C144.82 139.744 143.036 141.527 143.036 143.72C143.036 145.912 144.82 147.696 147.012 147.696C149.204 147.696 150.987 145.913 150.987 143.72C150.987 141.527 149.203 139.744 147.012 139.744Z" fill="#F9C73A"/>
<path d="M82.0805 114.304C79.8881 114.304 78.1046 116.088 78.1046 118.28C78.1046 120.472 79.8873 122.256 82.0805 122.256C84.2736 122.256 86.0563 120.472 86.0563 118.28C86.0563 116.088 84.2728 114.304 82.0805 114.304Z" fill="#F9C73A"/>
<path d="M94.9482 114.304C92.7559 114.304 90.9724 116.088 90.9724 118.28C90.9724 120.472 92.7559 122.256 94.9482 122.256C97.1406 122.256 98.9244 120.472 98.9244 118.28C98.9244 116.088 97.1414 114.304 94.9482 114.304Z" fill="#F9C73A"/>
<path d="M108.024 122.256C110.216 122.256 112 120.472 112 118.28C112 116.088 110.218 114.304 108.024 114.304C105.831 114.304 104.048 116.088 104.048 118.28C104.048 120.472 105.832 122.256 108.024 122.256Z" fill="#F9C73A"/>
<path d="M81.9766 134.996C84.1689 134.996 85.9528 133.213 85.9528 131.02C85.9528 128.827 84.1689 127.044 81.9766 127.044C79.7843 127.044 78 128.827 78 131.02C78 133.213 79.7843 134.996 81.9766 134.996Z" fill="#F9C73A"/>
<path d="M94.8443 134.996C97.0363 134.996 98.8202 133.213 98.8202 131.02C98.8202 128.827 97.0377 127.044 94.8443 127.044C92.6513 127.044 90.8685 128.827 90.8685 131.02C90.8685 133.213 92.6521 134.996 94.8443 134.996Z" fill="#F9C73A"/>
<path d="M107.921 134.996C110.114 134.996 111.897 133.213 111.897 131.02C111.897 128.827 110.114 127.044 107.921 127.044C105.729 127.044 103.944 128.827 103.944 131.02C103.944 133.213 105.728 134.996 107.921 134.996Z" fill="#F9C73A"/>
<path d="M82.0676 139.744C79.8753 139.744 78.091 141.527 78.091 143.72C78.091 145.912 79.8753 147.696 82.0676 147.696C84.2599 147.696 86.0433 145.913 86.0433 143.72C86.0433 141.527 84.2599 139.744 82.0676 139.744Z" fill="#F9C73A"/>
<path d="M94.936 139.744C92.7436 139.744 90.9594 141.527 90.9594 143.72C90.9594 145.912 92.743 147.696 94.936 147.696C97.1279 147.696 98.9117 145.913 98.9117 143.72C98.9117 141.527 97.1279 139.744 94.936 139.744Z" fill="#F9C73A"/>
<path d="M108.012 139.744C105.82 139.744 104.036 141.527 104.036 143.72C104.036 145.912 105.82 147.696 108.012 147.696C110.204 147.696 111.987 145.913 111.987 143.72C111.987 141.527 110.203 139.744 108.012 139.744Z" fill="#F9C73A"/>
<path d="M43.0805 114.304C40.8881 114.304 39.1046 116.088 39.1046 118.28C39.1046 120.472 40.8873 122.256 43.0805 122.256C45.2736 122.256 47.0563 120.472 47.0563 118.28C47.0563 116.088 45.2728 114.304 43.0805 114.304Z" fill="#F9C73A"/>
<path d="M55.9482 114.304C53.7559 114.304 51.9724 116.088 51.9724 118.28C51.9724 120.472 53.7559 122.256 55.9482 122.256C58.1406 122.256 59.9244 120.472 59.9244 118.28C59.9244 116.088 58.1414 114.304 55.9482 114.304Z" fill="#F9C73A"/>
<path d="M69.0242 122.256C71.2161 122.256 73 120.472 73 118.28C73 116.088 71.2176 114.304 69.0242 114.304C66.8308 114.304 65.0483 116.088 65.0483 118.28C65.0483 120.472 66.8321 122.256 69.0242 122.256Z" fill="#F9C73A"/>
<path d="M42.9766 134.996C45.1689 134.996 46.9528 133.213 46.9528 131.02C46.9528 128.827 45.1689 127.044 42.9766 127.044C40.7843 127.044 39 128.827 39 131.02C39 133.213 40.7843 134.996 42.9766 134.996Z" fill="#F9C73A"/>
<path d="M55.8443 134.996C58.0363 134.996 59.8202 133.213 59.8202 131.02C59.8202 128.827 58.0377 127.044 55.8443 127.044C53.6513 127.044 51.8685 128.827 51.8685 131.02C51.8685 133.213 53.6521 134.996 55.8443 134.996Z" fill="#F9C73A"/>
<path d="M68.9214 134.996C71.1142 134.996 72.8972 133.213 72.8972 131.02C72.8972 128.827 71.1142 127.044 68.9214 127.044C66.7286 127.044 64.9441 128.827 64.9441 131.02C64.9441 133.213 66.728 134.996 68.9214 134.996Z" fill="#F9C73A"/>
<path d="M43.0676 139.744C40.8753 139.744 39.091 141.527 39.091 143.72C39.091 145.912 40.8753 147.696 43.0676 147.696C45.2599 147.696 47.0433 145.913 47.0433 143.72C47.0433 141.527 45.2599 139.744 43.0676 139.744Z" fill="#F9C73A"/>
<path d="M55.936 139.744C53.7436 139.744 51.9594 141.527 51.9594 143.72C51.9594 145.912 53.743 147.696 55.936 147.696C58.1279 147.696 59.9117 145.913 59.9117 143.72C59.9117 141.527 58.1279 139.744 55.936 139.744Z" fill="#F9C73A"/>
<path d="M69.0116 139.744C66.8197 139.744 65.0357 141.527 65.0357 143.72C65.0357 145.912 66.8197 147.696 69.0116 147.696C71.2044 147.696 72.9874 145.913 72.9874 143.72C72.9874 141.527 71.2035 139.744 69.0116 139.744Z" fill="#F9C73A"/>
<path d="M4.08049 114.304C1.88807 114.304 0.104645 116.088 0.104645 118.28C0.104645 120.472 1.88734 122.256 4.08049 122.256C6.27364 122.256 8.05633 120.472 8.05633 118.28C8.05633 116.088 6.27278 114.304 4.08049 114.304Z" fill="#F9C73A"/>
<path d="M16.9482 114.304C14.7559 114.304 12.9724 116.088 12.9724 118.28C12.9724 120.472 14.7559 122.256 16.9482 122.256C19.1406 122.256 20.9244 120.472 20.9244 118.28C20.9244 116.088 19.1414 114.304 16.9482 114.304Z" fill="#F9C73A"/>
<path d="M30.0242 122.256C32.2161 122.256 34 120.472 34 118.28C34 116.088 32.2176 114.304 30.0242 114.304C27.8308 114.304 26.0483 116.088 26.0483 118.28C26.0483 120.472 27.8321 122.256 30.0242 122.256Z" fill="#F9C73A"/>
<path d="M3.97658 134.996C6.16887 134.996 7.95279 133.213 7.95279 131.02C7.95279 128.827 6.16887 127.044 3.97658 127.044C1.78429 127.044 0 128.827 0 131.02C0 133.213 1.78429 134.996 3.97658 134.996Z" fill="#F9C73A"/>
<path d="M16.8443 134.996C19.0363 134.996 20.8202 133.213 20.8202 131.02C20.8202 128.827 19.0377 127.044 16.8443 127.044C14.6513 127.044 12.8685 128.827 12.8685 131.02C12.8685 133.213 14.6521 134.996 16.8443 134.996Z" fill="#F9C73A"/>
<path d="M29.9214 134.996C32.1142 134.996 33.8972 133.213 33.8972 131.02C33.8972 128.827 32.1142 127.044 29.9214 127.044C27.7286 127.044 25.9441 128.827 25.9441 131.02C25.9441 133.213 27.728 134.996 29.9214 134.996Z" fill="#F9C73A"/>
<path d="M4.06758 139.744C1.87529 139.744 0.0910034 141.527 0.0910034 143.72C0.0910034 145.912 1.87529 147.696 4.06758 147.696C6.25987 147.696 8.0433 145.913 8.0433 143.72C8.0433 141.527 6.25987 139.744 4.06758 139.744Z" fill="#F9C73A"/>
<path d="M16.936 139.744C14.7436 139.744 12.9594 141.527 12.9594 143.72C12.9594 145.912 14.743 147.696 16.936 147.696C19.1279 147.696 20.9117 145.913 20.9117 143.72C20.9117 141.527 19.1279 139.744 16.936 139.744Z" fill="#F9C73A"/>
<path d="M30.0116 139.744C27.8197 139.744 26.0357 141.527 26.0357 143.72C26.0357 145.912 27.8197 147.696 30.0116 147.696C32.2044 147.696 33.9874 145.913 33.9874 143.72C33.9874 141.527 32.2035 139.744 30.0116 139.744Z" fill="#F9C73A"/>
<path d="M121.08 76.3042C118.888 76.3042 117.105 78.0878 117.105 80.28C117.105 82.4723 118.887 84.2558 121.08 84.2558C123.274 84.2558 125.056 82.4723 125.056 80.28C125.056 78.0878 123.273 76.3042 121.08 76.3042Z" fill="#F9C73A"/>
<path d="M133.948 76.3042C131.756 76.3042 129.972 78.0878 129.972 80.28C129.972 82.4723 131.756 84.2558 133.948 84.2558C136.141 84.2558 137.924 82.4723 137.924 80.28C137.924 78.0878 136.141 76.3042 133.948 76.3042Z" fill="#F9C73A"/>
<path d="M147.024 84.2559C149.216 84.2559 151 82.4725 151 80.2802C151 78.0879 149.218 76.3042 147.024 76.3042C144.831 76.3042 143.048 78.0878 143.048 80.28C143.048 82.4723 144.832 84.2559 147.024 84.2559Z" fill="#F9C73A"/>
<path d="M120.977 96.9956C123.169 96.9956 124.953 95.2126 124.953 93.0199C124.953 90.8271 123.169 89.0437 120.977 89.0437C118.784 89.0437 117 90.8273 117 93.0199C117 95.2126 118.784 96.9956 120.977 96.9956Z" fill="#F9C73A"/>
<path d="M133.844 96.9956C136.036 96.9956 137.82 95.2126 137.82 93.0199C137.82 90.8271 136.038 89.0437 133.844 89.0437C131.651 89.0437 129.868 90.8271 129.868 93.0199C129.868 95.2126 131.652 96.9956 133.844 96.9956Z" fill="#F9C73A"/>
<path d="M146.921 96.9956C149.114 96.9956 150.897 95.2126 150.897 93.0199C150.897 90.8271 149.114 89.0437 146.921 89.0437C144.729 89.0437 142.944 90.8271 142.944 93.0199C142.944 95.2126 144.728 96.9956 146.921 96.9956Z" fill="#F9C73A"/>
<path d="M121.068 101.744C118.875 101.744 117.091 103.527 117.091 105.72C117.091 107.912 118.875 109.696 121.068 109.696C123.26 109.696 125.043 107.913 125.043 105.72C125.043 103.527 123.26 101.744 121.068 101.744Z" fill="#F9C73A"/>
<path d="M133.936 101.744C131.744 101.744 129.959 103.527 129.959 105.72C129.959 107.912 131.743 109.696 133.936 109.696C136.128 109.696 137.912 107.913 137.912 105.72C137.912 103.527 136.128 101.744 133.936 101.744Z" fill="#F9C73A"/>
<path d="M147.012 101.744C144.82 101.744 143.036 103.527 143.036 105.72C143.036 107.912 144.82 109.696 147.012 109.696C149.204 109.696 150.987 107.913 150.987 105.72C150.987 103.527 149.203 101.744 147.012 101.744Z" fill="#F9C73A"/>
<path d="M82.0805 76.3042C79.8881 76.3042 78.1046 78.0878 78.1046 80.28C78.1046 82.4723 79.8873 84.2558 82.0805 84.2558C84.2736 84.2558 86.0563 82.4723 86.0563 80.28C86.0563 78.0878 84.2728 76.3042 82.0805 76.3042Z" fill="#F9C73A"/>
<path d="M94.9482 76.3042C92.7559 76.3042 90.9724 78.0878 90.9724 80.28C90.9724 82.4723 92.7559 84.2558 94.9482 84.2558C97.1406 84.2558 98.9244 82.4723 98.9244 80.28C98.9244 78.0878 97.1414 76.3042 94.9482 76.3042Z" fill="#F9C73A"/>
<path d="M108.024 84.2559C110.216 84.2559 112 82.4725 112 80.2802C112 78.0879 110.218 76.3042 108.024 76.3042C105.831 76.3042 104.048 78.0878 104.048 80.28C104.048 82.4723 105.832 84.2559 108.024 84.2559Z" fill="#F9C73A"/>
<path d="M81.9766 96.9956C84.1689 96.9956 85.9528 95.2126 85.9528 93.0199C85.9528 90.8271 84.1689 89.0437 81.9766 89.0437C79.7843 89.0437 78 90.8273 78 93.0199C78 95.2126 79.7843 96.9956 81.9766 96.9956Z" fill="#F9C73A"/>
<path d="M94.8443 96.9956C97.0363 96.9956 98.8202 95.2126 98.8202 93.0199C98.8202 90.8271 97.0377 89.0437 94.8443 89.0437C92.6513 89.0437 90.8685 90.8271 90.8685 93.0199C90.8685 95.2126 92.6521 96.9956 94.8443 96.9956Z" fill="#F9C73A"/>
<path d="M107.921 96.9956C110.114 96.9956 111.897 95.2126 111.897 93.0199C111.897 90.8271 110.114 89.0437 107.921 89.0437C105.729 89.0437 103.944 90.8271 103.944 93.0199C103.944 95.2126 105.728 96.9956 107.921 96.9956Z" fill="#F9C73A"/>
<path d="M82.0676 101.744C79.8753 101.744 78.091 103.527 78.091 105.72C78.091 107.912 79.8753 109.696 82.0676 109.696C84.2599 109.696 86.0433 107.913 86.0433 105.72C86.0433 103.527 84.2599 101.744 82.0676 101.744Z" fill="#F9C73A"/>
<path d="M94.936 101.744C92.7436 101.744 90.9594 103.527 90.9594 105.72C90.9594 107.912 92.743 109.696 94.936 109.696C97.1279 109.696 98.9117 107.913 98.9117 105.72C98.9117 103.527 97.1279 101.744 94.936 101.744Z" fill="#F9C73A"/>
<path d="M108.012 101.744C105.82 101.744 104.036 103.527 104.036 105.72C104.036 107.912 105.82 109.696 108.012 109.696C110.204 109.696 111.987 107.913 111.987 105.72C111.987 103.527 110.203 101.744 108.012 101.744Z" fill="#F9C73A"/>
<path d="M43.0805 76.3042C40.8881 76.3042 39.1046 78.0878 39.1046 80.28C39.1046 82.4723 40.8873 84.2558 43.0805 84.2558C45.2736 84.2558 47.0563 82.4723 47.0563 80.28C47.0563 78.0878 45.2728 76.3042 43.0805 76.3042Z" fill="#F9C73A"/>
<path d="M55.9482 76.3042C53.7559 76.3042 51.9724 78.0878 51.9724 80.28C51.9724 82.4723 53.7559 84.2558 55.9482 84.2558C58.1406 84.2558 59.9244 82.4723 59.9244 80.28C59.9244 78.0878 58.1414 76.3042 55.9482 76.3042Z" fill="#F9C73A"/>
<path d="M69.0242 84.2559C71.2161 84.2559 73 82.4725 73 80.2802C73 78.0879 71.2176 76.3042 69.0242 76.3042C66.8308 76.3042 65.0483 78.0878 65.0483 80.28C65.0483 82.4723 66.8321 84.2559 69.0242 84.2559Z" fill="#F9C73A"/>
<path d="M42.9766 96.9956C45.1689 96.9956 46.9528 95.2126 46.9528 93.0199C46.9528 90.8271 45.1689 89.0437 42.9766 89.0437C40.7843 89.0437 39 90.8273 39 93.0199C39 95.2126 40.7843 96.9956 42.9766 96.9956Z" fill="#F9C73A"/>
<path d="M55.8443 96.9956C58.0363 96.9956 59.8202 95.2126 59.8202 93.0199C59.8202 90.8271 58.0377 89.0437 55.8443 89.0437C53.6513 89.0437 51.8685 90.8271 51.8685 93.0199C51.8685 95.2126 53.6521 96.9956 55.8443 96.9956Z" fill="#F9C73A"/>
<path d="M68.9214 96.9956C71.1142 96.9956 72.8972 95.2126 72.8972 93.0199C72.8972 90.8271 71.1142 89.0437 68.9214 89.0437C66.7286 89.0437 64.9441 90.8271 64.9441 93.0199C64.9441 95.2126 66.728 96.9956 68.9214 96.9956Z" fill="#F9C73A"/>
<path d="M43.0676 101.744C40.8753 101.744 39.091 103.527 39.091 105.72C39.091 107.912 40.8753 109.696 43.0676 109.696C45.2599 109.696 47.0433 107.913 47.0433 105.72C47.0433 103.527 45.2599 101.744 43.0676 101.744Z" fill="#F9C73A"/>
<path d="M55.936 101.744C53.7436 101.744 51.9594 103.527 51.9594 105.72C51.9594 107.912 53.743 109.696 55.936 109.696C58.1279 109.696 59.9117 107.913 59.9117 105.72C59.9117 103.527 58.1279 101.744 55.936 101.744Z" fill="#F9C73A"/>
<path d="M69.0116 101.744C66.8197 101.744 65.0357 103.527 65.0357 105.72C65.0357 107.912 66.8197 109.696 69.0116 109.696C71.2044 109.696 72.9874 107.913 72.9874 105.72C72.9874 103.527 71.2035 101.744 69.0116 101.744Z" fill="#F9C73A"/>
<path d="M4.08049 76.3042C1.88807 76.3042 0.104645 78.0878 0.104645 80.28C0.104645 82.4723 1.88734 84.2558 4.08049 84.2558C6.27364 84.2558 8.05633 82.4723 8.05633 80.28C8.05633 78.0878 6.27278 76.3042 4.08049 76.3042Z" fill="#F9C73A"/>
<path d="M16.9482 76.3042C14.7559 76.3042 12.9724 78.0878 12.9724 80.28C12.9724 82.4723 14.7559 84.2558 16.9482 84.2558C19.1406 84.2558 20.9244 82.4723 20.9244 80.28C20.9244 78.0878 19.1414 76.3042 16.9482 76.3042Z" fill="#F9C73A"/>
<path d="M30.0242 84.2559C32.2161 84.2559 34 82.4725 34 80.2802C34 78.0879 32.2176 76.3042 30.0242 76.3042C27.8308 76.3042 26.0483 78.0878 26.0483 80.28C26.0483 82.4723 27.8321 84.2559 30.0242 84.2559Z" fill="#F9C73A"/>
<path d="M3.97658 96.9956C6.16887 96.9956 7.95279 95.2126 7.95279 93.0199C7.95279 90.8271 6.16887 89.0437 3.97658 89.0437C1.78429 89.0437 0 90.8273 0 93.0199C0 95.2126 1.78429 96.9956 3.97658 96.9956Z" fill="#F9C73A"/>
<path d="M16.8443 96.9956C19.0363 96.9956 20.8202 95.2126 20.8202 93.0199C20.8202 90.8271 19.0377 89.0437 16.8443 89.0437C14.6513 89.0437 12.8685 90.8271 12.8685 93.0199C12.8685 95.2126 14.6521 96.9956 16.8443 96.9956Z" fill="#F9C73A"/>
<path d="M29.9214 96.9956C32.1142 96.9956 33.8972 95.2126 33.8972 93.0199C33.8972 90.8271 32.1142 89.0437 29.9214 89.0437C27.7286 89.0437 25.9441 90.8271 25.9441 93.0199C25.9441 95.2126 27.728 96.9956 29.9214 96.9956Z" fill="#F9C73A"/>
<path d="M4.06758 101.744C1.87529 101.744 0.0910034 103.527 0.0910034 105.72C0.0910034 107.912 1.87529 109.696 4.06758 109.696C6.25987 109.696 8.0433 107.913 8.0433 105.72C8.0433 103.527 6.25987 101.744 4.06758 101.744Z" fill="#F9C73A"/>
<path d="M16.936 101.744C14.7436 101.744 12.9594 103.527 12.9594 105.72C12.9594 107.912 14.743 109.696 16.936 109.696C19.1279 109.696 20.9117 107.913 20.9117 105.72C20.9117 103.527 19.1279 101.744 16.936 101.744Z" fill="#F9C73A"/>
<path d="M30.0116 101.744C27.8197 101.744 26.0357 103.527 26.0357 105.72C26.0357 107.912 27.8197 109.696 30.0116 109.696C32.2044 109.696 33.9874 107.913 33.9874 105.72C33.9874 103.527 32.2035 101.744 30.0116 101.744Z" fill="#F9C73A"/>
<path d="M121.08 114.304C118.888 114.304 117.105 116.088 117.105 118.28C117.105 120.472 118.887 122.256 121.08 122.256C123.274 122.256 125.056 120.472 125.056 118.28C125.056 116.088 123.273 114.304 121.08 114.304Z" fill="#F9C73A"/>
<path d="M133.948 114.304C131.756 114.304 129.972 116.088 129.972 118.28C129.972 120.472 131.756 122.256 133.948 122.256C136.141 122.256 137.924 120.472 137.924 118.28C137.924 116.088 136.141 114.304 133.948 114.304Z" fill="#F9C73A"/>
<path d="M147.024 122.256C149.216 122.256 151 120.472 151 118.28C151 116.088 149.218 114.304 147.024 114.304C144.831 114.304 143.048 116.088 143.048 118.28C143.048 120.472 144.832 122.256 147.024 122.256Z" fill="#F9C73A"/>
<path d="M120.977 134.996C123.169 134.996 124.953 133.213 124.953 131.02C124.953 128.827 123.169 127.044 120.977 127.044C118.784 127.044 117 128.827 117 131.02C117 133.213 118.784 134.996 120.977 134.996Z" fill="#F9C73A"/>
<path d="M133.844 134.996C136.036 134.996 137.82 133.213 137.82 131.02C137.82 128.827 136.038 127.044 133.844 127.044C131.651 127.044 129.868 128.827 129.868 131.02C129.868 133.213 131.652 134.996 133.844 134.996Z" fill="#F9C73A"/>
<path d="M146.921 134.996C149.114 134.996 150.897 133.213 150.897 131.02C150.897 128.827 149.114 127.044 146.921 127.044C144.729 127.044 142.944 128.827 142.944 131.02C142.944 133.213 144.728 134.996 146.921 134.996Z" fill="#F9C73A"/>
<path d="M121.068 139.744C118.875 139.744 117.091 141.527 117.091 143.72C117.091 145.912 118.875 147.696 121.068 147.696C123.26 147.696 125.043 145.913 125.043 143.72C125.043 141.527 123.26 139.744 121.068 139.744Z" fill="#F9C73A"/>
<path d="M133.936 139.744C131.744 139.744 129.959 141.527 129.959 143.72C129.959 145.912 131.743 147.696 133.936 147.696C136.128 147.696 137.912 145.913 137.912 143.72C137.912 141.527 136.128 139.744 133.936 139.744Z" fill="#F9C73A"/>
<path d="M147.012 139.744C144.82 139.744 143.036 141.527 143.036 143.72C143.036 145.912 144.82 147.696 147.012 147.696C149.204 147.696 150.987 145.913 150.987 143.72C150.987 141.527 149.203 139.744 147.012 139.744Z" fill="#F9C73A"/>
<path d="M82.0805 114.304C79.8881 114.304 78.1046 116.088 78.1046 118.28C78.1046 120.472 79.8873 122.256 82.0805 122.256C84.2736 122.256 86.0563 120.472 86.0563 118.28C86.0563 116.088 84.2728 114.304 82.0805 114.304Z" fill="#F9C73A"/>
<path d="M94.9482 114.304C92.7559 114.304 90.9724 116.088 90.9724 118.28C90.9724 120.472 92.7559 122.256 94.9482 122.256C97.1406 122.256 98.9244 120.472 98.9244 118.28C98.9244 116.088 97.1414 114.304 94.9482 114.304Z" fill="#F9C73A"/>
<path d="M108.024 122.256C110.216 122.256 112 120.472 112 118.28C112 116.088 110.218 114.304 108.024 114.304C105.831 114.304 104.048 116.088 104.048 118.28C104.048 120.472 105.832 122.256 108.024 122.256Z" fill="#F9C73A"/>
<path d="M81.9766 134.996C84.1689 134.996 85.9528 133.213 85.9528 131.02C85.9528 128.827 84.1689 127.044 81.9766 127.044C79.7843 127.044 78 128.827 78 131.02C78 133.213 79.7843 134.996 81.9766 134.996Z" fill="#F9C73A"/>
<path d="M94.8443 134.996C97.0363 134.996 98.8202 133.213 98.8202 131.02C98.8202 128.827 97.0377 127.044 94.8443 127.044C92.6513 127.044 90.8685 128.827 90.8685 131.02C90.8685 133.213 92.6521 134.996 94.8443 134.996Z" fill="#F9C73A"/>
<path d="M107.921 134.996C110.114 134.996 111.897 133.213 111.897 131.02C111.897 128.827 110.114 127.044 107.921 127.044C105.729 127.044 103.944 128.827 103.944 131.02C103.944 133.213 105.728 134.996 107.921 134.996Z" fill="#F9C73A"/>
<path d="M82.0676 139.744C79.8753 139.744 78.091 141.527 78.091 143.72C78.091 145.912 79.8753 147.696 82.0676 147.696C84.2599 147.696 86.0433 145.913 86.0433 143.72C86.0433 141.527 84.2599 139.744 82.0676 139.744Z" fill="#F9C73A"/>
<path d="M94.936 139.744C92.7436 139.744 90.9594 141.527 90.9594 143.72C90.9594 145.912 92.743 147.696 94.936 147.696C97.1279 147.696 98.9117 145.913 98.9117 143.72C98.9117 141.527 97.1279 139.744 94.936 139.744Z" fill="#F9C73A"/>
<path d="M108.012 139.744C105.82 139.744 104.036 141.527 104.036 143.72C104.036 145.912 105.82 147.696 108.012 147.696C110.204 147.696 111.987 145.913 111.987 143.72C111.987 141.527 110.203 139.744 108.012 139.744Z" fill="#F9C73A"/>
<path d="M43.0805 114.304C40.8881 114.304 39.1046 116.088 39.1046 118.28C39.1046 120.472 40.8873 122.256 43.0805 122.256C45.2736 122.256 47.0563 120.472 47.0563 118.28C47.0563 116.088 45.2728 114.304 43.0805 114.304Z" fill="#F9C73A"/>
<path d="M55.9482 114.304C53.7559 114.304 51.9724 116.088 51.9724 118.28C51.9724 120.472 53.7559 122.256 55.9482 122.256C58.1406 122.256 59.9244 120.472 59.9244 118.28C59.9244 116.088 58.1414 114.304 55.9482 114.304Z" fill="#F9C73A"/>
<path d="M69.0242 122.256C71.2161 122.256 73 120.472 73 118.28C73 116.088 71.2176 114.304 69.0242 114.304C66.8308 114.304 65.0483 116.088 65.0483 118.28C65.0483 120.472 66.8321 122.256 69.0242 122.256Z" fill="#F9C73A"/>
<path d="M42.9766 134.996C45.1689 134.996 46.9528 133.213 46.9528 131.02C46.9528 128.827 45.1689 127.044 42.9766 127.044C40.7843 127.044 39 128.827 39 131.02C39 133.213 40.7843 134.996 42.9766 134.996Z" fill="#F9C73A"/>
<path d="M55.8443 134.996C58.0363 134.996 59.8202 133.213 59.8202 131.02C59.8202 128.827 58.0377 127.044 55.8443 127.044C53.6513 127.044 51.8685 128.827 51.8685 131.02C51.8685 133.213 53.6521 134.996 55.8443 134.996Z" fill="#F9C73A"/>
<path d="M68.9214 134.996C71.1142 134.996 72.8972 133.213 72.8972 131.02C72.8972 128.827 71.1142 127.044 68.9214 127.044C66.7286 127.044 64.9441 128.827 64.9441 131.02C64.9441 133.213 66.728 134.996 68.9214 134.996Z" fill="#F9C73A"/>
<path d="M43.0676 139.744C40.8753 139.744 39.091 141.527 39.091 143.72C39.091 145.912 40.8753 147.696 43.0676 147.696C45.2599 147.696 47.0433 145.913 47.0433 143.72C47.0433 141.527 45.2599 139.744 43.0676 139.744Z" fill="#F9C73A"/>
<path d="M55.936 139.744C53.7436 139.744 51.9594 141.527 51.9594 143.72C51.9594 145.912 53.743 147.696 55.936 147.696C58.1279 147.696 59.9117 145.913 59.9117 143.72C59.9117 141.527 58.1279 139.744 55.936 139.744Z" fill="#F9C73A"/>
<path d="M69.0116 139.744C66.8197 139.744 65.0357 141.527 65.0357 143.72C65.0357 145.912 66.8197 147.696 69.0116 147.696C71.2044 147.696 72.9874 145.913 72.9874 143.72C72.9874 141.527 71.2035 139.744 69.0116 139.744Z" fill="#F9C73A"/>
<path d="M4.08049 114.304C1.88807 114.304 0.104645 116.088 0.104645 118.28C0.104645 120.472 1.88734 122.256 4.08049 122.256C6.27364 122.256 8.05633 120.472 8.05633 118.28C8.05633 116.088 6.27278 114.304 4.08049 114.304Z" fill="#F9C73A"/>
<path d="M16.9482 114.304C14.7559 114.304 12.9724 116.088 12.9724 118.28C12.9724 120.472 14.7559 122.256 16.9482 122.256C19.1406 122.256 20.9244 120.472 20.9244 118.28C20.9244 116.088 19.1414 114.304 16.9482 114.304Z" fill="#F9C73A"/>
<path d="M30.0242 122.256C32.2161 122.256 34 120.472 34 118.28C34 116.088 32.2176 114.304 30.0242 114.304C27.8308 114.304 26.0483 116.088 26.0483 118.28C26.0483 120.472 27.8321 122.256 30.0242 122.256Z" fill="#F9C73A"/>
<path d="M3.97658 134.996C6.16887 134.996 7.95279 133.213 7.95279 131.02C7.95279 128.827 6.16887 127.044 3.97658 127.044C1.78429 127.044 0 128.827 0 131.02C0 133.213 1.78429 134.996 3.97658 134.996Z" fill="#F9C73A"/>
<path d="M16.8443 134.996C19.0363 134.996 20.8202 133.213 20.8202 131.02C20.8202 128.827 19.0377 127.044 16.8443 127.044C14.6513 127.044 12.8685 128.827 12.8685 131.02C12.8685 133.213 14.6521 134.996 16.8443 134.996Z" fill="#F9C73A"/>
<path d="M29.9214 134.996C32.1142 134.996 33.8972 133.213 33.8972 131.02C33.8972 128.827 32.1142 127.044 29.9214 127.044C27.7286 127.044 25.9441 128.827 25.9441 131.02C25.9441 133.213 27.728 134.996 29.9214 134.996Z" fill="#F9C73A"/>
<path d="M4.06758 139.744C1.87529 139.744 0.0910034 141.527 0.0910034 143.72C0.0910034 145.912 1.87529 147.696 4.06758 147.696C6.25987 147.696 8.0433 145.913 8.0433 143.72C8.0433 141.527 6.25987 139.744 4.06758 139.744Z" fill="#F9C73A"/>
<path d="M16.936 139.744C14.7436 139.744 12.9594 141.527 12.9594 143.72C12.9594 145.912 14.743 147.696 16.936 147.696C19.1279 147.696 20.9117 145.913 20.9117 143.72C20.9117 141.527 19.1279 139.744 16.936 139.744Z" fill="#F9C73A"/>
<path d="M30.0116 139.744C27.8197 139.744 26.0357 141.527 26.0357 143.72C26.0357 145.912 27.8197 147.696 30.0116 147.696C32.2044 147.696 33.9874 145.913 33.9874 143.72C33.9874 141.527 32.2035 139.744 30.0116 139.744Z" fill="#F9C73A"/>
</svg>
