<svg width="35" height="34" viewBox="0 0 35 34" fill="none" xmlns="http://www.w3.org/2000/svg">
<path d="M5.12695 34H16.543V21.9141H12.4414V17.9297H16.543V12.9492C16.543 10.203 18.8429 7.96875 21.6699 7.96875H26.7969V11.9531H22.6953C21.5644 11.9531 20.6445 12.8468 20.6445 13.9453V17.9297H26.6118L25.9282 21.9141H20.6445V34H29.873C32.7001 34 35 31.7658 35 29.0195V4.98047C35 2.23421 32.7001 0 29.873 0H5.12695C2.29992 0 0 2.23421 0 4.98047V29.0195C0 31.7658 2.29992 34 5.12695 34ZM2.05078 4.98047C2.05078 3.33276 3.43079 1.99219 5.12695 1.99219H29.873C31.5692 1.99219 32.9492 3.33276 32.9492 4.98047V29.0195C32.9492 30.6672 31.5692 32.0078 29.873 32.0078H22.6953V23.9062H27.6655L29.0327 15.9375H22.6953V13.9453H28.8477V5.97656H21.6699C17.712 5.97656 14.4922 9.1044 14.4922 12.9492V15.9375H10.3906V23.9062H14.4922V32.0078H5.12695C3.43079 32.0078 2.05078 30.6672 2.05078 29.0195V4.98047Z" fill="white"/>
</svg>
