<svg width="130" height="130" viewBox="0 0 130 130" fill="none" xmlns="http://www.w3.org/2000/svg">
<g clip-path="url(#clip0)">
<path d="M122.683 50.5254C121.566 47.1135 118.525 44.9087 114.934 44.9087H89.86C88.409 44.9087 88.5478 43.6987 88.8424 43.173L91.802 37.8866C92.3158 36.9691 91.9884 35.8087 91.071 35.295C90.1536 34.7812 88.9931 35.1085 88.4794 36.0259L85.5198 41.3123C84.647 42.8695 84.6658 44.7182 85.5684 46.2585C86.4709 47.7979 88.0747 48.7173 89.86 48.7173H114.934C117.256 48.7173 118.589 50.2635 119.063 51.7096C119.536 53.1567 119.376 55.1919 117.504 56.5646L33.7556 117.99L43.1928 100.292C43.6877 99.3636 43.3366 98.2101 42.4083 97.7152C41.4809 97.2213 40.3275 97.5724 39.8325 98.4998L26.6671 123.19L23.9376 125.193C21.59 126.913 19.1521 126.132 17.7784 124.939C16.4047 123.745 15.2889 121.442 16.6656 118.876L43.8197 68.276C44.6558 66.7188 44.6131 64.8849 43.7056 63.3685C42.7991 61.853 41.2032 60.9484 39.4368 60.9484H17.0762C14.8714 60.9484 12.8907 59.8128 11.7759 57.9115C10.6611 56.0101 10.6383 53.727 11.7154 51.8038L34.7395 10.6829C37.113 6.44287 41.6069 3.80859 46.4658 3.80859H51.7562C44.99 15.8453 34.929 33.7646 29.2657 43.8544C28.5972 45.0455 28.6101 46.4599 29.3004 47.6382C29.9907 48.8174 31.2176 49.5216 32.5843 49.5216H58.5383C60.1143 49.5216 61.5395 50.329 62.3508 51.6798C63.1622 53.0317 63.2038 54.6692 62.4619 56.0607L43.8078 91.0442C43.3128 91.9716 43.6649 93.1251 44.5933 93.621C44.8779 93.7727 46.4549 94.2171 47.169 92.8355L65.8222 57.8529C67.1999 55.2702 67.1225 52.2303 65.6169 49.721C64.1103 47.2107 61.4642 45.713 58.5373 45.713L32.5873 45.719C38.5511 35.0936 49.3917 15.7848 56.1252 3.80859H96.0371C98.2419 3.80859 100.223 4.94423 101.337 6.84555C102.452 8.74687 102.474 11.03 101.398 12.9542L92.2562 29.2805C91.7425 30.198 92.0698 31.3584 92.9872 31.8722C93.9056 32.3859 95.0661 32.0586 95.5798 31.1412L104.72 14.8148C106.465 11.6985 106.428 8.00003 104.623 4.91943C102.817 1.83884 99.6076 0 96.0371 0H46.4658C40.2293 0 34.4628 3.38112 31.4159 8.82225L8.39279 49.9422C6.64818 53.0575 6.68388 56.757 8.48999 59.8376C10.2951 62.9172 13.5056 64.757 17.0762 64.757H39.4368C40.8035 64.757 40.747 65.9482 40.4643 66.4748L13.3102 117.075C11.3335 120.757 12.126 125.073 15.281 127.813C16.9542 129.267 18.9725 130 21.0018 130C22.8 130 24.6071 129.424 26.19 128.263L119.756 59.6362C122.652 57.5127 123.8 53.9362 122.683 50.5254Z" fill="#F9C73A"/>
</g>
<defs>
<clipPath id="clip0">
<rect width="130" height="130" fill="white"/>
</clipPath>
</defs>
</svg>
