<svg width="35" height="34" viewBox="0 0 35 34" fill="none" xmlns="http://www.w3.org/2000/svg">
<path d="M29.873 0H5.12695C2.29992 0 0 2.23421 0 4.98047V29.0195C0 31.7658 2.29992 34 5.12695 34H29.873C32.7001 34 35 31.7658 35 29.0195V4.98047C35 2.23421 32.7001 0 29.873 0ZM32.9492 29.0195C32.9492 30.6672 31.5692 32.0078 29.873 32.0078H5.12695C3.43079 32.0078 2.05078 30.6672 2.05078 29.0195V4.98047C2.05078 3.33276 3.43079 1.99219 5.12695 1.99219H29.873C31.5692 1.99219 32.9492 3.33276 32.9492 4.98047V29.0195Z" fill="white"/>
<path d="M6.2207 28.0234H12.373V13.9453H6.2207V28.0234ZM8.27148 15.9375H10.3223V26.0312H8.27148V15.9375Z" fill="white"/>
<path d="M22.6328 13.9453C22.631 13.9453 22.6288 13.9453 22.627 13.9453C21.918 13.9453 21.2275 14.0605 20.5762 14.2841V13.9453H14.4238V28.0234H20.5762V20.918C20.5762 20.3688 21.0363 19.9219 21.6016 19.9219C22.1669 19.9219 22.627 20.3688 22.627 20.918V28.0234H28.7793V20.2332C28.7793 17.0093 26.0871 13.9484 22.6328 13.9453ZM26.7285 26.0312H24.6777V20.918C24.6777 19.2703 23.2977 17.9297 21.6016 17.9297C19.9054 17.9297 18.5257 19.2703 18.5254 20.9177V26.0312H16.4746V15.9375H18.5254V17.931L20.1665 16.7336C20.8803 16.2127 21.7311 15.9375 22.627 15.9375H22.631C24.8137 15.9396 26.7285 17.9468 26.7285 20.2332V26.0312Z" fill="white"/>
<path d="M6.2207 11.9531H12.373V5.97656H6.2207V11.9531ZM8.27148 7.96875H10.3223V9.96094H8.27148V7.96875Z" fill="white"/>
</svg>
