<?xml version="1.0" encoding="UTF-8" standalone="no"?>
<!-- Created with Inkscape (http://www.inkscape.org/) -->

<svg
   xmlns:dc="http://purl.org/dc/elements/1.1/"
   xmlns:cc="http://creativecommons.org/ns#"
   xmlns:rdf="http://www.w3.org/1999/02/22-rdf-syntax-ns#"
   xmlns:svg="http://www.w3.org/2000/svg"
   xmlns="http://www.w3.org/2000/svg"
   xmlns:sodipodi="http://sodipodi.sourceforge.net/DTD/sodipodi-0.dtd"
   xmlns:inkscape="http://www.inkscape.org/namespaces/inkscape"
   version="1.1"
   id="svg2"
   xml:space="preserve"
   width="1284.6987"
   height="428.90268"
   viewBox="0 0 1284.6987 428.90268"
   sodipodi:docname="LOGO_ODONTOTOP_FRANQUEADORA.svg"
   inkscape:export-filename="/home/marcelo/Ãrea de Trabalho/LOGO_ODONTOTOP_FRANQUEADORA_BRANCA.png"
   inkscape:export-xdpi="96"
   inkscape:export-ydpi="96"
   inkscape:version="0.92.5 (2060ec1f9f, 2020-04-08)"><metadata
     id="metadata8"><rdf:RDF><cc:Work
         rdf:about=""><dc:format>image/svg+xml</dc:format><dc:type
           rdf:resource="http://purl.org/dc/dcmitype/StillImage" /><dc:title></dc:title></cc:Work></rdf:RDF></metadata><defs
     id="defs6"><clipPath
       clipPathUnits="userSpaceOnUse"
       id="clipPath18"><path
         d="M 0,321.677 H 963.524 V 0 H 0 Z"
         id="path16"
         inkscape:connector-curvature="0" /></clipPath></defs><sodipodi:namedview
     pagecolor="#ffffff"
     bordercolor="#666666"
     borderopacity="1"
     objecttolerance="10"
     gridtolerance="10"
     guidetolerance="10"
     inkscape:pageopacity="0"
     inkscape:pageshadow="2"
     inkscape:window-width="1920"
     inkscape:window-height="1015"
     id="namedview4"
     showgrid="false"
     inkscape:zoom="0.674088"
     inkscape:cx="252.22511"
     inkscape:cy="170.42152"
     inkscape:window-x="1920"
     inkscape:window-y="0"
     inkscape:window-maximized="1"
     inkscape:current-layer="g10" /><g
     id="g10"
     inkscape:groupmode="layer"
     inkscape:label="LOGO_ODONTOTOP_FRANQUEADORA"
     transform="matrix(1.3333333,0,0,-1.3333333,0,428.90267)"><g
       id="g4761"><path
         d="m 95.8486,248.8276 c -31.452,-10.639 -33.582,-42.872 -24.891,-83.233 -7.438,4.833 -12.893,11.09 -15.908,18.747 -5.293,13.461 -2.759,29.572 7.617,46.059 1.435,2.282 3.746,6.61 3.746,6.61 0,0 -3.789,-3.839 -5.634,-6.205 -15.821,-20.311 -22.188,-40.714 -15.756,-57.069 4.636,-11.78 15.224,-20.068 30.007,-24.911 6.936,-2.274 14.795,-3.794 23.406,-4.551 30.599,-2.69 70.604,4.17 111.895,20.415 19.748,7.767 38.697,18.204 55.573,29.777 7.744,5.311 15.055,10.861 21.797,16.505 11.166,9.351 20.783,18.953 28.28,28.144 2.941,3.606 7.498,10.164 7.498,10.164 0,0 -10.763,-11.567 -11.928,-12.771 -7.063,-7.3 -15.313,-14.693 -24.433,-21.858 -3.44,19.23 -12.516,32.922 -28.416,34.948 -22.944,2.928 -47.96,-23.964 -76.672,-25.191 -11.788,-0.505 -24.894,6.233 -38.224,12.972 -12.855,6.5 -25.918,12.999 -38.198,12.999 -3.317,0 -6.575,-0.474 -9.759,-1.551 m -0.556,-92.74 c -10.344,42.732 -2.609,78.064 19.581,77.328 20.204,-0.669 47.834,-20.978 68.388,-19.887 33.41,1.773 44.09,18.473 64.108,16.677 10.748,-0.964 16.347,-13.373 18.146,-30.993 -15.554,-10.106 -32.594,-19.145 -50.042,-26.008 -33.704,-13.261 -66.043,-19.747 -92.908,-19.749 -9.903,0 -19.06,0.883 -27.273,2.632"
         style="fill:#f8bd09;fill-opacity:1;fill-rule:evenodd;stroke:none"
         id="path22"
         inkscape:connector-curvature="0" /><path
         d="m 295.7236,262.2187 -0.284,-4.131 -0.287,-4.131 c -0.162,-2.37 -2.049,-4.253 -4.416,-4.417 l -4.131,-0.286 -4.132,-0.285 -4.131,-0.287 4.131,-0.282 4.132,-0.287 4.131,-0.284 c 2.367,-0.166 4.254,-2.049 4.416,-4.418 l 0.287,-4.13 0.284,-4.131 0.285,-4.131 0.286,4.131 0.285,4.131 0.284,4.13 c 0.165,2.369 2.048,4.252 4.416,4.418 l 4.132,0.284 4.131,0.287 4.131,0.282 -4.131,0.287 -4.131,0.285 -4.132,0.286 c -2.368,0.164 -4.251,2.047 -4.416,4.417 l -0.284,4.131 -0.285,4.131 -0.286,4.129 z"
         style="fill:#f8bd09;fill-opacity:1;fill-rule:evenodd;stroke:none"
         id="path26"
         inkscape:connector-curvature="0" /><path
         d="m 331.4707,277.2002 -0.323,-4.709 -0.328,-4.71 c -0.186,-2.701 -2.336,-4.848 -5.034,-5.034 l -4.713,-0.326 -4.708,-0.325 -4.709,-0.326 4.709,-0.323 4.708,-0.326 4.713,-0.325 c 2.698,-0.186 4.848,-2.336 5.034,-5.037 l 0.328,-4.71 0.323,-4.711 0.324,-4.708 0.327,4.708 0.323,4.711 0.326,4.71 c 0.186,2.701 2.339,4.851 5.036,5.037 l 4.709,0.325 4.712,0.326 4.709,0.323 -4.709,0.326 -4.712,0.325 -4.709,0.326 c -2.697,0.186 -4.85,2.333 -5.036,5.034 l -0.326,4.71 -0.323,4.709 -0.327,4.713 z"
         style="fill:#f8bd09;fill-opacity:1;fill-rule:evenodd;stroke:none"
         id="path30"
         inkscape:connector-curvature="0" /><path
         d="m 177.5649,240.708 h 10.891 v 17.315 h 18.197 v 10.89 h -18.197 v 17.318 h -10.891 v -17.318 h -18.197 v -10.89 h 18.197 z"
         style="fill:#f8bd09;fill-opacity:1;fill-rule:evenodd;stroke:none"
         id="path34"
         inkscape:connector-curvature="0" /><path
         d="m 304.9673,221.4653 c 0,0 -2.824,-3.182 -3.173,-3.603 -4.035,-4.847 -8.553,-9.752 -13.473,-14.644 -6.705,-6.669 -14.169,-13.313 -22.243,-19.763 -20.983,-16.764 -46.04,-32.22 -72.382,-43.355 -34.737,-14.683 -65.317,-20.177 -89.699,-18.998 -8.427,0.405 -16.117,1.607 -22.977,3.504 -18.29,5.06 -30.713,15.048 -35.665,28.004 -0.354,0.926 -0.646,1.867 -0.891,2.827 0.095,-4.058 0.891,-8.076 2.465,-12.027 5.843,-14.663 18.827,-25.518 37.924,-30.546 14.217,-41.681 33.726,-79.688 47.184,-80.216 13.607,-0.535 23.466,33.371 26.498,42.791 9.704,30.131 15.795,27.195 27.126,12.361 -4.096,11.682 -8.023,18.315 -14.089,20.306 -15.088,4.953 -27.552,-57.602 -40.476,-48.267 -7.693,5.556 -16.188,26.551 -23.634,49.96 22.946,-0.624 51.468,5.097 84.599,19.102 26.612,11.247 52.299,28.991 73.916,48.656 -0.526,-16.48 -3.065,-34.872 -6.995,-52.164 -9.194,-40.436 -25.02,-75.995 -34.04,-73.714 -5.808,1.467 -10.909,11.063 -16.382,24.571 -4.112,10.139 -17.724,43.286 -33.804,41.874 -5.514,-0.484 -13.032,-4.281 -17.13,-15.963 9.412,12.471 21.095,17.36 30.348,-14.554 6.741,-23.248 16.577,-57.328 37.486,-57.328 25.596,0 64.417,101.207 63.153,166.383 -0.024,1.241 -0.069,2.466 -0.126,3.681 4.973,5.626 9.556,11.268 13.667,16.828 0.412,0.556 2.813,4.294 2.813,4.294 m 10.773,1.85 0.285,-4.284 0.286,-4.282 0.284,-4.283 c 0.165,-2.454 2.048,-4.409 4.417,-4.579 l 4.131,-0.297 4.132,-0.295 4.131,-0.295 -4.131,-0.295 -4.132,-0.297 -4.131,-0.296 c -2.369,-0.169 -4.252,-2.121 -4.417,-4.578 l -0.284,-4.282 -0.286,-4.283 -0.285,-4.284 -0.285,4.284 -0.287,4.283 -0.284,4.282 c -0.163,2.457 -2.047,4.409 -4.416,4.578 l -4.131,0.296 -4.131,0.297 -4.132,0.295 4.132,0.295 4.131,0.295 4.131,0.297 c 2.369,0.17 4.253,2.125 4.416,4.579 l 0.284,4.283 0.287,4.282 z"
         style="fill:#ffffff;fill-opacity:1;fill-rule:nonzero;stroke:none"
         id="path38"
         inkscape:connector-curvature="0" /><path
         d="m 814.3721,171.8994 c -2.8,-0.043 -5.701,-0.104 -8.708,-0.184 -3.008,-0.085 -5.988,-0.124 -8.956,-0.124 h -7.792 c -5.44,0 -10.657,0.059 -15.651,0.185 -4.995,0.123 -9.968,0.265 -14.92,0.433 -0.062,-2.007 -0.225,-3.654 -0.486,-4.949 -0.261,-1.297 -0.671,-2.901 -1.228,-4.819 2.134,0.163 4.081,0.307 5.852,0.433 1.762,0.121 3.551,0.204 5.363,0.246 1.812,0.039 3.665,0.061 5.56,0.061 h 6.43 c -0.627,-5.348 -1.317,-10.659 -2.071,-15.926 -0.756,-5.264 -1.57,-10.532 -2.447,-15.799 -1.175,-7.491 -2.519,-14.875 -4.033,-22.159 -1.517,-7.286 -3.028,-14.586 -4.54,-21.911 7.179,0.857 13.107,0.656 20.277,0 0.684,7.145 1.583,14.269 2.716,21.358 1.117,6.991 2.272,14.029 3.468,21.105 1.198,6.995 2.339,13.147 3.423,18.458 1.081,5.306 2.118,10.265 3.115,14.874 2.884,0 5.999,-0.061 9.346,-0.186 3.344,-0.121 6.963,-0.391 10.86,-0.803 0.126,2.329 0.278,4.145 0.456,5.439 0.179,1.296 0.551,2.82 1.12,4.578 -1.967,-0.168 -4.357,-0.268 -7.154,-0.31 m 17.994,-20.233 c -5.115,-0.15 -9.915,-1.24 -14.401,-3.27 -4.488,-2.03 -8.399,-4.759 -11.744,-8.185 -3.342,-3.426 -6.01,-7.4 -8.004,-11.923 -1.994,-4.529 -3.062,-11.84 -3.198,-16.993 v 2.476 c -0.104,-3.968 0.425,-7.586 1.59,-10.851 1.166,-3.267 2.22,-6.079 4.496,-8.433 2.278,-2.357 5.699,-4.155 8.927,-5.392 3.234,-1.236 6.864,-1.811 10.888,-1.717 5.039,0.115 9.829,1.18 14.378,3.198 4.549,2.014 8.576,4.721 12.071,8.117 3.501,3.395 6.314,7.352 8.451,11.865 2.137,4.514 3.269,9.361 3.394,14.543 0.098,4.077 -0.401,7.773 -1.502,11.097 -1.099,3.317 -2.776,6.153 -5.033,8.506 -2.259,2.347 -5.077,4.126 -8.452,5.342 -3.038,1.092 -6.548,1.638 -10.534,1.638 -0.436,0 -0.88,-0.007 -1.327,-0.018 m -14.414,-56.199 c -1.249,0.802 -2.222,1.894 -2.906,3.271 -0.691,1.372 -1.158,2.949 -1.403,4.721 -0.244,1.769 -0.364,3.508 -0.364,5.21 0,1.618 0.141,3.666 0.424,6.146 0.283,2.473 0.729,5.068 1.334,7.783 0.604,2.707 1.383,5.41 2.341,8.111 0.956,2.687 2.105,5.109 3.453,7.264 1.336,2.15 2.903,3.871 4.699,5.175 1.782,1.298 3.789,1.941 6.016,1.941 1.908,0 3.449,-0.424 4.629,-1.273 1.171,-0.848 2.079,-1.946 2.726,-3.287 0.643,-1.345 1.084,-2.862 1.318,-4.556 0.233,-1.691 0.354,-3.345 0.365,-4.967 0.008,-1.623 -0.111,-3.597 -0.361,-5.922 -0.25,-2.334 -0.651,-4.813 -1.199,-7.438 -0.553,-2.634 -1.277,-5.28 -2.171,-7.946 -0.902,-2.677 -1.999,-5.118 -3.292,-7.322 -1.301,-2.22 -2.842,-4.044 -4.624,-5.481 -1.793,-1.44 -3.834,-2.249 -6.127,-2.413 -0.308,-0.023 -0.606,-0.032 -0.895,-0.032 -1.586,0 -2.91,0.339 -3.963,1.015 m 80.498,54.211 c -3.955,-0.117 -7.31,-0.846 -10.065,-2.533 -2.758,-1.693 -5.167,-4.062 -7.233,-7.109 0.34,1.314 0.665,2.656 0.964,4.014 0.298,1.362 0.661,2.743 1.081,4.143 -1.146,-0.166 -2.393,-0.308 -3.75,-0.431 -1.352,-0.123 -2.979,-0.186 -4.873,-0.186 -1.813,0 -3.341,0.063 -4.584,0.186 -1.245,0.123 -2.447,0.265 -3.609,0.431 -0.256,-2.967 -0.696,-6.797 -1.314,-11.497 -0.619,-4.699 -1.321,-9.831 -2.1,-15.398 -0.778,-5.562 -1.649,-11.354 -2.612,-17.37 -2.1,-13.109 -3.419,-20.911 -5.702,-33.941 -0.888,-5.069 -1.652,-9.374 -2.29,-12.919 1.145,0.165 2.477,0.31 3.995,0.43 1.521,0.126 3.061,0.187 4.629,0.187 1.648,0 3.156,-0.061 4.523,-0.187 1.366,-0.12 2.589,-0.265 3.67,-0.43 1.278,13.352 3.311,26.418 6.103,39.196 1.127,-3.61 3.304,-5.935 6.478,-7.544 3.176,-1.606 7.822,-1.606 11.673,-1.36 4.442,0.287 8.426,1.157 11.933,3.464 3.507,2.304 6.422,5.293 8.745,8.962 2.322,3.668 4.042,7.79 5.16,12.365 1.122,4.574 1.536,9.086 1.657,13.539 0.038,1.58 0.093,3.262 0.006,5.693 -0.265,7.438 -2.829,18.317 -21.073,18.317 -0.46,0 -0.93,-0.009 -1.412,-0.022 m -17.653,-51.254 c -1.894,2.268 -2.928,5.132 -3.109,8.596 -0.073,1.402 -0.024,3.233 0.144,5.503 0.169,2.266 0.478,4.635 0.926,7.109 0.447,2.475 1.038,4.967 1.77,7.479 0.739,2.514 1.69,4.781 2.861,6.802 1.173,2.021 2.547,3.669 4.129,4.944 1.581,1.279 3.405,1.919 5.465,1.919 3.049,0 5.455,-1.053 7.212,-3.155 1.76,-2.102 2.724,-4.801 2.899,-8.097 0.072,-1.404 0.022,-3.237 -0.146,-5.503 -0.171,-2.268 -0.475,-4.68 -0.919,-7.232 -0.443,-2.557 -1.05,-5.114 -1.823,-7.668 -0.772,-2.556 -1.743,-4.883 -2.912,-6.985 -1.166,-2.103 -2.521,-3.814 -4.057,-5.131 -1.539,-1.322 -3.34,-1.98 -5.398,-1.98 -2.805,0 -5.151,1.135 -7.042,3.399"
         style="fill:#f8bd09;fill-opacity:1;fill-rule:evenodd;stroke:none"
         id="path42"
         inkscape:connector-curvature="0" /><path
         d="m 915.627,159.3257 c -2.028,-2.028 -4.476,-3.04 -7.342,-3.04 -2.849,0 -5.288,1.012 -7.316,3.04 -2.027,2.028 -3.041,4.468 -3.041,7.315 0,2.866 1.014,5.313 3.041,7.342 2.028,2.028 4.467,3.042 7.316,3.042 2.866,0 5.314,-1.014 7.342,-3.042 2.027,-2.029 3.039,-4.476 3.039,-7.342 0,-2.847 -1.012,-5.287 -3.039,-7.315 m -4.706,8.737 c 0,-0.331 -0.061,-0.642 -0.188,-0.934 -0.126,-0.289 -0.297,-0.543 -0.52,-0.755 -0.22,-0.213 -0.478,-0.381 -0.767,-0.508 -0.293,-0.126 -0.601,-0.188 -0.932,-0.188 h -2.697 v 4.795 h 2.697 c 0.331,0 0.639,-0.063 0.932,-0.19 0.289,-0.125 0.547,-0.293 0.767,-0.508 0.223,-0.212 0.394,-0.465 0.52,-0.756 0.127,-0.291 0.188,-0.601 0.188,-0.933 z m 1.396,1.652 c -0.223,0.508 -0.52,0.945 -0.901,1.324 -0.376,0.377 -0.816,0.673 -1.319,0.886 -0.505,0.212 -1.049,0.318 -1.631,0.318 h -4.464 v -11.15 h 1.815 v 2.81 h 2.649 l 1.348,-2.81 h 2.171 l -1.702,3.214 c 0.708,0.345 1.28,0.851 1.716,1.51 0.431,0.663 0.649,1.412 0.649,2.246 v 0.023 c 0,0.581 -0.111,1.125 -0.331,1.629 m 4.837,5.795 c -2.461,2.463 -5.42,3.692 -8.869,3.692 -3.454,0 -6.398,-1.229 -8.831,-3.692 -2.429,-2.46 -3.648,-5.417 -3.648,-8.869 0,-3.454 1.219,-6.4 3.648,-8.843 2.433,-2.44 5.377,-3.664 8.831,-3.664 3.449,0 6.408,1.23 8.869,3.68 2.46,2.449 3.69,5.394 3.69,8.827 0,3.452 -1.23,6.409 -3.69,8.869"
         style="fill:#ffffff;fill-opacity:1;fill-rule:nonzero;stroke:none"
         id="path46"
         inkscape:connector-curvature="0" /><path
         d="m 413.6294,116.3545 c 0,13.407 3.938,24.289 11.807,32.646 7.288,7.578 16.032,11.37 26.236,11.37 4.956,0 8.986,-0.779 12.098,-2.332 3.109,-1.556 6.07,-4.325 8.89,-8.306 0.907,3.685 2.761,13.747 4.854,25.164 2.089,11.42 10.462,17.997 21.392,20.241 -3.792,-14.09 -7.396,-28.988 -11.671,-48.614 -2.3,-10.648 -5.705,-28.323 -9.497,-49.722 -0.912,-5.14 -5.363,-9.34 -10.583,-9.39 -2.965,-0.03 -5.893,0.035 -7.096,0.035 l 1.775,7.138 c -7.302,-5.203 -12.883,-7.09 -21.824,-7.09 -9.424,0 -16.468,3.447 -21.134,10.348 -3.497,5.246 -5.247,11.417 -5.247,18.512 m 30.122,-21.136 c 8.421,0 15.102,5.15 20.039,15.449 3.679,7.873 5.517,16.035 5.517,24.488 0,11.853 -4.453,17.782 -13.359,17.782 -9.1,0 -15.974,-5.394 -20.62,-16.177 -3.292,-7.581 -4.937,-15.697 -4.937,-24.344 0,-11.465 4.454,-17.198 13.36,-17.198"
         style="fill:#ffffff;fill-opacity:1;fill-rule:nonzero;stroke:none"
         id="path50"
         inkscape:connector-curvature="0" /><path
         d="m 530.5879,160.6162 c 11.368,0 19.918,-3.353 25.65,-10.058 4.569,-5.443 6.851,-12.047 6.851,-19.821 0,-10.495 -3.301,-19.824 -9.91,-27.985 -7.969,-10.008 -18.995,-15.012 -33.085,-15.012 -9.037,0 -16.471,2.717 -22.301,8.161 -5.831,5.442 -8.744,12.68 -8.744,21.718 0,10.104 3.205,19.336 9.619,27.692 7.774,10.202 18.411,15.305 31.92,15.305 m 16.033,-24.196 c 0,12.245 -4.956,18.365 -14.868,18.365 -8.939,0 -15.887,-5.829 -20.842,-17.49 -3.599,-8.55 -5.394,-17.344 -5.394,-26.382 0,-11.564 4.857,-17.344 14.577,-17.344 8.452,0 15.253,5.396 20.404,16.179 4.083,8.647 6.123,17.538 6.123,26.672"
         style="fill:#ffffff;fill-opacity:1;fill-rule:nonzero;stroke:none"
         id="path54"
         inkscape:connector-curvature="0" /><path
         d="m 566.8184,106.6884 6.996,32.647 c 1.358,6.219 2.38,12.292 3.06,18.22 1.502,-0.25 3.647,-0.393 6.089,-0.428 5.29,-0.078 9.101,-5.109 7.792,-10.233 l -0.034,-0.125 c 7.093,7.773 15.16,11.661 24.196,11.661 4.859,0 9.037,-1.019 12.533,-3.05 5.054,-3.002 7.581,-7.697 7.581,-14.086 0,-2.421 -0.292,-4.985 -0.875,-7.694 l -3.063,-14.086 c -1.786,-8.132 -3.197,-15.02 -4.231,-20.674 -1.115,-6.107 -6.373,-10.587 -12.581,-10.676 -2.886,-0.043 -5.565,-0.185 -7.091,-0.424 3.103,10.882 5.232,18.851 6.396,23.907 l 3.081,13.551 c 1.358,5.988 2.038,10.524 2.038,13.618 0,2.991 -0.996,5.43 -2.988,7.314 -1.99,1.883 -4.733,2.826 -8.228,2.826 -6.994,0 -12.581,-3.628 -16.755,-10.878 -1.654,-2.902 -3.451,-8.897 -5.393,-17.983 l -2.807,-13.112 c -0.35,-1.757 -0.817,-4.317 -1.402,-7.681 -1.102,-6.351 -6.553,-10.993 -12.995,-11.153 -2.199,-0.055 -4.237,-0.192 -5.839,-0.409 1.166,4.079 2.673,10.395 4.52,18.948"
         style="fill:#ffffff;fill-opacity:1;fill-rule:nonzero;stroke:none"
         id="path58"
         inkscape:connector-curvature="0" /><path
         d="m 642.5742,110.8457 4.902,22.673 c 1.971,8.931 3.205,14.661 3.7,17.185 -2.606,0 -4.856,-0.032 -6.745,-0.104 -2.241,-0.082 -4.044,1.902 -3.674,4.113 0.091,0.555 0.171,1.115 0.237,1.683 0.084,0.738 0.687,1.305 1.433,1.305 h 9.913 c 1.259,6.722 3.729,19.438 3.729,19.438 l 18.277,5.05 c 0,0 -4.661,-17.095 -6.119,-24.488 h 9.527 c 2.264,0 3.955,-2.093 3.471,-4.307 l -0.334,-1.541 c -0.19,-0.888 -1.002,-1.499 -1.906,-1.429 -2.671,0.198 -6.82,0.299 -12.449,0.299 l -2.481,-11.513 c -1.252,-5.737 -2.699,-12.442 -4.332,-20.123 -1.328,-6.762 -1.992,-11.499 -1.992,-14.202 0,-6.474 2.818,-9.712 8.453,-9.712 1.67,0 4.497,0.795 8.477,2.39 0.734,0.291 1.561,-0.142 1.726,-0.914 0.308,-1.445 0.393,-3.597 -1.456,-4.599 -5.564,-3.013 -11.273,-4.309 -16.909,-4.309 -5.052,0 -9.107,1.282 -12.169,3.849 -3.061,2.567 -4.593,5.887 -4.593,9.957 0,2.227 0.439,5.328 1.314,9.299"
         style="fill:#ffffff;fill-opacity:1;fill-rule:nonzero;stroke:none"
         id="path62"
         inkscape:connector-curvature="0" /><path
         d="m 720.6758,160.6162 c 11.369,0 19.918,-3.352 25.65,-10.058 4.569,-5.443 6.851,-12.047 6.851,-19.821 0,-10.495 -3.303,-19.824 -9.911,-27.985 -7.967,-10.008 -18.996,-15.012 -33.084,-15.012 -9.037,0 -16.469,2.717 -22.302,8.162 -5.829,5.442 -8.745,12.679 -8.745,21.717 0,10.105 3.208,19.336 9.621,27.693 7.774,10.201 18.411,15.304 31.92,15.304 m 16.033,-24.195 c 0,12.244 -4.957,18.366 -14.869,18.366 -8.94,0 -15.886,-5.831 -20.841,-17.492 -3.597,-8.55 -5.394,-17.344 -5.394,-26.382 0,-11.564 4.857,-17.343 14.577,-17.343 8.454,0 15.253,5.395 20.405,16.178 4.081,8.648 6.122,17.538 6.122,26.673"
         style="fill:#ffffff;fill-opacity:1;fill-rule:nonzero;stroke:none"
         id="path66"
         inkscape:connector-curvature="0" /><path
         d="m 400.5791,176.7968 c -8.65,9.714 -21.133,14.575 -37.458,14.575 -19.047,0 -34.302,-6.318 -45.767,-18.949 -10.398,-11.465 -15.595,-25.022 -15.595,-40.665 0,-11.465 3.254,-21.133 9.765,-29.004 8.162,-10.01 20.405,-15.014 36.73,-15.014 19.918,0 35.805,6.461 47.66,19.385 10.301,11.37 15.45,24.73 15.45,40.083 0,11.661 -3.596,21.523 -10.785,29.589 m -11.952,-49.849 c -2.43,-6.608 -5.443,-12.292 -9.036,-17.052 -7.58,-10.108 -17.589,-15.16 -30.027,-15.16 -5.524,0 -10.296,0.989 -14.312,2.959 -1.187,0.582 -0.592,2.39 0.711,2.169 3.058,-0.512 6.455,-0.762 10.142,-0.799 2.543,-0.027 5.082,0.676 7.127,2.186 0.759,0.56 1.368,1.165 1.691,1.775 0.482,0.91 -0.293,1.98 -1.322,1.954 -10.306,-0.254 -20.93,2.633 -27.537,10.026 -3.528,3.95 -6.064,11.955 -5.926,18.854 0.743,11.397 4.139,21.823 10.189,31.276 8.161,12.828 19.043,19.239 32.647,19.239 9.813,0 17.394,-3.158 22.739,-9.474 4.955,-5.83 7.433,-13.505 7.433,-23.028 0,-8.262 -1.508,-16.568 -4.519,-24.925"
         style="fill:#ffffff;fill-opacity:1;fill-rule:nonzero;stroke:none"
         id="path70"
         inkscape:connector-curvature="0" /><path
         d="m 452.8921,44.4707 v 26.549 h 17.91 v -3.134 h -14.397 v -8.222 h 12.459 v -3.132 h -12.459 v -12.061 z"
         style="fill:#ffffff;fill-opacity:1;fill-rule:nonzero;stroke:none"
         id="path74"
         inkscape:connector-curvature="0" /><path
         d="m 485.6094,59.3027 h 7.551 c 1.605,0 2.861,0.165 3.767,0.498 0.905,0.331 1.594,0.862 2.065,1.593 0.471,0.73 0.705,1.524 0.705,2.382 0,1.256 -0.455,2.288 -1.367,3.096 -0.91,0.809 -2.352,1.213 -4.319,1.213 h -8.402 z m -3.514,-14.832 v 26.549 h 11.772 c 2.365,0 4.164,-0.239 5.396,-0.716 1.231,-0.477 2.215,-1.319 2.951,-2.526 0.737,-1.207 1.106,-2.541 1.106,-4.002 0,-1.884 -0.609,-3.471 -1.83,-4.763 -1.219,-1.292 -3.102,-2.113 -5.651,-2.463 0.93,-0.447 1.637,-0.888 2.12,-1.322 1.027,-0.942 1.998,-2.119 2.916,-3.531 l 4.617,-7.226 h -4.418 l -3.514,5.523 c -1.025,1.594 -1.871,2.813 -2.535,3.659 -0.664,0.844 -1.258,1.436 -1.783,1.774 -0.526,0.338 -1.059,0.573 -1.604,0.706 -0.398,0.085 -1.049,0.127 -1.955,0.127 h -4.074 v -11.789 z"
         style="fill:#ffffff;fill-opacity:1;fill-rule:nonzero;stroke:none"
         id="path78"
         inkscape:connector-curvature="0" /><path
         d="m 520.2451,55.372 h 9.001 l -2.771,7.353 c -0.845,2.233 -1.473,4.068 -1.883,5.505 -0.338,-1.702 -0.815,-3.392 -1.431,-5.071 z m -7.66,-10.901 10.196,26.548 h 3.784 l 10.867,-26.548 h -4.002 l -3.097,8.041 h -11.102 l -2.916,-8.041 z"
         style="fill:#ffffff;fill-opacity:1;fill-rule:nonzero;stroke:none"
         id="path82"
         inkscape:connector-curvature="0" /><path
         d="m 546.8779,44.4707 v 26.549 h 3.604 l 13.944,-20.845 v 20.845 h 3.368 v -26.549 h -3.604 l -13.944,20.862 v -20.862 z"
         style="fill:#ffffff;fill-opacity:1;fill-rule:nonzero;stroke:none"
         id="path86"
         inkscape:connector-curvature="0" /><path
         d="m 599.3164,53.7793 3.514,-0.888 c -0.738,-2.885 -2.063,-5.086 -3.976,-6.6 -1.913,-1.516 -4.253,-2.274 -7.017,-2.274 -2.862,0 -5.189,0.583 -6.981,1.748 -1.793,1.165 -3.157,2.853 -4.093,5.062 -0.936,2.209 -1.404,4.582 -1.404,7.117 0,2.765 0.528,5.176 1.585,7.234 1.057,2.059 2.559,3.622 4.51,4.691 1.949,1.068 4.094,1.602 6.437,1.602 2.656,0 4.89,-0.675 6.7,-2.028 1.812,-1.352 3.073,-3.254 3.786,-5.704 l -3.459,-0.815 c -0.616,1.931 -1.51,3.338 -2.68,4.219 -1.172,0.881 -2.645,1.323 -4.419,1.323 -2.041,0 -3.746,-0.49 -5.116,-1.467 -1.37,-0.979 -2.333,-2.291 -2.889,-3.94 -0.555,-1.647 -0.833,-3.346 -0.833,-5.097 0,-2.258 0.329,-4.229 0.987,-5.912 0.659,-1.685 1.681,-2.944 3.07,-3.777 1.388,-0.833 2.891,-1.249 4.509,-1.249 1.968,0 3.634,0.568 4.998,1.702 1.365,1.135 2.288,2.819 2.771,5.053"
         style="fill:#ffffff;fill-opacity:1;fill-rule:nonzero;stroke:none"
         id="path90"
         inkscape:connector-curvature="0" /><path
         d="m 613.9424,44.4707 v 26.549 h 3.514 v -10.903 h 13.798 v 10.903 h 3.514 v -26.549 h -3.514 v 12.514 h -13.798 v -12.514 z"
         style="fill:#ffffff;fill-opacity:1;fill-rule:nonzero;stroke:none"
         id="path94"
         inkscape:connector-curvature="0" /><path
         inkscape:connector-curvature="0"
         id="path96"
         style="fill:#ffffff;fill-opacity:1;fill-rule:nonzero;stroke:none"
         d="m 647.891,71.02 h 3.513 V 44.471 h -3.513 z" /><path
         d="m 663.0781,53 3.314,0.29 c 0.157,-1.328 0.522,-2.418 1.096,-3.269 0.573,-0.851 1.463,-1.54 2.671,-2.064 1.207,-0.525 2.565,-0.788 4.074,-0.788 1.34,0 2.524,0.199 3.55,0.598 1.025,0.398 1.789,0.944 2.291,1.638 0.5,0.695 0.751,1.452 0.751,2.274 0,0.833 -0.241,1.559 -0.725,2.181 -0.482,0.622 -1.279,1.144 -2.389,1.567 -0.713,0.277 -2.288,0.709 -4.727,1.295 -2.439,0.586 -4.147,1.137 -5.125,1.657 -1.267,0.664 -2.213,1.487 -2.834,2.472 -0.622,0.984 -0.932,2.086 -0.932,3.304 0,1.341 0.38,2.593 1.14,3.758 0.761,1.165 1.871,2.05 3.332,2.653 1.461,0.604 3.084,0.906 4.871,0.906 1.968,0 3.704,-0.317 5.207,-0.951 1.503,-0.633 2.659,-1.566 3.468,-2.797 0.809,-1.232 1.243,-2.626 1.304,-4.184 l -3.368,-0.254 c -0.182,1.678 -0.794,2.946 -1.838,3.803 -1.045,0.857 -2.587,1.286 -4.627,1.286 -2.125,0 -3.674,-0.39 -4.646,-1.168 -0.971,-0.778 -1.458,-1.718 -1.458,-2.816 0,-0.953 0.345,-1.739 1.033,-2.354 0.675,-0.616 2.442,-1.247 5.296,-1.892 2.856,-0.647 4.815,-1.211 5.877,-1.694 1.545,-0.713 2.687,-1.615 3.423,-2.707 0.737,-1.093 1.105,-2.351 1.105,-3.776 0,-1.412 -0.405,-2.743 -1.214,-3.993 -0.809,-1.249 -1.971,-2.222 -3.485,-2.915 -1.516,-0.695 -3.221,-1.042 -5.117,-1.042 -2.402,0 -4.416,0.35 -6.039,1.05 -1.624,0.701 -2.897,1.754 -3.821,3.161 -0.924,1.406 -1.41,2.997 -1.458,4.771"
         style="fill:#ffffff;fill-opacity:1;fill-rule:nonzero;stroke:none"
         id="path100"
         inkscape:connector-curvature="0" /><path
         inkscape:connector-curvature="0"
         id="path102"
         style="fill:#ffffff;fill-opacity:1;fill-rule:nonzero;stroke:none"
         d="m 696.284,71.02 h 3.513 V 44.471 h -3.513 z" /><path
         d="m 712.6309,44.4707 v 26.549 h 3.604 l 13.944,-20.845 v 20.845 h 3.368 v -26.549 h -3.604 l -13.944,20.862 v -20.862 z"
         style="fill:#ffffff;fill-opacity:1;fill-rule:nonzero;stroke:none"
         id="path106"
         inkscape:connector-curvature="0" /><path
         d="m 758.5488,54.8838 v 3.114 l 11.246,0.019 v -9.852 c -1.726,-1.376 -3.507,-2.412 -5.343,-3.105 -1.835,-0.695 -3.717,-1.042 -5.649,-1.042 -2.608,0 -4.978,0.558 -7.108,1.676 -2.131,1.116 -3.74,2.731 -4.827,4.843 -1.086,2.114 -1.63,4.474 -1.63,7.081 0,2.583 0.54,4.995 1.622,7.235 1.08,2.239 2.634,3.903 4.663,4.989 2.028,1.087 4.364,1.63 7.008,1.63 1.919,0 3.655,-0.311 5.206,-0.933 1.551,-0.622 2.768,-1.488 3.65,-2.598 0.881,-1.112 1.551,-2.56 2.01,-4.347 l -3.169,-0.869 c -0.399,1.352 -0.894,2.415 -1.486,3.187 -0.591,0.773 -1.436,1.392 -2.535,1.857 -1.098,0.465 -2.318,0.697 -3.658,0.697 -1.605,0 -2.994,-0.245 -4.165,-0.733 -1.171,-0.49 -2.116,-1.132 -2.834,-1.929 -0.719,-0.797 -1.276,-1.673 -1.675,-2.626 -0.677,-1.642 -1.014,-3.423 -1.014,-5.343 0,-2.366 0.407,-4.346 1.222,-5.939 0.815,-1.594 2.001,-2.778 3.559,-3.55 1.557,-0.773 3.211,-1.158 4.962,-1.158 1.52,0 3.006,0.292 4.455,0.878 1.448,0.585 2.547,1.21 3.296,1.874 v 4.944 z"
         style="fill:#ffffff;fill-opacity:1;fill-rule:nonzero;stroke:none"
         id="path110"
         inkscape:connector-curvature="0" /></g></g></svg>