<svg width="129" height="129" viewBox="0 0 129 129" fill="none" xmlns="http://www.w3.org/2000/svg">
<path d="M79.1113 104.871L73.1995 102.9C72.7887 102.766 72.3454 102.771 71.9377 102.914L71.2907 99.0317C73.2018 97.9777 74.8428 96.4952 76.0846 94.7004C77.3265 92.9057 78.1355 90.8475 78.4481 88.6875H80.625C81.6942 88.6875 82.7195 88.2628 83.4756 87.5068C84.2316 86.7508 84.6563 85.7254 84.6563 84.6562V82.6406C84.6552 81.7038 84.3278 80.7966 83.7305 80.0749C83.1331 79.3532 82.303 78.8621 81.3829 78.686L84.0657 76.0032C84.4437 75.6253 84.6562 75.1127 84.6563 74.5781V72.5625C84.652 68.8218 83.1641 65.2355 80.519 62.5904C77.8739 59.9453 74.2876 58.4574 70.5469 58.4531H58.4532C54.7124 58.4574 51.1261 59.9453 48.481 62.5904C45.8359 65.2355 44.348 68.8218 44.3438 72.5625V74.5781C44.3439 75.1127 44.5563 75.6253 44.9344 76.0032L47.6172 78.686C46.697 78.8621 45.8669 79.3532 45.2696 80.0749C44.6722 80.7966 44.3449 81.7038 44.3438 82.6406V84.6562C44.3438 85.7254 44.7685 86.7508 45.5245 87.5068C46.2805 88.2628 47.3059 88.6875 48.375 88.6875H50.5519C50.8646 90.8475 51.6736 92.9057 52.9154 94.7004C54.1573 96.4952 55.7982 97.9777 57.7094 99.0317L57.0624 102.912C56.6543 102.771 56.2113 102.767 55.8006 102.9L49.8888 104.871C45.536 105.481 41.5527 107.65 38.6792 110.976C35.8056 114.302 34.2373 118.558 34.2656 122.953C34.2656 123.488 34.478 124 34.856 124.378C35.234 124.756 35.7467 124.969 36.2813 124.969H92.7188C93.2534 124.969 93.766 124.756 94.144 124.378C94.522 124 94.7344 123.488 94.7344 122.953C94.7628 118.558 93.1944 114.302 90.3209 110.976C87.4473 107.65 83.464 105.481 79.1113 104.871ZM80.625 84.6562H78.6094V82.6406H80.625V84.6562ZM48.375 72.5625C48.3782 69.8906 49.4411 67.329 51.3304 65.4397C53.2197 63.5504 55.7812 62.4876 58.4532 62.4844H70.5469C73.2188 62.4876 75.7804 63.5504 77.6697 65.4397C79.559 67.329 80.6218 69.8906 80.625 72.5625V73.7437L78.6094 75.7593V74.5781C78.6115 74.2018 78.5081 73.8325 78.3112 73.5119C78.1142 73.1913 77.8314 72.9323 77.4948 72.7641L69.4323 68.7328C69.0022 68.5185 68.5096 68.4649 68.0435 68.5816L51.9185 72.6129C51.4806 72.7221 51.092 72.9752 50.815 73.3315C50.5379 73.6878 50.3885 74.1268 50.3907 74.5781V75.7593L48.375 73.7437V72.5625ZM48.375 82.6406H50.3907V84.6562H48.375V82.6406ZM54.4219 86.6719V76.1523L68.2975 72.6834L74.5782 75.8238V86.6719C74.5782 89.3448 73.5164 91.9082 71.6263 93.7982C69.7363 95.6882 67.1729 96.75 64.5 96.75C61.8271 96.75 59.2637 95.6882 57.3737 93.7982C55.4837 91.9082 54.4219 89.3448 54.4219 86.6719ZM64.5 100.781C65.4893 100.781 66.4757 100.675 67.4428 100.467L68.3882 106.137L64.5 110.025L60.6119 106.137L61.5572 100.467C62.5243 100.675 63.5107 100.781 64.5 100.781ZM55.8913 107.118L63.075 114.3C63.453 114.678 63.9656 114.89 64.5 114.89C65.0345 114.89 65.5471 114.678 65.9251 114.3L73.1088 107.118L75.5436 107.925L67.4146 120.938H61.5854L53.4564 107.931L55.8913 107.118ZM49.4211 109.08L56.8407 120.938H38.436C38.826 118.071 40.0899 115.395 42.0556 113.273C44.0213 111.152 46.5932 109.687 49.4211 109.08ZM72.1594 120.938L79.5709 109.08C82.4002 109.686 84.9739 111.149 86.9412 113.271C88.9084 115.393 90.1735 118.07 90.5641 120.938H72.1594Z" fill="#FFC850"/>
<path d="M106.828 82.6406C105.233 82.6406 103.675 83.1135 102.349 83.9994C101.023 84.8853 99.9896 86.1445 99.3793 87.6177C98.7691 89.091 98.6094 90.7121 98.9205 92.276C99.2316 93.84 99.9995 95.2766 101.127 96.4042C102.255 97.5317 103.691 98.2996 105.255 98.6107C106.819 98.9218 108.44 98.7621 109.913 98.1519C111.387 97.5417 112.646 96.5083 113.532 95.1824C114.418 93.8565 114.891 92.2977 114.891 90.7031C114.891 88.5648 114.041 86.5141 112.529 85.0021C111.017 83.4901 108.966 82.6406 106.828 82.6406ZM106.828 94.7344C106.031 94.7344 105.251 94.4979 104.588 94.055C103.926 93.612 103.409 92.9824 103.104 92.2458C102.799 91.5092 102.719 90.6986 102.874 89.9167C103.03 89.1347 103.414 88.4164 103.978 87.8526C104.541 87.2888 105.26 86.9049 106.042 86.7493C106.824 86.5938 107.634 86.6736 108.371 86.9787C109.107 87.2838 109.737 87.8005 110.18 88.4635C110.623 89.1264 110.859 89.9058 110.859 90.7031C110.859 91.7723 110.435 92.7976 109.679 93.5536C108.923 94.3097 107.897 94.7344 106.828 94.7344Z" fill="#FFC850"/>
<path d="M123.437 84.7167L122.086 84.3741L122.812 83.1848C123.043 82.7998 123.138 82.3488 123.083 81.9034C123.029 81.4579 122.827 81.0435 122.51 80.7258L116.805 75.0216C116.485 74.7089 116.071 74.5099 115.627 74.4553C115.183 74.4007 114.733 74.4934 114.346 74.7192L113.157 75.4448L112.815 74.0944C112.707 73.6574 112.455 73.2691 112.101 72.9915C111.747 72.7139 111.31 72.5628 110.859 72.5625H102.797C102.347 72.5628 101.91 72.7139 101.555 72.9915C101.201 73.2691 100.95 73.6574 100.842 74.0944L100.499 75.4448L99.3098 74.7192C98.9234 74.4934 98.4735 74.4007 98.0293 74.4553C97.585 74.5099 97.171 74.7089 96.8508 75.0216L91.1466 80.7258C90.8296 81.0435 90.6277 81.4579 90.573 81.9034C90.5182 82.3488 90.6137 82.7998 90.8442 83.1848L91.5698 84.3741L90.2194 84.7167C89.7824 84.8248 89.3941 85.076 89.1165 85.4303C88.8389 85.7846 88.6879 86.2217 88.6875 86.6719V94.7344C88.6879 95.1845 88.8389 95.6216 89.1165 95.9759C89.3941 96.3303 89.7824 96.5815 90.2194 96.6895L91.5698 97.0322L90.8442 98.2214C90.6137 98.6065 90.5182 99.0574 90.573 99.5029C90.6277 99.9483 90.8296 100.363 91.1466 100.68L96.8508 106.385C97.171 106.697 97.585 106.896 98.0293 106.951C98.4735 107.006 98.9234 106.913 99.3098 106.687L100.499 105.961L100.842 107.312C100.95 107.749 101.201 108.137 101.555 108.415C101.91 108.692 102.347 108.843 102.797 108.844H110.859C111.31 108.843 111.747 108.692 112.101 108.415C112.455 108.137 112.707 107.749 112.815 107.312L113.157 105.961L114.346 106.687C114.733 106.913 115.183 107.006 115.627 106.951C116.071 106.896 116.485 106.697 116.805 106.385L122.51 100.68C122.827 100.363 123.029 99.9483 123.083 99.5029C123.138 99.0574 123.043 98.6065 122.812 98.2214L122.086 97.0322L123.437 96.6895C123.874 96.5815 124.262 96.3303 124.54 95.9759C124.817 95.6216 124.968 95.1845 124.969 94.7344V86.6719C124.968 86.2217 124.817 85.7846 124.54 85.4303C124.262 85.076 123.874 84.8248 123.437 84.7167ZM120.938 93.1622L118.478 93.7669C118.173 93.8452 117.891 93.9934 117.653 94.1998C117.415 94.4062 117.228 94.6651 117.108 94.9561C116.986 95.248 116.935 95.5647 116.959 95.8802C116.984 96.1956 117.083 96.5007 117.249 96.7702L118.539 98.947L115.072 102.414L112.895 101.104C112.622 100.946 112.317 100.853 112.002 100.832C111.688 100.811 111.372 100.862 111.081 100.983C110.79 101.103 110.531 101.29 110.325 101.528C110.118 101.766 109.97 102.048 109.892 102.353L109.287 104.812H104.369L103.764 102.353C103.686 102.048 103.538 101.766 103.331 101.528C103.125 101.29 102.866 101.103 102.575 100.983C102.284 100.862 101.969 100.811 101.654 100.832C101.339 100.853 101.034 100.946 100.761 101.104L98.5842 102.414L95.1173 98.947L96.4074 96.7702C96.5731 96.5007 96.6724 96.1956 96.6969 95.8802C96.7215 95.5647 96.6706 95.248 96.5484 94.9561C96.4279 94.6651 96.2413 94.4062 96.0034 94.1998C95.7655 93.9934 95.4829 93.8452 95.1778 93.7669L92.7188 93.1622V88.2441L95.1778 87.6394C95.4829 87.5611 95.7655 87.4129 96.0034 87.2065C96.2413 87.0001 96.4279 86.7411 96.5484 86.4502C96.6706 86.1583 96.7215 85.8415 96.6969 85.5261C96.6724 85.2106 96.5731 84.9056 96.4074 84.6361L95.1173 82.4592L98.5842 78.9923L100.761 80.2823C101.031 80.4481 101.336 80.5474 101.651 80.5719C101.967 80.5965 102.283 80.5456 102.575 80.4234C102.866 80.3029 103.125 80.1163 103.331 79.8784C103.538 79.6405 103.686 79.3579 103.764 79.0528L104.369 76.5938H109.287L109.892 79.0528C109.97 79.3579 110.118 79.6405 110.325 79.8784C110.531 80.1163 110.79 80.3029 111.081 80.4234C111.373 80.5456 111.69 80.5965 112.005 80.5719C112.321 80.5474 112.626 80.4481 112.895 80.2823L115.072 78.9923L118.539 82.4592L117.249 84.6361C117.083 84.9056 116.984 85.2106 116.959 85.5261C116.935 85.8415 116.986 86.1583 117.108 86.4502C117.228 86.7411 117.415 87.0001 117.653 87.2065C117.891 87.4129 118.173 87.5611 118.478 87.6394L120.938 88.2441V93.1622Z" fill="#FFC850"/>
<path d="M22.1719 82.6406C20.5773 82.6406 19.0185 83.1135 17.6926 83.9994C16.3667 84.8853 15.3333 86.1445 14.7231 87.6177C14.1129 89.091 13.9532 90.7121 14.2643 92.276C14.5754 93.84 15.3433 95.2766 16.4708 96.4042C17.5984 97.5317 19.035 98.2996 20.5989 98.6107C22.1629 98.9218 23.784 98.7621 25.2572 98.1519C26.7305 97.5417 27.9897 96.5083 28.8756 95.1824C29.7615 93.8565 30.2344 92.2977 30.2344 90.7031C30.2344 88.5648 29.3849 86.5141 27.8729 85.0021C26.3609 83.4901 24.3102 82.6406 22.1719 82.6406ZM22.1719 94.7344C21.3746 94.7344 20.5952 94.4979 19.9322 94.055C19.2693 93.612 18.7526 92.9824 18.4475 92.2458C18.1424 91.5092 18.0625 90.6986 18.2181 89.9167C18.3736 89.1347 18.7576 88.4164 19.3213 87.8526C19.8851 87.2888 20.6034 86.9049 21.3854 86.7493C22.1674 86.5938 22.9779 86.6736 23.7146 86.9787C24.4512 87.2838 25.0808 87.8005 25.5237 88.4635C25.9667 89.1264 26.2031 89.9058 26.2031 90.7031C26.2031 91.7723 25.7784 92.7976 25.0224 93.5536C24.2664 94.3097 23.241 94.7344 22.1719 94.7344Z" fill="#FFC850"/>
<path d="M38.7806 84.7167L37.4302 84.3741L38.1558 83.1848C38.3863 82.7998 38.4818 82.3488 38.427 81.9034C38.3723 81.4579 38.1704 81.0435 37.8534 80.7258L32.1492 75.0216C31.829 74.7089 31.415 74.5099 30.9707 74.4553C30.5265 74.4007 30.0766 74.4934 29.6902 74.7192L28.5009 75.4448L28.1583 74.0944C28.0502 73.6574 27.799 73.2691 27.4447 72.9915C27.0904 72.7139 26.6533 72.5628 26.2031 72.5625H18.1406C17.6905 72.5628 17.2534 72.7139 16.8991 72.9915C16.5447 73.2691 16.2935 73.6574 16.1855 74.0944L15.8428 75.4448L14.6536 74.7192C14.2671 74.4934 13.8173 74.4007 13.373 74.4553C12.9288 74.5099 12.5148 74.7089 12.1945 75.0216L6.49031 80.7258C6.17334 81.0435 5.97148 81.4579 5.91671 81.9034C5.86194 82.3488 5.95741 82.7998 6.18797 83.1848L6.91359 84.3741L5.56313 84.7167C5.12613 84.8248 4.73788 85.076 4.46025 85.4303C4.18262 85.7846 4.0316 86.2217 4.03125 86.6719V94.7344C4.0316 95.1845 4.18262 95.6216 4.46025 95.9759C4.73788 96.3303 5.12613 96.5815 5.56313 96.6895L6.91359 97.0322L6.18797 98.2214C5.95741 98.6065 5.86194 99.0574 5.91671 99.5029C5.97148 99.9483 6.17334 100.363 6.49031 100.68L12.1945 106.385C12.5148 106.697 12.9288 106.896 13.373 106.951C13.8173 107.006 14.2671 106.913 14.6536 106.687L15.8428 105.961L16.1855 107.312C16.2935 107.749 16.5447 108.137 16.8991 108.415C17.2534 108.692 17.6905 108.843 18.1406 108.844H26.2031C26.6533 108.843 27.0904 108.692 27.4447 108.415C27.799 108.137 28.0502 107.749 28.1583 107.312L28.5009 105.961L29.6902 106.687C30.0766 106.913 30.5265 107.006 30.9707 106.951C31.415 106.896 31.829 106.697 32.1492 106.385L37.8534 100.68C38.1704 100.363 38.3723 99.9483 38.427 99.5029C38.4818 99.0574 38.3863 98.6065 38.1558 98.2214L37.4302 97.0322L38.7806 96.6895C39.2176 96.5815 39.6059 96.3303 39.8835 95.9759C40.1611 95.6216 40.3122 95.1845 40.3125 94.7344V86.6719C40.3122 86.2217 40.1611 85.7846 39.8835 85.4303C39.6059 85.076 39.2176 84.8248 38.7806 84.7167ZM36.2812 93.1622L33.8222 93.7669C33.5171 93.8452 33.2345 93.9934 32.9966 94.1998C32.7587 94.4062 32.5721 94.6651 32.4516 94.9561C32.3294 95.248 32.2785 95.5647 32.3031 95.8802C32.3276 96.1956 32.4269 96.5007 32.5927 96.7702L33.8827 98.947L30.4158 102.414L28.2389 101.104C27.9661 100.946 27.6606 100.853 27.346 100.832C27.0314 100.811 26.7162 100.862 26.4248 100.983C26.1339 101.103 25.8749 101.29 25.6685 101.528C25.4621 101.766 25.3139 102.048 25.2356 102.353L24.6309 104.812H19.7128L19.1081 102.353C19.0298 102.048 18.8816 101.766 18.6752 101.528C18.4688 101.29 18.2099 101.103 17.9189 100.983C17.6275 100.862 17.3123 100.811 16.9978 100.832C16.6832 100.853 16.3777 100.946 16.1048 101.104L13.928 102.414L10.4611 98.947L11.7511 96.7702C11.9169 96.5007 12.0162 96.1956 12.0407 95.8802C12.0652 95.5647 12.0143 95.248 11.8922 94.9561C11.7717 94.6651 11.5851 94.4062 11.3472 94.1998C11.1093 93.9934 10.8266 93.8452 10.5216 93.7669L8.0625 93.1622V88.2441L10.5216 87.6394C10.8266 87.5611 11.1093 87.4129 11.3472 87.2065C11.5851 87.0001 11.7717 86.7411 11.8922 86.4502C12.0143 86.1583 12.0652 85.8415 12.0407 85.5261C12.0162 85.2106 11.9169 84.9056 11.7511 84.6361L10.4611 82.4592L13.928 78.9923L16.1048 80.2823C16.3743 80.4481 16.6794 80.5474 16.9948 80.5719C17.3103 80.5965 17.627 80.5456 17.9189 80.4234C18.2099 80.3029 18.4688 80.1163 18.6752 79.8784C18.8816 79.6405 19.0298 79.3579 19.1081 79.0528L19.7128 76.5938H24.6309L25.2356 79.0528C25.3139 79.3579 25.4621 79.6405 25.6685 79.8784C25.8749 80.1163 26.1339 80.3029 26.4248 80.4234C26.7167 80.5456 27.0335 80.5965 27.3489 80.5719C27.6644 80.5474 27.9694 80.4481 28.2389 80.2823L30.4158 78.9923L33.8827 82.4592L32.5927 84.6361C32.4269 84.9056 32.3276 85.2106 32.3031 85.5261C32.2785 85.8415 32.3294 86.1583 32.4516 86.4502C32.5721 86.7411 32.7587 87.0001 32.9966 87.2065C33.2345 87.4129 33.5171 87.5611 33.8222 87.6394L36.2812 88.2441V93.1622Z" fill="#FFC850"/>
<path d="M55.0266 29.2829L51.086 41.4109C50.9544 41.8157 50.9544 42.2519 51.0859 42.6568C51.2175 43.0617 51.4738 43.4145 51.8183 43.6647C52.1627 43.9149 52.5775 44.0496 53.0032 44.0496C53.4289 44.0495 53.8437 43.9147 54.1881 43.6643L64.5 36.1682L74.816 43.6643C75.1603 43.9147 75.5751 44.0495 76.0008 44.0496C76.4265 44.0496 76.8413 43.9149 77.1858 43.6647C77.5302 43.4145 77.7866 43.0617 77.9181 42.6568C78.0496 42.2519 78.0496 41.8157 77.918 41.4109L73.9734 29.2829L84.2914 21.7868C84.6355 21.5367 84.8917 21.1843 85.0233 20.7798C85.1549 20.3753 85.1552 19.9396 85.0242 19.5349C84.8931 19.1303 84.6373 18.7775 84.2936 18.527C83.9498 18.2766 83.5356 18.1413 83.1103 18.1405H70.3574L66.4169 6.01247C66.2843 5.6092 66.0278 5.25808 65.684 5.00916C65.3402 4.76024 64.9265 4.62622 64.502 4.62622C64.0775 4.62622 63.6639 4.76024 63.32 5.00916C62.9762 5.25808 62.7197 5.6092 62.5872 6.01247L58.6426 18.1405H45.8897C45.4641 18.1404 45.0493 18.2751 44.7048 18.5253C44.3604 18.7754 44.104 19.1282 43.9724 19.533C43.8409 19.9379 43.8408 20.374 43.9723 20.7788C44.1039 21.1837 44.3602 21.5365 44.7046 21.7868L55.0266 29.2829ZM60.1059 22.1717C60.5316 22.1717 60.9463 22.0369 61.2906 21.7867C61.635 21.5365 61.8913 21.1838 62.0228 20.7789L64.5 13.1579L66.9772 20.7789C67.1087 21.1838 67.365 21.5365 67.7094 21.7867C68.0537 22.0369 68.4684 22.1717 68.8941 22.1717H76.9062L70.4219 26.8822C70.0777 27.1325 69.8215 27.4853 69.69 27.8901C69.5586 28.2949 69.5587 28.731 69.6902 29.1357L72.1594 36.7568L65.6852 32.0483C65.3407 31.7979 64.9258 31.663 64.5 31.663C64.0742 31.663 63.6593 31.7979 63.3148 32.0483L56.8406 36.7568L59.3178 29.1357C59.4494 28.731 59.4495 28.2949 59.318 27.8901C59.1866 27.4853 58.9304 27.1325 58.5862 26.8822L52.0938 22.1717H60.1059Z" fill="#054074"/>
<path d="M84.2834 41.7052C84.152 42.1101 84.1522 42.5463 84.284 42.9511C84.4158 43.3559 84.6724 43.7086 85.0171 43.9586L95.3391 51.4547L91.3985 63.5827C91.2669 63.9876 91.2669 64.4237 91.3984 64.8286C91.53 65.2335 91.7863 65.5864 92.1308 65.8366C92.4752 66.0868 92.89 66.2215 93.3157 66.2214C93.7414 66.2214 94.1562 66.0865 94.5006 65.8362L104.813 58.3401L115.128 65.8362C115.473 66.0865 115.888 66.2214 116.313 66.2214C116.739 66.2215 117.154 66.0868 117.498 65.8366C117.843 65.5864 118.099 65.2335 118.231 64.8286C118.362 64.4237 118.362 63.9876 118.231 63.5827L114.286 51.4547L124.604 43.9586C124.948 43.7086 125.204 43.3561 125.336 42.9517C125.467 42.5472 125.468 42.1115 125.337 41.7068C125.206 41.3022 124.95 40.9494 124.606 40.6989C124.262 40.4484 123.848 40.3131 123.423 40.3124H110.67L106.729 28.1843C106.597 27.7811 106.34 27.43 105.997 27.181C105.653 26.9321 105.239 26.7981 104.815 26.7981C104.39 26.7981 103.976 26.9321 103.633 27.181C103.289 27.43 103.032 27.7811 102.9 28.1843L98.9551 40.3124H86.2022C85.7762 40.312 85.3611 40.4465 85.0163 40.6968C84.6716 40.947 84.415 41.3 84.2834 41.7052ZM100.418 44.3436C100.844 44.3436 101.259 44.2088 101.603 43.9586C101.947 43.7084 102.204 43.3556 102.335 42.9508L104.813 35.3297L107.29 42.9508C107.421 43.3556 107.678 43.7084 108.022 43.9586C108.366 44.2088 108.781 44.3436 109.207 44.3436H117.219L110.734 49.0541C110.39 49.3044 110.134 49.6572 110.003 50.062C109.871 50.4668 109.871 50.9028 110.003 51.3076L112.472 58.9287L105.998 54.2202C105.653 53.9698 105.238 53.8349 104.813 53.8349C104.387 53.8349 103.972 53.9698 103.627 54.2202L97.1531 58.9287L99.6303 51.3076C99.7619 50.9028 99.762 50.4668 99.6306 50.062C99.4991 49.6572 99.2429 49.3044 98.8987 49.0541L92.4063 44.3436H100.418Z" fill="#054074"/>
<path d="M14.7141 51.4547L10.7695 63.5827C10.6379 63.9876 10.6379 64.4237 10.7694 64.8286C10.901 65.2335 11.1573 65.5864 11.5017 65.8366C11.8462 66.0868 12.261 66.2215 12.6867 66.2214C13.1124 66.2214 13.5272 66.0865 13.8715 65.8362L24.1875 58.3401L34.5035 65.8362C34.8478 66.0865 35.2626 66.2214 35.6883 66.2214C36.114 66.2215 36.5288 66.0868 36.8733 65.8366C37.2177 65.5864 37.4741 65.2335 37.6056 64.8286C37.7371 64.4237 37.7371 63.9876 37.6055 63.5827L33.6609 51.4547L43.9789 43.9586C44.323 43.7086 44.5792 43.3561 44.7108 42.9517C44.8424 42.5472 44.8427 42.1115 44.7117 41.7068C44.5806 41.3022 44.3249 40.9494 43.9811 40.6989C43.6373 40.4484 43.2231 40.3131 42.7978 40.3124H30.0449L26.1044 28.1843C25.9718 27.7811 25.7153 27.43 25.3715 27.181C25.0277 26.9321 24.614 26.7981 24.1895 26.7981C23.765 26.7981 23.3514 26.9321 23.0075 27.181C22.6637 27.43 22.4072 27.7811 22.2747 28.1843L18.3301 40.3124H5.57724C5.15155 40.3123 4.73677 40.447 4.39235 40.6971C4.04792 40.9473 3.79154 41.3001 3.65995 41.7049C3.52836 42.1097 3.52832 42.5458 3.65984 42.9507C3.79135 43.3556 4.04767 43.7084 4.39205 43.9586L14.7141 51.4547ZM19.7934 44.3436C20.2191 44.3436 20.6338 44.2088 20.9781 43.9586C21.3225 43.7084 21.5788 43.3556 21.7103 42.9508L24.1875 35.3297L26.6647 42.9508C26.7962 43.3556 27.0525 43.7084 27.3969 43.9586C27.7412 44.2088 28.1559 44.3436 28.5816 44.3436H36.5937L30.1094 49.0541C29.7652 49.3044 29.509 49.6572 29.3775 50.062C29.2461 50.4668 29.2462 50.9028 29.3777 51.3076L31.8469 58.9287L25.3727 54.2202C25.0282 53.9698 24.6133 53.8349 24.1875 53.8349C23.7617 53.8349 23.3468 53.9698 23.0023 54.2202L16.5281 58.9287L19.0053 51.3076C19.1369 50.9028 19.137 50.4668 19.0056 50.062C18.8741 49.6572 18.6179 49.3044 18.2737 49.0541L11.7813 44.3436H19.7934Z" fill="#054074"/>
<path d="M24.1875 112.875H20.1562V120.938C20.1562 121.472 20.3686 121.985 20.7466 122.363C21.1246 122.741 21.6373 122.953 22.1719 122.953H30.2344V118.922H24.1875V112.875Z" fill="#054074"/>
<path d="M104.813 118.922H98.7656V122.953H106.828C107.363 122.953 107.875 122.741 108.253 122.363C108.631 121.985 108.844 121.472 108.844 120.938V112.875H104.813V118.922Z" fill="#054074"/>
</svg>
