<svg width="137" height="137" viewBox="0 0 137 137" fill="none" xmlns="http://www.w3.org/2000/svg">
<path d="M134.016 29.6503C132.946 27.2253 131.076 25.2409 128.719 24.0279C126.362 22.8149 123.66 22.4468 121.064 22.9849C118.468 23.523 116.136 24.9348 114.455 26.9848C112.774 29.0349 111.848 31.5991 111.829 34.2499H4.28125C3.71352 34.2499 3.16904 34.4755 2.7676 34.8769C2.36615 35.2784 2.14063 35.8228 2.14062 36.3906V100.609C2.14063 101.177 2.36615 101.722 2.7676 102.123C3.16904 102.524 3.71352 102.75 4.28125 102.75H13.8284C15.1954 107.095 17.9127 110.891 21.5854 113.586C25.2581 116.281 29.6947 117.734 34.25 117.734C38.8053 117.734 43.2419 116.281 46.9146 113.586C50.5873 110.891 53.3046 107.095 54.6716 102.75H132.719C133.286 102.75 133.831 102.524 134.232 102.123C134.634 101.722 134.859 101.177 134.859 100.609V38.4081C134.86 38.0457 134.768 37.6893 134.592 37.3726C135.296 34.8091 135.092 32.0812 134.016 29.6503ZM34.25 113.453C30.0809 113.448 26.0566 111.923 22.9302 109.165C19.8038 106.407 17.7894 102.605 17.2641 98.4687H33.2466L43.3075 110.542C43.3649 110.61 43.4266 110.674 43.4921 110.734C40.7374 112.511 37.5282 113.455 34.25 113.453ZM17.2641 94.1874C17.6104 91.4265 18.6247 88.7917 20.219 86.5112C21.8134 84.2307 23.9397 82.3733 26.4138 81.1C28.888 79.8267 31.6353 79.1758 34.4177 79.2039C37.2001 79.2319 39.9337 79.9379 42.3817 81.2607L33.1476 94.1874H17.2641ZM46.7512 108.013C46.7053 107.939 46.6543 107.869 46.5987 107.802L36.9525 96.2264L45.8602 83.7546C47.521 85.2831 48.8625 87.1256 49.8071 89.1756C50.7517 91.2256 51.2807 93.4425 51.3635 95.6981C51.4464 97.9538 51.0814 100.203 50.2898 102.317C49.4981 104.431 48.2954 106.367 46.7512 108.013ZM130.578 98.4687H55.5492C55.6188 97.765 55.6562 97.0505 55.6562 96.3281C55.6562 90.6508 53.401 85.206 49.3865 81.1916C45.372 77.1771 39.9273 74.9218 34.25 74.9218C28.5727 74.9218 23.1279 77.1771 19.1135 81.1916C15.099 85.206 12.8437 90.6508 12.8437 96.3281C12.8437 97.0505 12.8812 97.765 12.9508 98.4687H6.42187V38.5312H112.613C112.674 38.6944 112.741 38.8576 112.814 39.0182C113.605 40.8212 114.846 42.391 116.418 43.5777L112.798 52.9322C111.575 52.4918 110.247 52.4341 108.991 52.7668C107.735 53.0994 106.61 53.8068 105.766 54.7946C105.765 54.7946 105.764 54.7943 105.764 54.7938C105.763 54.7933 105.763 54.7926 105.763 54.7919L94.4738 50.4224C94.5111 49.0948 94.1365 47.7882 93.4016 46.682C92.6667 45.5758 91.6074 44.7242 90.3692 44.244C88.9564 43.6959 87.3954 43.6652 85.9622 44.1573C84.529 44.6494 83.316 45.6325 82.5379 46.9328C81.7598 48.2331 81.4667 49.7667 81.7104 51.2623C81.9541 52.7578 82.719 54.119 83.8697 55.105L79.5001 66.3968C77.9752 66.3452 76.4812 66.8348 75.2827 67.779C74.0841 68.7231 73.2583 70.0609 72.9514 71.5555C72.6445 73.0501 72.8763 74.6051 73.6058 75.9452C74.3354 77.2853 75.5155 78.324 76.9374 78.8775C78.3592 79.431 79.9311 79.4635 81.3746 78.9693C82.8182 78.4751 84.0403 77.4861 84.8246 76.1773C85.609 74.8686 85.9049 73.3245 85.6601 71.8185C85.4153 70.3125 84.6455 68.9417 83.487 67.9487C83.4897 67.9461 83.4897 67.9461 83.4897 67.9434L87.8619 56.6516V56.6462C87.9288 56.6489 87.9931 56.6543 88.06 56.6543C88.9838 56.6537 89.8965 56.4529 90.7354 56.0658C91.5742 55.6787 92.3193 55.1145 92.9192 54.412C92.9218 54.412 92.9218 54.4146 92.9245 54.4146L104.214 58.7842C104.185 59.7479 104.374 60.7056 104.766 61.5864C105.158 62.4672 105.744 63.2484 106.479 63.8721C107.214 64.4958 108.08 64.946 109.013 65.1894C109.946 65.4328 110.922 65.463 111.868 65.278C112.814 65.0929 113.707 64.6972 114.479 64.1202C115.252 63.5433 115.884 62.7999 116.33 61.9451C116.776 61.0904 117.024 60.1462 117.055 59.1826C117.087 58.2189 116.901 57.2606 116.512 56.3787C116.431 56.202 116.346 56.0308 116.252 55.8649L120.268 45.4909C122.863 46.2286 125.634 46.0317 128.098 44.9343C128.984 44.5453 129.818 44.0454 130.578 43.4466V98.4687ZM111.502 60.9328C111.244 61.0532 110.965 61.1208 110.68 61.1318C110.396 61.1428 110.112 61.097 109.846 60.9969C109.579 60.8969 109.335 60.7447 109.128 60.5492C108.921 60.3538 108.755 60.119 108.64 59.8586C108.525 59.5982 108.463 59.3175 108.457 59.0328C108.452 58.7481 108.504 58.4653 108.609 58.2008C108.714 57.9363 108.871 57.6954 109.071 57.4924C109.271 57.2893 109.509 57.1281 109.771 57.0182C110.042 56.8964 110.336 56.8334 110.633 56.8335C111.124 56.8322 111.602 57 111.984 57.309C112.366 57.6179 112.631 58.049 112.733 58.5299C112.835 59.0108 112.768 59.5122 112.544 59.9498C112.32 60.3874 111.952 60.7345 111.502 60.9328ZM90.0481 51.0057C89.9207 51.3336 89.7144 51.6251 89.4476 51.8543C89.1807 52.0836 88.8615 52.2435 88.5181 52.32C88.1747 52.3965 87.8177 52.3872 87.4788 52.2928C87.1399 52.1985 86.8294 52.0221 86.5749 51.7793C86.3204 51.5364 86.1296 51.2346 86.0196 50.9004C85.9095 50.5663 85.8834 50.2102 85.9438 49.8636C86.0041 49.517 86.1489 49.1906 86.3654 48.9133C86.5819 48.636 86.8634 48.4163 87.185 48.2737C87.4575 48.1544 87.7517 48.0925 88.0492 48.0918C88.3137 48.0917 88.5759 48.1407 88.8226 48.2362C89.3518 48.4416 89.778 48.8485 90.0078 49.3676C90.2375 49.8868 90.252 50.4759 90.0481 51.0057ZM80.1744 74.7747C79.8831 74.9031 79.5667 74.965 79.2484 74.9557C78.9302 74.9464 78.6179 74.8662 78.3346 74.721C78.0512 74.5758 77.8038 74.3692 77.6103 74.1163C77.4169 73.8633 77.2824 73.5704 77.2165 73.2589C77.1506 72.9474 77.155 72.6251 77.2295 72.3155C77.3039 72.0059 77.4465 71.7168 77.6469 71.4693C77.8472 71.2218 78.1002 71.0221 78.3875 70.8847C78.6748 70.7474 78.9891 70.6758 79.3075 70.6754C79.5722 70.6752 79.8346 70.7251 80.0808 70.8225C80.4756 70.975 80.8163 71.2411 81.0598 71.5873C81.3033 71.9335 81.4387 72.3441 81.4487 72.7673C81.4587 73.1904 81.343 73.607 81.1162 73.9643C80.8893 74.3217 80.5616 74.6037 80.1744 74.7747ZM126.369 41.0197C125.047 41.6047 123.58 41.7844 122.156 41.536C120.731 41.2876 119.412 40.6223 118.366 39.6242C117.319 38.6261 116.592 37.34 116.277 35.9287C115.962 34.5174 116.072 33.0443 116.594 31.6957C117.116 30.347 118.026 29.1835 119.209 28.3522C120.392 27.5209 121.796 27.0593 123.241 27.0257C124.687 26.992 126.11 27.3879 127.331 28.1633C128.552 28.9386 129.515 30.0586 130.099 31.3815C130.493 32.2584 130.709 33.2048 130.734 34.1657C130.76 35.1267 130.594 36.0831 130.247 36.9796C129.9 37.8761 129.379 38.6949 128.713 39.3884C128.047 40.0819 127.251 40.6363 126.369 41.0197Z" fill="#054074"/>
<path d="M126.297 79.2031H104.891C104.323 79.2031 103.778 79.4287 103.377 79.8301C102.976 80.2315 102.75 80.776 102.75 81.3438C102.75 81.9115 102.976 82.456 103.377 82.8574C103.778 83.2588 104.323 83.4844 104.891 83.4844H126.297C126.865 83.4844 127.409 83.2588 127.811 82.8574C128.212 82.456 128.438 81.9115 128.438 81.3438C128.438 80.776 128.212 80.2315 127.811 79.8301C127.409 79.4287 126.865 79.2031 126.297 79.2031Z" fill="#FFC850"/>
<path d="M126.297 85.625H111.312C110.745 85.625 110.2 85.8505 109.799 86.252C109.397 86.6534 109.172 87.1979 109.172 87.7656C109.172 88.3334 109.397 88.8778 109.799 89.2793C110.2 89.6807 110.745 89.9062 111.312 89.9062H126.297C126.865 89.9062 127.409 89.6807 127.811 89.2793C128.212 88.8778 128.438 88.3334 128.438 87.7656C128.438 87.1979 128.212 86.6534 127.811 86.252C127.409 85.8505 126.865 85.625 126.297 85.625Z" fill="#FFC850"/>
<path d="M126.297 92.0469H122.016C121.448 92.0469 120.903 92.2724 120.502 92.6738C120.101 93.0753 119.875 93.6198 119.875 94.1875C119.875 94.7552 120.101 95.2997 120.502 95.7012C120.903 96.1026 121.448 96.3281 122.016 96.3281H126.297C126.865 96.3281 127.409 96.1026 127.811 95.7012C128.212 95.2997 128.438 94.7552 128.438 94.1875C128.438 93.6198 128.212 93.0753 127.811 92.6738C127.409 92.2724 126.865 92.0469 126.297 92.0469Z" fill="#FFC850"/>
<path d="M115.594 92.0469H113.453C112.885 92.0469 112.341 92.2724 111.939 92.6738C111.538 93.0753 111.312 93.6198 111.312 94.1875C111.312 94.7552 111.538 95.2997 111.939 95.7012C112.341 96.1026 112.885 96.3281 113.453 96.3281H115.594C116.161 96.3281 116.706 96.1026 117.107 95.7012C117.509 95.2997 117.734 94.7552 117.734 94.1875C117.734 93.6198 117.509 93.0753 117.107 92.6738C116.706 92.2724 116.161 92.0469 115.594 92.0469Z" fill="#FFC850"/>
<path d="M68.5 66.3781V49.2344C68.5 48.6666 68.2745 48.1222 67.873 47.7207C67.4716 47.3193 66.9271 47.0938 66.3594 47.0938H57.7969C57.2291 47.0938 56.6847 47.3193 56.2832 47.7207C55.8818 48.1222 55.6562 48.6666 55.6562 49.2344V66.3594H53.5156V44.9531C53.5156 44.3854 53.2901 43.8409 52.8886 43.4395C52.4872 43.038 51.9427 42.8125 51.375 42.8125H42.8125C42.2448 42.8125 41.7003 43.038 41.2988 43.4395C40.8974 43.8409 40.6719 44.3854 40.6719 44.9531V66.3594H38.5312V59.9375C38.5312 59.3698 38.3057 58.8253 37.9043 58.4238C37.5028 58.0224 36.9583 57.7969 36.3906 57.7969H27.8281C27.2604 57.7969 26.7159 58.0224 26.3145 58.4238C25.913 58.8253 25.6875 59.3698 25.6875 59.9375V66.3594H23.5469V49.2344C23.5469 48.6666 23.3213 48.1222 22.9199 47.7207C22.5185 47.3193 21.974 47.0938 21.4062 47.0938H12.8437C12.276 47.0938 11.7315 47.3193 11.3301 47.7207C10.9287 48.1222 10.7031 48.6666 10.7031 49.2344V66.3594C10.1354 66.3594 9.59092 66.5849 9.18947 66.9863C8.78803 67.3878 8.5625 67.9323 8.5625 68.5C8.5625 69.0677 8.78803 69.6122 9.18947 70.0137C9.59092 70.4151 10.1354 70.6406 10.7031 70.6406H68.2324C68.7744 70.6369 69.2948 70.4278 69.6886 70.0554C70.0824 69.683 70.3203 69.1751 70.3542 68.6342C70.3882 68.0932 70.2157 67.5596 69.8715 67.1409C69.5274 66.7221 69.0372 66.4496 68.5 66.3781ZM19.2656 66.3594H14.9844V51.375H19.2656V66.3594ZM34.25 66.3594H29.9687V62.0781H34.25V66.3594ZM49.2344 66.3594H44.9531V47.0938H49.2344V66.3594ZM64.2187 66.3594H59.9375V51.375H64.2187V66.3594Z" fill="#FFC850"/>
<path d="M85.625 85.625H59.9375C59.3698 85.625 58.8253 85.8505 58.4238 86.252C58.0224 86.6534 57.7969 87.1979 57.7969 87.7656V94.1875C57.7969 94.7552 58.0224 95.2997 58.4238 95.7012C58.8253 96.1026 59.3698 96.3281 59.9375 96.3281H85.625C86.1927 96.3281 86.7372 96.1026 87.1387 95.7012C87.5401 95.2997 87.7656 94.7552 87.7656 94.1875V87.7656C87.7656 87.1979 87.5401 86.6534 87.1387 86.252C86.7372 85.8505 86.1927 85.625 85.625 85.625ZM83.4844 92.0469H62.0781V89.9062H83.4844V92.0469Z" fill="#FFDC64"/>
</svg>
