<svg width="129" height="129" viewBox="0 0 129 129" fill="none" xmlns="http://www.w3.org/2000/svg">
<path d="M104.521 66.3896H110.139C111.018 70.7396 114.87 74.0251 119.475 74.0251C124.727 74.0251 129 69.7522 129 64.5C129 59.2478 124.727 54.9749 119.475 54.9749C114.87 54.9749 111.018 58.2604 110.139 62.6104H104.521C104.072 52.985 100.212 44.2362 94.1226 37.5496L104.242 27.4304C106.234 28.8809 108.683 29.7398 111.331 29.7398C117.986 29.7398 123.401 24.3251 123.401 17.6695C123.401 11.0139 117.986 5.59941 111.331 5.59941C104.675 5.59941 99.2605 11.0141 99.2605 17.6695C99.2605 20.3167 100.119 22.766 101.57 24.7579L91.4504 34.8771C84.7638 28.7884 76.015 24.9282 66.3896 24.4793V18.8612C70.7396 17.9821 74.0251 14.1303 74.0251 9.52509C74.0251 4.27287 69.7522 0 64.5 0C59.2478 0 54.9749 4.27287 54.9749 9.52509C54.9749 14.1303 58.2604 17.9821 62.6104 18.8612V24.479C52.985 24.9282 44.2362 28.7882 37.5496 34.8769L27.4309 24.7584C28.8816 22.7662 29.7405 20.3167 29.7405 17.6695C29.7405 13.6503 27.7499 9.90755 24.4155 7.65761C23.5498 7.07409 22.3755 7.30185 21.7922 8.16706C21.2084 9.03227 21.4364 10.2066 22.3014 10.7904C24.5931 12.3366 25.961 14.9083 25.961 17.6695C25.961 22.2414 22.2412 25.9613 17.6692 25.9613C13.0973 25.9613 9.3777 22.2414 9.3777 17.6695C9.3777 13.9774 11.8557 10.6957 15.4037 9.68911C16.4077 9.40415 16.9907 8.3593 16.7058 7.35527C16.4208 6.35123 15.3754 5.76897 14.3722 6.05317C9.20611 7.51904 5.5984 12.2958 5.5984 17.6695C5.5984 24.3256 11.0134 29.7405 17.6695 29.7405C20.317 29.7405 22.7665 28.8816 24.7584 27.4309L34.8771 37.5493C28.7882 44.2359 24.9282 52.9847 24.479 62.6101H18.8612C17.9821 58.2601 14.1303 54.9747 9.52509 54.9747C4.27287 54.9749 0 59.2478 0 64.5C0 69.7522 4.27287 74.0251 9.52509 74.0251C14.1303 74.0251 17.9821 70.7396 18.8612 66.3896H24.4793C24.9285 76.015 28.7884 84.7638 34.8774 91.4504L24.7579 101.57C22.766 100.119 20.3167 99.2602 17.6695 99.2602C11.0139 99.2602 5.59941 104.675 5.59941 111.331C5.59941 117.986 11.0139 123.401 17.6695 123.401C24.3251 123.401 29.7395 117.986 29.7395 111.331C29.7395 108.683 28.8809 106.234 27.4301 104.242L37.5496 94.1229C44.2362 100.212 52.985 104.072 62.6104 104.521V110.139C58.2604 111.018 54.9749 114.869 54.9749 119.475C54.9749 124.727 59.2478 129 64.5 129C69.7522 129 74.0251 124.727 74.0251 119.475C74.0251 114.87 70.7396 111.018 66.3896 110.139V104.521C76.015 104.072 84.7638 100.212 91.4504 94.1231L101.569 104.242C100.118 106.234 99.2595 108.683 99.2595 111.331C99.2595 117.986 104.674 123.402 111.331 123.402C117.987 123.402 123.402 117.987 123.402 111.331C123.402 110.024 123.193 108.737 122.783 107.505C122.453 106.515 121.382 105.98 120.393 106.31C119.403 106.64 118.868 107.71 119.198 108.7C119.479 109.546 119.623 110.431 119.623 111.33C119.623 115.902 115.903 119.622 111.331 119.622C106.759 119.622 103.039 115.902 103.039 111.33C103.039 106.758 106.759 103.039 111.331 103.039C112.377 103.039 113.398 103.231 114.364 103.611C115.334 103.992 116.432 103.514 116.814 102.543C117.195 101.572 116.717 100.475 115.746 100.093C114.338 99.5399 112.853 99.2592 111.331 99.2592C108.684 99.2592 106.234 100.118 104.242 101.569L94.1234 91.4504C100.212 84.7638 104.072 76.015 104.521 66.3896ZM119.475 58.7542C122.643 58.7542 125.221 61.3317 125.221 64.5C125.221 67.6683 122.643 70.2458 119.475 70.2458C116.307 70.2458 113.729 67.6683 113.729 64.5C113.729 61.3317 116.307 58.7542 119.475 58.7542ZM111.331 9.3787C115.902 9.3787 119.621 13.098 119.621 17.6695C119.621 22.2412 115.902 25.9605 111.331 25.9605C106.759 25.9605 103.04 22.2412 103.04 17.6695C103.04 13.0978 106.759 9.3787 111.331 9.3787ZM58.7542 9.52509C58.7542 6.35678 61.3319 3.7793 64.5 3.7793C67.6681 3.7793 70.2458 6.35678 70.2458 9.52509C70.2458 12.6934 67.6681 15.2709 64.5 15.2709C61.3319 15.2709 58.7542 12.6931 58.7542 9.52509ZM9.52509 70.2458C6.35678 70.2458 3.7793 67.6683 3.7793 64.5C3.7793 61.3317 6.35678 58.7542 9.52509 58.7542C12.6934 58.7542 15.2706 61.3317 15.2706 64.5C15.2706 67.6683 12.6931 70.2458 9.52509 70.2458ZM64.5 28.2127C84.5089 28.2127 100.787 44.4911 100.787 64.5C100.787 84.5089 84.5089 100.787 64.5 100.787C44.4911 100.787 28.2127 84.5091 28.2127 64.5C28.2127 44.4909 44.4911 28.2127 64.5 28.2127ZM17.6695 119.621C13.0978 119.621 9.3787 115.902 9.3787 111.331C9.3787 106.759 13.098 103.04 17.6695 103.04C22.2409 103.04 25.9602 106.759 25.9602 111.331C25.9602 115.902 22.2409 119.621 17.6695 119.621ZM70.2458 119.475C70.2458 122.643 67.6681 125.221 64.5 125.221C61.3319 125.221 58.7542 122.643 58.7542 119.475C58.7542 116.307 61.3319 113.729 64.5 113.729C67.6681 113.729 70.2458 116.307 70.2458 119.475Z" fill="#054074"/>
<path d="M43.1218 87.768H53.7933C53.7991 87.768 53.8046 87.7687 53.8104 87.7687C53.8162 87.7687 53.8218 87.768 53.8276 87.768H60.0909C61.1347 87.768 61.9805 86.9219 61.9805 85.8783C61.9805 84.8347 61.1347 83.9887 60.0909 83.9887H55.7001V80.7889C55.7001 79.7453 54.8543 78.8992 53.8104 78.8992C52.7666 78.8992 51.9208 79.7453 51.9208 80.7889V83.9887H45.0115V74.6815C45.0115 70.1096 48.73 66.3898 53.3005 66.3898H75.6991C80.2698 66.3898 83.9881 70.1096 83.9881 74.6815V83.9887H77.0788V80.7889C77.0788 79.7453 76.233 78.8992 75.1892 78.8992C74.1453 78.8992 73.2995 79.7453 73.2995 80.7889V83.9887H68.9092C67.8654 83.9887 67.0196 84.8347 67.0196 85.8783C67.0196 86.9219 67.8654 87.768 68.9092 87.768H75.1725C75.1783 87.768 75.1839 87.7687 75.1897 87.7687C75.1955 87.7687 75.201 87.768 75.2068 87.768H85.8783C86.9221 87.768 87.7679 86.9219 87.7679 85.8783V74.6815C87.7679 68.0254 82.3542 62.6105 75.6996 62.6105H74.2967C77.2542 59.9342 79.1156 56.0678 79.1156 51.7745C79.1156 43.7155 72.5593 37.1592 64.5003 37.1592C56.4413 37.1592 49.885 43.7155 49.885 51.7745C49.885 56.0678 51.7464 59.9342 54.7039 62.6105H53.301C46.6464 62.6105 41.2327 68.0254 41.2327 74.6815V85.8783C41.2322 86.9219 42.0782 87.768 43.1218 87.768ZM53.664 51.7745C53.664 45.7997 58.525 40.9385 64.5 40.9385C70.4751 40.9385 75.336 45.7994 75.336 51.7745C75.336 57.7495 70.4751 62.6105 64.5 62.6105C58.525 62.6105 53.664 57.7495 53.664 51.7745Z" fill="#F8BD18"/>
</svg>
