<svg width="129" height="129" viewBox="0 0 129 129" fill="none" xmlns="http://www.w3.org/2000/svg">
<path d="M119.93 14.1094C116.04 14.1094 112.875 17.2739 112.875 21.1641V40.3125C112.875 42.5357 111.067 44.3438 108.844 44.3438H100.558C103.18 41.7799 104.812 38.2122 104.812 34.2656C104.812 26.4853 98.4814 20.1562 90.7031 20.1562C86.9359 20.1562 83.5154 21.6498 80.9838 24.0645C77.9462 20.3699 73.395 18.1406 68.5312 18.1406C66.4632 18.1406 64.4919 18.5458 62.6718 19.2593C60.1966 14.9015 55.4962 12.0938 50.3906 12.0938C49.1389 12.0938 47.9094 12.257 46.7141 12.5815C43.7834 6.18595 37.3959 2.01562 30.2344 2.01562C20.2308 2.01562 12.0938 10.1547 12.0938 20.1562C12.0938 20.8859 12.1441 21.6135 12.2308 22.3331C6.45201 23.2402 2.01562 28.2369 2.01562 34.2656C2.01562 40.9353 7.43967 46.3594 14.1094 46.3594H79.5043C75.7653 48.0706 72.5706 50.7716 70.2929 54.1518C68.4204 51.8439 65.5905 50.3906 62.4844 50.3906H22.1719C16.6148 50.3906 12.0938 54.9117 12.0938 60.4688V116.906C12.0938 122.463 16.6148 126.984 22.1719 126.984H62.4844C68.0415 126.984 72.5625 122.463 72.5625 116.906V87.7966C73.8182 88.3469 75.1788 88.6512 76.5917 88.6512H76.5938V118.922C76.5938 123.368 80.2098 126.984 84.6562 126.984C87.077 126.984 89.2237 125.892 90.7031 124.199C92.1826 125.892 94.3292 126.984 96.75 126.984C101.196 126.984 104.812 123.368 104.812 118.922V64.6733C104.812 63.21 105.857 61.9603 107.294 61.6983L113.742 60.5252C121.415 59.1324 126.984 52.4607 126.984 44.6622V21.1641C126.984 17.2739 123.82 14.1094 119.93 14.1094ZM92.5958 59.7552L90.7031 61.6499L88.8105 59.7572L90.4371 48.375H90.9712L92.5958 59.7552ZM90.7031 24.1875C96.2602 24.1875 100.781 28.7085 100.781 34.2656C100.781 39.8227 96.2602 44.3438 90.7031 44.3438C85.146 44.3438 80.625 39.8227 80.625 34.2656C80.625 28.7085 85.146 24.1875 90.7031 24.1875ZM6.04688 34.2656C6.04688 29.8192 9.66291 26.2031 14.1094 26.2031C18.5558 26.2031 22.1719 29.8192 22.1719 34.2656H26.2031C26.2031 28.3538 21.936 23.4276 16.3205 22.3835C16.2036 21.6498 16.125 20.9081 16.125 20.1562C16.125 12.3759 22.4561 6.04688 30.2344 6.04688C36.3397 6.04688 41.7255 9.94912 43.6322 15.7541L44.3256 17.8605L46.3574 16.9716C47.6393 16.4092 48.9958 16.125 50.3906 16.125C54.0167 16.125 57.3546 18.1104 59.1304 21.1903C55.0669 24.121 52.4062 28.8839 52.4062 34.2656H56.4375C56.4375 27.5959 61.8615 22.1719 68.5312 22.1719C72.4899 22.1719 76.1705 24.1371 78.4219 27.344C77.2629 29.3918 76.5938 31.7501 76.5938 34.2656C76.5938 37.2629 77.5411 40.0404 79.1415 42.3281H14.1094C9.66291 42.3281 6.04688 38.7121 6.04688 34.2656ZM66.5197 78.6094C66.5277 80.7903 67.2493 82.8442 68.5312 84.5615V98.7656H16.125V78.6094H66.5197ZM22.1719 54.4219H62.4844C64.9999 54.4219 67.2231 55.9961 68.11 58.302C67.0921 60.8457 66.5156 63.6131 66.5156 66.5156V74.5781H16.125V60.4688C16.125 57.1349 18.838 54.4219 22.1719 54.4219ZM62.4844 122.953H22.1719C18.838 122.953 16.125 120.24 16.125 116.906V102.797H68.5312V116.906C68.5312 120.24 65.8182 122.953 62.4844 122.953ZM122.953 44.6622C122.953 50.5095 118.777 55.5143 113.022 56.5605L106.574 57.7335C103.218 58.3423 100.781 61.2629 100.781 64.6733V118.922C100.781 121.145 98.9732 122.953 96.75 122.953C94.5268 122.953 92.7188 121.145 92.7188 118.922V80.625H88.6875V118.922C88.6875 121.145 86.8795 122.953 84.6562 122.953C82.433 122.953 80.625 121.145 80.625 118.922V60.4688H76.5938V84.62C74.9833 84.62 73.4695 83.9931 72.3287 82.8583C71.1778 81.7155 70.5469 80.1936 70.5469 78.5731V66.5156C70.5469 57.3103 77.4443 49.7033 86.3393 48.5443L84.5353 61.1803L90.7031 67.3501L96.873 61.1803L95.0428 48.375H108.844C113.29 48.375 116.906 44.759 116.906 40.3125V21.1641C116.906 19.4971 118.263 18.1406 119.93 18.1406C121.597 18.1406 122.953 19.4971 122.953 21.1641V44.6622Z" fill="#FFC850"/>
<path d="M26.2031 70.5469C29.537 70.5469 32.25 67.8338 32.25 64.5C32.25 61.1662 29.537 58.4531 26.2031 58.4531C22.8693 58.4531 20.1562 61.1662 20.1562 64.5C20.1562 67.8338 22.8693 70.5469 26.2031 70.5469ZM26.2031 62.4844C27.3158 62.4844 28.2188 63.3894 28.2188 64.5C28.2188 65.6106 27.3158 66.5156 26.2031 66.5156C25.0905 66.5156 24.1875 65.6106 24.1875 64.5C24.1875 63.3894 25.0905 62.4844 26.2031 62.4844Z" fill="#054074"/>
<path d="M60.4688 58.4531H64.5V70.5469H60.4688V58.4531Z" fill="#054074"/>
<path d="M52.4062 58.4531H56.4375V70.5469H52.4062V58.4531Z" fill="#054074"/>
<path d="M44.3438 58.4531H48.375V70.5469H44.3438V58.4531Z" fill="#054074"/>
<path d="M58.4531 94.7344C61.787 94.7344 64.5 92.0213 64.5 88.6875C64.5 85.3537 61.787 82.6406 58.4531 82.6406C55.1193 82.6406 52.4062 85.3537 52.4062 88.6875C52.4062 92.0213 55.1193 94.7344 58.4531 94.7344ZM58.4531 86.6719C59.5658 86.6719 60.4688 87.5749 60.4688 88.6875C60.4688 89.8001 59.5658 90.7031 58.4531 90.7031C57.3405 90.7031 56.4375 89.8001 56.4375 88.6875C56.4375 87.5749 57.3405 86.6719 58.4531 86.6719Z" fill="#054074"/>
<path d="M20.1562 82.6406H24.1875V94.7344H20.1562V82.6406Z" fill="#054074"/>
<path d="M28.2188 82.6406H32.25V94.7344H28.2188V82.6406Z" fill="#054074"/>
<path d="M36.2812 82.6406H40.3125V94.7344H36.2812V82.6406Z" fill="#054074"/>
<path d="M26.2031 106.828C22.8693 106.828 20.1562 109.541 20.1562 112.875C20.1562 116.209 22.8693 118.922 26.2031 118.922C29.537 118.922 32.25 116.209 32.25 112.875C32.25 109.541 29.537 106.828 26.2031 106.828ZM26.2031 114.891C25.0905 114.891 24.1875 113.988 24.1875 112.875C24.1875 111.762 25.0905 110.859 26.2031 110.859C27.3158 110.859 28.2188 111.762 28.2188 112.875C28.2188 113.988 27.3158 114.891 26.2031 114.891Z" fill="#054074"/>
<path d="M60.4688 106.828H64.5V118.922H60.4688V106.828Z" fill="#054074"/>
<path d="M52.4062 106.828H56.4375V118.922H52.4062V106.828Z" fill="#054074"/>
<path d="M44.3438 106.828H48.375V118.922H44.3438V106.828Z" fill="#054074"/>
</svg>
