<svg width="35" height="34" viewBox="0 0 35 34" fill="none" xmlns="http://www.w3.org/2000/svg">
<g clip-path="url(#clip0)">
<path d="M8.46508 31.5738C11.1693 33.1546 14.2612 33.9878 17.438 33.9878C27.0647 33.9878 35 26.3568 35 16.9938C35 7.64165 27.0759 0 17.438 0C7.82955 0 0.0125504 7.62349 0.0125504 16.9938C0.0125504 20.1211 0.870514 23.1475 2.49752 25.7765L0 34L8.46508 31.5738ZM2.0628 16.9938C2.0628 8.72153 8.96015 1.99141 17.438 1.99141C25.9912 1.99141 32.95 8.72153 32.95 16.9938C32.95 25.2663 25.9912 31.9961 17.438 31.9961C14.4949 31.9961 11.6347 31.1863 9.16763 29.6538L8.7735 29.4091L3.03211 31.0548L4.72588 25.4772L4.47407 25.0946C2.89646 22.6974 2.0628 19.8965 2.0628 16.9938Z" fill="white"/>
<path d="M8.51957 13.8626C8.85816 15.5899 9.86325 18.9123 12.7896 21.755C15.716 24.5978 19.1361 25.5744 20.9145 25.9034C22.9509 26.28 25.9392 26.3368 27.3996 24.9182L28.2137 24.1273C28.6247 23.728 28.8511 23.197 28.8511 22.6323C28.8511 22.0676 28.6247 21.5369 28.2137 21.1377L24.9579 17.9748C24.5466 17.5753 24.0003 17.3556 23.419 17.3556C22.8377 17.3556 22.2913 17.5753 21.8801 17.9748L21.0662 18.7655C20.569 19.2485 19.6304 19.2505 19.1294 18.7714L15.8818 15.4843C15.877 15.4794 15.8722 15.4745 15.8671 15.4698C15.3691 14.986 15.3691 14.1987 15.8671 13.715L16.681 12.9243C17.5318 12.0979 17.5318 10.7607 16.681 9.93447L13.4252 6.77162C12.5768 5.94751 11.1963 5.94751 10.3476 6.77162L9.53374 7.56253V7.56227C8.36816 8.6948 7.97963 11.1088 8.51957 13.8626ZM10.9834 8.97081C11.8379 8.15966 11.7923 8.1441 11.8865 8.1441C11.9188 8.1441 11.9512 8.15603 11.9757 8.1799C15.4065 11.5306 15.2687 11.3337 15.2687 11.4297C15.2687 11.4631 15.2562 11.4924 15.2319 11.5163L14.4177 12.3069C13.1213 13.5663 13.1162 15.6049 14.4094 16.87L17.6589 20.1592C17.664 20.1639 17.6688 20.1688 17.6738 20.1737C18.97 21.4329 21.2155 21.437 22.5159 20.1737L23.3298 19.3831C23.3789 19.3354 23.459 19.3354 23.5082 19.3831C26.9389 22.7335 26.8012 22.5366 26.8012 22.6326C26.8012 22.6663 26.7886 22.6954 26.7643 22.7192L25.9501 23.5099C25.3923 24.0518 23.6155 24.376 21.298 23.9472C19.7513 23.6609 16.7774 22.8126 14.2393 20.347C11.7012 17.8814 10.828 14.9925 10.5335 13.4901C10.0918 11.2387 10.4256 9.51243 10.9834 8.97081Z" fill="white"/>
</g>
<defs>
<clipPath id="clip0">
<rect width="35" height="34" fill="white"/>
</clipPath>
</defs>
</svg>
