<svg width="1065" height="272" viewBox="0 0 1065 272" fill="none" xmlns="http://www.w3.org/2000/svg">
<path fill-rule="evenodd" clip-rule="evenodd" d="M267.311 152.177V151.046L320.616 97.7402C356.503 109.507 382.376 142.831 382.376 182.101C382.376 230.722 342.715 270.226 293.494 270.99L293.494 271H292.498C292.431 271.001 292.364 271.001 292.297 271.001C292.212 271.001 292.126 271.001 292.041 271.001C291.889 271.001 291.736 271.001 291.584 271H174.148V270.773L223.851 221.07H294.711V220.997C315.099 219.74 331.246 202.806 331.246 182.102C331.246 160.579 313.798 143.132 292.276 143.132C282.777 143.132 274.072 146.53 267.311 152.177Z" fill="#EFEFEF"/>
<path fill-rule="evenodd" clip-rule="evenodd" d="M267.311 152.177V151.046L320.616 97.7402C356.503 109.507 382.376 142.831 382.376 182.101C382.376 230.722 342.715 270.226 293.494 270.99L293.494 271H292.498C292.431 271.001 292.364 271.001 292.297 271.001C292.212 271.001 292.126 271.001 292.041 271.001C291.889 271.001 291.736 271.001 291.584 271H174.148V270.773L223.851 221.07H294.711V220.997C315.099 219.74 331.246 202.806 331.246 182.102C331.246 160.579 313.798 143.132 292.276 143.132C282.777 143.132 274.072 146.53 267.311 152.177Z" fill="url(#paint0_linear)"/>
<path d="M584.123 143.572C581.443 143.572 579.188 142.979 577.359 141.794C575.529 140.583 574.241 138.946 573.493 136.885L578.054 134.218C579.111 136.975 581.185 138.354 584.277 138.354C585.772 138.354 586.867 138.083 587.563 137.542C588.259 137.001 588.607 136.318 588.607 135.493C588.607 134.54 588.181 133.805 587.331 133.29C586.481 132.749 584.96 132.169 582.77 131.551C581.559 131.19 580.528 130.829 579.678 130.468C578.853 130.108 578.016 129.631 577.165 129.038C576.341 128.42 575.709 127.647 575.271 126.719C574.833 125.792 574.614 124.709 574.614 123.472C574.614 121.024 575.478 119.079 577.204 117.636C578.956 116.167 581.056 115.433 583.504 115.433C585.695 115.433 587.614 115.974 589.264 117.056C590.939 118.113 592.24 119.594 593.168 121.501L588.684 124.091C587.602 121.772 585.875 120.612 583.504 120.612C582.396 120.612 581.52 120.87 580.876 121.385C580.258 121.875 579.948 122.519 579.948 123.318C579.948 124.168 580.296 124.864 580.992 125.405C581.714 125.92 583.079 126.487 585.089 127.106C585.914 127.363 586.532 127.57 586.945 127.724C587.383 127.853 587.962 128.072 588.684 128.381C589.431 128.665 589.998 128.935 590.385 129.193C590.797 129.451 591.261 129.798 591.776 130.237C592.291 130.675 592.678 131.126 592.936 131.589C593.219 132.053 593.451 132.62 593.631 133.29C593.838 133.934 593.941 134.643 593.941 135.416C593.941 137.916 593.026 139.9 591.196 141.368C589.392 142.837 587.035 143.572 584.123 143.572Z" fill="#F6F6F6"/>
<path d="M632.753 139.513C630.021 142.219 626.697 143.572 622.78 143.572C618.863 143.572 615.539 142.219 612.808 139.513C610.102 136.782 608.749 133.445 608.749 129.502C608.749 125.56 610.102 122.235 612.808 119.53C615.539 116.798 618.863 115.433 622.78 115.433C626.697 115.433 630.021 116.798 632.753 119.53C635.484 122.235 636.85 125.56 636.85 129.502C636.85 133.445 635.484 136.782 632.753 139.513ZM616.557 135.88C618.232 137.529 620.306 138.354 622.78 138.354C625.254 138.354 627.328 137.529 629.003 135.88C630.678 134.205 631.516 132.079 631.516 129.502C631.516 126.925 630.678 124.799 629.003 123.124C627.328 121.45 625.254 120.612 622.78 120.612C620.306 120.612 618.232 121.45 616.557 123.124C614.882 124.799 614.045 126.925 614.045 129.502C614.045 132.079 614.882 134.205 616.557 135.88Z" fill="#F6F6F6"/>
<path d="M669.511 121.076H658.688V127.492H669.202V132.594H658.688V143.031H653.354V115.974H669.511V121.076Z" fill="#F6F6F6"/>
<path d="M704.049 115.974V121.076H696.744V143.031H691.41V121.076H684.143V115.974H704.049Z" fill="#F6F6F6"/>
<path d="M725.425 143.031L717.85 115.974H723.454L728.634 136.034L734.277 115.974H738.838L744.52 136.034L749.699 115.974H755.304L747.728 143.031H741.66L736.557 125.173L731.494 143.031H725.425Z" fill="#F6F6F6"/>
<path d="M786.998 143.031L785.375 138.16H774.591L772.968 143.031H767.208L776.678 115.974H783.288L792.796 143.031H786.998ZM776.292 133.174H783.713L780.002 122.12L776.292 133.174Z" fill="#F6F6F6"/>
<path d="M823.021 143.031L817.571 133.638H813.513V143.031H808.179V115.974H819.002C821.501 115.974 823.627 116.85 825.379 118.602C827.131 120.354 828.008 122.467 828.008 124.941C828.008 126.616 827.531 128.175 826.577 129.618C825.624 131.035 824.361 132.105 822.789 132.826L828.781 143.031H823.021ZM813.513 120.96V128.961H819.002C820.007 128.961 820.87 128.574 821.591 127.801C822.313 127.003 822.674 126.049 822.674 124.941C822.674 123.833 822.313 122.893 821.591 122.12C820.87 121.346 820.007 120.96 819.002 120.96H813.513Z" fill="#F6F6F6"/>
<path d="M850.011 137.928H861.413V143.031H844.677V115.974H861.22V121.076H850.011V126.835H860.254V131.86H850.011V137.928Z" fill="#F6F6F6"/>
<path d="M887.167 143.572C884.487 143.572 882.232 142.979 880.402 141.794C878.573 140.583 877.284 138.946 876.537 136.885L881.098 134.218C882.155 136.975 884.229 138.354 887.321 138.354C888.816 138.354 889.911 138.083 890.607 137.542C891.302 137.001 891.65 136.318 891.65 135.493C891.65 134.54 891.225 133.805 890.375 133.29C889.524 132.749 888.004 132.169 885.814 131.551C884.603 131.19 883.572 130.829 882.722 130.468C881.897 130.108 881.059 129.631 880.209 129.038C879.385 128.42 878.753 127.647 878.315 126.719C877.877 125.792 877.658 124.709 877.658 123.472C877.658 121.024 878.521 119.079 880.248 117.636C882 116.167 884.1 115.433 886.548 115.433C888.738 115.433 890.658 115.974 892.307 117.056C893.982 118.113 895.284 119.594 896.211 121.501L891.728 124.091C890.645 121.772 888.919 120.612 886.548 120.612C885.44 120.612 884.564 120.87 883.92 121.385C883.301 121.875 882.992 122.519 882.992 123.318C882.992 124.168 883.34 124.864 884.036 125.405C884.757 125.92 886.123 126.487 888.133 127.106C888.957 127.363 889.576 127.57 889.988 127.724C890.426 127.853 891.006 128.072 891.728 128.381C892.475 128.665 893.042 128.935 893.428 129.193C893.841 129.451 894.304 129.798 894.82 130.237C895.335 130.675 895.722 131.126 895.979 131.589C896.263 132.053 896.495 132.62 896.675 133.29C896.881 133.934 896.984 134.643 896.984 135.416C896.984 137.916 896.07 139.9 894.24 141.368C892.436 142.837 890.078 143.572 887.167 143.572Z" fill="#F6F6F6"/>
<path d="M584.973 161.974C587.576 161.974 589.766 162.85 591.544 164.602C593.322 166.354 594.211 168.506 594.211 171.057C594.211 173.608 593.322 175.76 591.544 177.512C589.766 179.264 587.576 180.14 584.973 180.14H580.219V189.031H574.885V161.974H584.973ZM584.973 175.154C586.107 175.154 587.048 174.768 587.795 173.995C588.542 173.196 588.916 172.217 588.916 171.057C588.916 169.872 588.542 168.893 587.795 168.12C587.048 167.346 586.107 166.96 584.973 166.96H580.219V175.154H584.973Z" fill="#F6F6F6"/>
<path d="M615.773 183.928H627.176V189.031H610.439V161.974H626.983V167.076H615.773V172.835H626.016V177.86H615.773V183.928Z" fill="#F6F6F6"/>
<path d="M658.534 189.031L653.084 179.638H649.025V189.031H643.691V161.974H654.514C657.013 161.974 659.139 162.85 660.891 164.602C662.644 166.354 663.52 168.467 663.52 170.941C663.52 172.616 663.043 174.175 662.09 175.618C661.136 177.035 659.874 178.105 658.302 178.826L664.293 189.031H658.534ZM649.025 166.96V174.961H654.514C655.519 174.961 656.382 174.574 657.103 173.801C657.825 173.003 658.186 172.049 658.186 170.941C658.186 169.833 657.825 168.893 657.103 168.12C656.382 167.346 655.519 166.96 654.514 166.96H649.025Z" fill="#F6F6F6"/>
<path d="M689.012 189.572C686.332 189.572 684.077 188.979 682.248 187.794C680.418 186.583 679.13 184.946 678.382 182.885L682.943 180.218C684 182.975 686.074 184.354 689.166 184.354C690.661 184.354 691.756 184.083 692.452 183.542C693.148 183.001 693.495 182.318 693.495 181.493C693.495 180.54 693.07 179.805 692.22 179.29C691.37 178.749 689.849 178.169 687.659 177.551C686.448 177.19 685.417 176.829 684.567 176.468C683.742 176.108 682.905 175.631 682.054 175.038C681.23 174.42 680.598 173.647 680.16 172.719C679.722 171.792 679.503 170.709 679.503 169.472C679.503 167.024 680.366 165.079 682.093 163.636C683.845 162.167 685.945 161.433 688.393 161.433C690.584 161.433 692.503 161.974 694.153 163.056C695.827 164.113 697.129 165.594 698.056 167.501L693.573 170.091C692.49 167.772 690.764 166.612 688.393 166.612C687.285 166.612 686.409 166.87 685.765 167.385C685.146 167.875 684.837 168.519 684.837 169.318C684.837 170.168 685.185 170.864 685.881 171.405C686.602 171.92 687.968 172.487 689.978 173.106C690.803 173.363 691.421 173.57 691.833 173.724C692.271 173.853 692.851 174.072 693.573 174.381C694.32 174.665 694.887 174.935 695.273 175.193C695.686 175.451 696.15 175.798 696.665 176.237C697.18 176.675 697.567 177.126 697.825 177.589C698.108 178.053 698.34 178.62 698.52 179.29C698.726 179.934 698.829 180.643 698.829 181.416C698.829 183.916 697.915 185.9 696.085 187.368C694.281 188.837 691.924 189.572 689.012 189.572Z" fill="#F6F6F6"/>
<path d="M737.641 185.513C734.91 188.219 731.586 189.572 727.669 189.572C723.752 189.572 720.428 188.219 717.697 185.513C714.991 182.782 713.638 179.445 713.638 175.502C713.638 171.56 714.991 168.235 717.697 165.53C720.428 162.798 723.752 161.433 727.669 161.433C731.586 161.433 734.91 162.798 737.641 165.53C740.373 168.235 741.739 171.56 741.739 175.502C741.739 179.445 740.373 182.782 737.641 185.513ZM721.446 181.88C723.121 183.529 725.195 184.354 727.669 184.354C730.143 184.354 732.217 183.529 733.892 181.88C735.567 180.205 736.405 178.079 736.405 175.502C736.405 172.925 735.567 170.799 733.892 169.124C732.217 167.45 730.143 166.612 727.669 166.612C725.195 166.612 723.121 167.45 721.446 169.124C719.771 170.799 718.934 172.925 718.934 175.502C718.934 178.079 719.771 180.205 721.446 181.88Z" fill="#F6F6F6"/>
<path d="M773.897 161.974H779.231V189.031H775.173L763.577 172.487V189.031H758.243V161.974H762.302L773.897 178.478V161.974Z" fill="#F6F6F6"/>
<path d="M814.399 189.031L812.776 184.16H801.992L800.369 189.031H794.609L804.079 161.974H810.689L820.197 189.031H814.399ZM803.693 179.174H811.114L807.403 168.12L803.693 179.174Z" fill="#F6F6F6"/>
<path d="M840.914 183.928H851.234V189.031H835.58V161.974H840.914V183.928Z" fill="#F6F6F6"/>
<path d="M867.02 161.974H872.354V189.031H867.02V161.974Z" fill="#F6F6F6"/>
<path d="M895.8 183.928H907.279V189.031H888.997V184.779L900.245 167.076H889.267V161.974H907.048V166.187L895.8 183.928Z" fill="#F6F6F6"/>
<path d="M941.103 189.031L939.479 184.16H928.695L927.072 189.031H921.313L930.783 161.974H937.392L946.901 189.031H941.103ZM930.396 179.174H937.817L934.107 168.12L930.396 179.174Z" fill="#F6F6F6"/>
<path d="M973.029 161.974C976.739 161.974 979.832 163.275 982.305 165.878C984.805 168.48 986.055 171.688 986.055 175.502C986.055 179.316 984.805 182.524 982.305 185.127C979.832 187.729 976.739 189.031 973.029 189.031H962.283V161.974H973.029ZM973.029 183.928C975.374 183.928 977.28 183.155 978.749 181.609C980.218 180.037 980.952 178.002 980.952 175.502C980.952 173.003 980.218 170.98 978.749 169.434C977.28 167.862 975.374 167.076 973.029 167.076H967.617V183.928H973.029Z" fill="#F6F6F6"/>
<path d="M1025.36 185.513C1022.63 188.219 1019.3 189.572 1015.39 189.572C1011.47 189.572 1008.15 188.219 1005.42 185.513C1002.71 182.782 1001.36 179.445 1001.36 175.502C1001.36 171.56 1002.71 168.235 1005.42 165.53C1008.15 162.798 1011.47 161.433 1015.39 161.433C1019.3 161.433 1022.63 162.798 1025.36 165.53C1028.09 168.235 1029.46 171.56 1029.46 175.502C1029.46 179.445 1028.09 182.782 1025.36 185.513ZM1009.16 181.88C1010.84 183.529 1012.91 184.354 1015.39 184.354C1017.86 184.354 1019.94 183.529 1021.61 181.88C1023.29 180.205 1024.12 178.079 1024.12 175.502C1024.12 172.925 1023.29 170.799 1021.61 169.124C1019.94 167.45 1017.86 166.612 1015.39 166.612C1012.91 166.612 1010.84 167.45 1009.16 169.124C1007.49 170.799 1006.65 172.925 1006.65 175.502C1006.65 178.079 1007.49 180.205 1009.16 181.88Z" fill="#F6F6F6"/>
<path d="M1054.22 189.572C1051.54 189.572 1049.28 188.979 1047.45 187.794C1045.62 186.583 1044.34 184.946 1043.59 182.885L1048.15 180.218C1049.21 182.975 1051.28 184.354 1054.37 184.354C1055.87 184.354 1056.96 184.083 1057.66 183.542C1058.35 183.001 1058.7 182.318 1058.7 181.493C1058.7 180.54 1058.28 179.805 1057.43 179.29C1056.58 178.749 1055.06 178.169 1052.87 177.551C1051.65 177.19 1050.62 176.829 1049.77 176.468C1048.95 176.108 1048.11 175.631 1047.26 175.038C1046.44 174.42 1045.8 173.647 1045.37 172.719C1044.93 171.792 1044.71 170.709 1044.71 169.472C1044.71 167.024 1045.57 165.079 1047.3 163.636C1049.05 162.167 1051.15 161.433 1053.6 161.433C1055.79 161.433 1057.71 161.974 1059.36 163.056C1061.03 164.113 1062.34 165.594 1063.26 167.501L1058.78 170.091C1057.7 167.772 1055.97 166.612 1053.6 166.612C1052.49 166.612 1051.62 166.87 1050.97 167.385C1050.35 167.875 1050.04 168.519 1050.04 169.318C1050.04 170.168 1050.39 170.864 1051.09 171.405C1051.81 171.92 1053.17 172.487 1055.18 173.106C1056.01 173.363 1056.63 173.57 1057.04 173.724C1057.48 173.853 1058.06 174.072 1058.78 174.381C1059.53 174.665 1060.09 174.935 1060.48 175.193C1060.89 175.451 1061.36 175.798 1061.87 176.237C1062.39 176.675 1062.77 177.126 1063.03 177.589C1063.31 178.053 1063.55 178.62 1063.73 179.29C1063.93 179.934 1064.04 180.643 1064.04 181.416C1064.04 183.916 1063.12 185.9 1061.29 187.368C1059.49 188.837 1057.13 189.572 1054.22 189.572Z" fill="#F6F6F6"/>
<path fill-rule="evenodd" clip-rule="evenodd" d="M391.495 25.0013L362.453 54.0432V72.4958H425.001V268.563H444.971L480.598 232.936V72.4958H543.145V25.0013H391.495ZM0 25H97.2954C164.36 25 215.44 77.8876 215.44 146.781C215.44 152.699 215.063 158.5 214.331 164.159L110.639 267.851C106.271 268.321 101.82 268.561 97.2954 268.561H0V25ZM55.5974 214.978H97.2954C135.519 214.978 161.927 188.534 161.927 146.781C161.927 105.027 135.519 78.5835 97.2954 78.5835H55.5974V214.978Z" fill="#EFEFEF"/>
<path fill-rule="evenodd" clip-rule="evenodd" d="M391.495 25.0013L362.453 54.0432V72.4958H425.001V268.563H444.971L480.598 232.936V72.4958H543.145V25.0013H391.495ZM0 25H97.2954C164.36 25 215.44 77.8876 215.44 146.781C215.44 152.699 215.063 158.5 214.331 164.159L110.639 267.851C106.271 268.321 101.82 268.561 97.2954 268.561H0V25ZM55.5974 214.978H97.2954C135.519 214.978 161.927 188.534 161.927 146.781C161.927 105.027 135.519 78.5835 97.2954 78.5835H55.5974V214.978Z" fill="url(#paint1_linear)"/>
<g filter="url(#filter0_d)">
<path fill-rule="evenodd" clip-rule="evenodd" d="M373.341 25.0801H173.62V72.5748H305.105L231.147 146.533L264.731 180.116L372.272 72.5748H373.341V25.0801Z" fill="#00F0FF"/>
<path fill-rule="evenodd" clip-rule="evenodd" d="M373.341 25.0801H173.62V72.5748H305.105L231.147 146.533L264.731 180.116L372.272 72.5748H373.341V25.0801Z" fill="url(#paint2_linear)"/>
</g>
<defs>
<filter id="filter0_d" x="149.263" y="0.723801" width="248.434" height="203.749" filterUnits="userSpaceOnUse" color-interpolation-filters="sRGB">
<feFlood flood-opacity="0" result="BackgroundImageFix"/>
<feColorMatrix in="SourceAlpha" type="matrix" values="0 0 0 0 0 0 0 0 0 0 0 0 0 0 0 0 0 0 127 0"/>
<feOffset/>
<feGaussianBlur stdDeviation="12.1781"/>
<feColorMatrix type="matrix" values="0 0 0 0 0.0196078 0 0 0 0 0.882353 0 0 0 0 1 0 0 0 0.3 0"/>
<feBlend mode="normal" in2="BackgroundImageFix" result="effect1_dropShadow"/>
<feBlend mode="normal" in="SourceGraphic" in2="effect1_dropShadow" result="shape"/>
</filter>
<linearGradient id="paint0_linear" x1="278.262" y1="25.612" x2="278.262" y2="271.001" gradientUnits="userSpaceOnUse">
<stop offset="0.0520833" stop-color="#BEBEBE"/>
<stop offset="0.213542" stop-color="#F0F0F0"/>
<stop offset="0.447917" stop-color="white"/>
<stop offset="0.46875" stop-color="#E7E7E7"/>
<stop offset="0.713542" stop-color="#F9F9F9"/>
<stop offset="0.963542" stop-color="#898989"/>
</linearGradient>
<linearGradient id="paint1_linear" x1="271.572" y1="25" x2="271.572" y2="268.563" gradientUnits="userSpaceOnUse">
<stop offset="0.0520833" stop-color="#BEBEBE"/>
<stop offset="0.213542" stop-color="#F0F0F0"/>
<stop offset="0.447917" stop-color="white"/>
<stop offset="0.46875" stop-color="#E7E7E7"/>
<stop offset="0.713542" stop-color="#F9F9F9"/>
<stop offset="0.963542" stop-color="#898989"/>
</linearGradient>
<linearGradient id="paint2_linear" x1="373.759" y1="74.0001" x2="173.759" y2="274.5" gradientUnits="userSpaceOnUse">
<stop stop-color="#05E1FF"/>
<stop offset="1" stop-color="#0047FF"/>
</linearGradient>
</defs>
</svg>
