<svg width="152" height="152" viewBox="0 0 152 152" fill="none" xmlns="http://www.w3.org/2000/svg">
<g clip-path="url(#clip0)">
<!-- <path d="M46.4732 108.657L36.1207 114.634C50.4385 129.276 71.8576 134.855 91.5011 129.052L85.5513 118.747C71.7149 121.89 57.0766 118.117 46.4732 108.657Z" fill="#054074"/> -->
<!-- <path d="M22.7937 92.2915L33.0539 86.3678C29.519 72.0072 33.4866 56.7258 43.5014 45.9143L37.5505 35.6071C22.2094 50.1532 16.4908 72.1108 22.7937 92.2915Z" fill="#054074"/> -->
<!-- <path d="M42.6032 31.3534L48.3905 41.3773C52.9162 38.0527 53.9699 37.3689 59.6552 34.8736C58.9327 33.6222 54.5931 26.1058 53.8679 24.8497C50.696 26.1676 45.9295 28.8066 42.6032 31.3534Z" fill="#054074"/> -->
<!-- <path d="M91.925 116.781L97.7123 126.805C101.527 125.22 106.301 122.375 108.977 120.301C108.251 119.045 103.911 111.527 103.19 110.278C98.7841 113.519 97.893 114.167 91.925 116.781Z" fill="#054074"/> -->
<path d="M35.1281 92.6785L25.1232 98.4549C25.7392 100.1 28.7445 105.76 31.7826 109.629L41.829 103.829C38.973 100.359 36.7142 96.5284 35.1281 92.6785Z" fill="#054074"/>
</g>
<defs>
<clipPath id="clip0">
<rect width="111" height="111" fill="white" transform="translate(0 55.5) rotate(-30)"/>
</clipPath>
</defs>
</svg>
